<svg width="13" height="10" viewBox="0 0 13 10" fill="none" xmlns="http://www.w3.org/2000/svg">
<path d="M11.6838 6.36009C11.6878 6.32298 11.7 6.28784 11.7 6.25073C11.7 5.56141 11.117 5.00098 10.4 5.00098C10.1441 5.00098 9.90844 5.07518 9.70734 5.19625C9.34984 4.43859 8.55969 3.90744 7.6375 3.90744C6.38219 3.90744 5.3625 4.88577 5.3625 6.09451C5.3625 6.1531 5.37672 6.20777 5.38078 6.2644C4.37328 6.33665 3.575 7.13728 3.575 8.12537C3.575 9.16032 4.44844 10 5.525 10H11.05C12.1266 10 13 9.16032 13 8.12537C13 7.30326 12.4475 6.61394 11.6838 6.36009ZM2.94125 5.91877C2.05359 5.06542 2.05359 3.67897 2.94125 2.82757C3.82891 1.97422 5.27109 1.97422 6.15875 2.82757C6.35578 3.01699 6.50203 3.2357 6.61172 3.46612C6.81078 3.39387 7.02 3.34896 7.23531 3.31966L7.84062 1.58368C7.92187 1.3513 7.69234 1.13259 7.45062 1.20875L5.66719 1.7809L4.82422 0.16403C4.7125 -0.0546768 4.3875 -0.0546768 4.27375 0.16403L3.43281 1.7809L1.64734 1.20875C1.40766 1.13259 1.17813 1.35325 1.25734 1.58368L1.8525 3.29818L0.170625 4.10857C-0.056875 4.21793 -0.056875 4.52841 0.170625 4.63777L1.8525 5.4462L1.25734 7.16071C1.17609 7.39309 1.40562 7.61179 1.64734 7.53564L3.19312 7.04159C3.31703 6.79945 3.4775 6.57879 3.6725 6.38742C3.40641 6.28198 3.15656 6.12576 2.94125 5.91877ZM2.84375 4.37219C2.84375 5.16891 3.43891 5.83285 4.22297 5.9793C4.38547 5.88752 4.55406 5.80746 4.73484 5.75083C4.84453 4.88576 5.36453 4.13982 6.10391 3.70045C5.83578 3.1322 5.24062 2.73384 4.55 2.73384C3.60953 2.73384 2.84375 3.46807 2.84375 4.37219Z" fill="black"/>
</svg>
