<svg width="13" height="13" viewBox="0 0 13 13" fill="none" xmlns="http://www.w3.org/2000/svg">
<path d="M6.50032 4.0625C5.15709 4.0625 4.0627 5.15684 4.0627 6.5C4.0627 7.84316 5.15709 8.9375 6.50032 8.9375C7.84354 8.9375 8.93793 7.84316 8.93793 6.5C8.93793 5.15684 7.84354 4.0625 6.50032 4.0625ZM12.7569 6.10645L10.3523 4.90547L11.2029 2.35625C11.3172 2.01094 10.9896 1.6834 10.6468 1.8002L8.09746 2.65078L6.89389 0.24375C6.73138 -0.08125 6.26925 -0.08125 6.10674 0.24375L4.90571 2.64824L2.35383 1.79766C2.0085 1.6834 1.68094 2.01094 1.79774 2.35371L2.64837 4.90293L0.243762 6.10645C-0.0812539 6.26895 -0.0812539 6.73105 0.243762 6.89355L2.64837 8.09453L1.79774 10.6463C1.68348 10.9916 2.01103 11.3191 2.35383 11.2023L4.90317 10.3518L6.1042 12.7562C6.26671 13.0813 6.72884 13.0813 6.89135 12.7562L8.09239 10.3518L10.6417 11.2023C10.9871 11.3166 11.3146 10.9891 11.1978 10.6463L10.3472 8.09707L12.7518 6.89609C13.0819 6.73105 13.0819 6.26895 12.7569 6.10645ZM8.79828 8.79785C7.53122 10.0648 5.46941 10.0648 4.20235 8.79785C2.9353 7.53086 2.9353 5.46914 4.20235 4.20215C5.46941 2.93516 7.53122 2.93516 8.79828 4.20215C10.0653 5.46914 10.0653 7.53086 8.79828 8.79785Z" fill="black"/>
</svg>
