<svg width="17" height="17" viewBox="0 0 17 17" fill="none" xmlns="http://www.w3.org/2000/svg">
<path d="M8.5 0C3.80444 0 0 3.80444 0 8.5C0 13.1956 3.80444 17 8.5 17C13.1956 17 17 13.1956 17 8.5C17 3.80444 13.1956 0 8.5 0ZM10.4571 11.9994L7.43407 9.80242C7.32782 9.72359 7.26613 9.6002 7.26613 9.46996V3.70161C7.26613 3.4754 7.45121 3.29032 7.67742 3.29032H9.32258C9.54879 3.29032 9.73387 3.4754 9.73387 3.70161V8.42117L11.9103 10.0046C12.0954 10.1383 12.1331 10.3954 11.9994 10.5804L11.0329 11.9103C10.8992 12.0919 10.6421 12.1331 10.4571 11.9994Z" fill="#392CFE"/>
</svg>
