<svg width="71" height="80" viewBox="0 0 71 80" fill="none" xmlns="http://www.w3.org/2000/svg">
<path d="M35.5 40C46.7047 40 55.7857 31.0469 55.7857 20C55.7857 8.95312 46.7047 0 35.5 0C24.2953 0 15.2143 8.95312 15.2143 20C15.2143 31.0469 24.2953 40 35.5 40ZM50.6826 45.0938L43.1071 75L38.0357 53.75L43.1071 45H27.8929L32.9643 53.75L27.8929 75L20.3174 45.0938C9.01763 45.625 0 54.7344 0 66V72.5C0 76.6406 3.40737 80 7.60714 80H63.3929C67.5926 80 71 76.6406 71 72.5V66C71 54.7344 61.9824 45.625 50.6826 45.0938Z" fill="#392CFE"/>
</svg>
