<svg width="13" height="11" viewBox="0 0 13 11" fill="none" xmlns="http://www.w3.org/2000/svg">
<path d="M11.7812 0H1.21875C0.545898 0 0 0.527902 0 1.17857V9.82143C0 10.4721 0.545898 11 1.21875 11H11.7812C12.4541 11 13 10.4721 13 9.82143V1.17857C13 0.527902 12.4541 0 11.7812 0ZM9.65859 7.13281C9.78047 7.25067 9.78047 7.44219 9.65859 7.56004L8.63027 8.55446C8.5084 8.67232 8.31035 8.67232 8.18848 8.55446L6.5 6.90692L4.81152 8.55446C4.68965 8.67232 4.4916 8.67232 4.36973 8.55446L3.34141 7.56004C3.21953 7.44219 3.21953 7.25067 3.34141 7.13281L5.04512 5.5L3.34141 3.86719C3.21953 3.74933 3.21953 3.55781 3.34141 3.43996L4.36973 2.44554C4.4916 2.32768 4.68965 2.32768 4.81152 2.44554L6.5 4.09308L8.18848 2.44554C8.31035 2.32768 8.5084 2.32768 8.63027 2.44554L9.65859 3.43996C9.78047 3.55781 9.78047 3.74933 9.65859 3.86719L7.95488 5.5L9.65859 7.13281Z" fill="#E84C3C"/>
</svg>
