<svg width="63" height="50" viewBox="0 0 63 50" fill="none" xmlns="http://www.w3.org/2000/svg">
<path d="M9.45 31.084V31.2489H9.61626C9.56025 31.1914 9.50513 31.1426 9.45 31.084ZM17.325 31.25C21.669 31.25 25.2 27.7461 25.2 23.5254C25.2 19.3047 21.6681 15.8008 17.325 15.8008C12.9819 15.8008 9.45 19.1309 9.45 23.4375C9.45 27.7441 12.9839 31.25 17.325 31.25ZM25.2 31.084C25.1409 31.1426 25.0917 31.1914 25.0327 31.25H25.2V31.084ZM53.55 15.625H45.4683L44.3658 17.959C43.4602 19.8438 41.5209 21.0742 39.375 21.0938C37.2852 21.0938 35.342 19.8916 34.4236 18.0322L33.2345 15.626H29.925C29.0552 15.626 28.35 16.3253 28.35 17.1006V34.2002L6.3 34.375V7.81348C6.3 6.95078 5.59479 6.33887 4.725 6.33887H1.575C0.705206 6.33887 0 7.03838 0 7.81348V48.4375C0 49.2969 0.705206 50 1.575 50H4.725C5.59519 50 6.3 49.2969 6.3 48.4375V43.8379H56.7V48.4375C56.7 49.3004 57.4052 50 58.275 50H61.425C62.2948 50 63 49.3004 63 48.4375V25C63 19.7363 58.7672 15.625 53.55 15.625ZM61.425 4.68848H50.085L47.6359 1.04492C47.4071 0.705078 47.0906 0.446191 46.7344 0.265918C46.619 0.207168 46.4897 0.212129 46.3664 0.173027C46.1475 0.101074 45.9211 0 45.6848 0C45.6233 0 45.5618 0.00248047 45.5003 0.00762695C44.6513 0.0701855 43.9007 0.581455 43.5374 1.34552L39.3322 10.2137L37.2532 6.00274C36.8568 5.19972 36.0335 4.69024 35.1328 4.69024L20.475 4.68945C19.6088 4.68848 18.9 5.38867 18.9 6.25195V7.81348C18.9 8.67637 19.6051 9.28809 20.3864 9.37598L33.4884 9.37686L37.0775 16.6571C37.6523 17.4609 38.4694 17.9688 39.375 17.9688C40.2825 17.9611 41.1252 17.4377 41.5131 16.623L46.0323 7.09961L46.8598 8.33203C47.2992 8.89648 47.9489 9.37598 48.825 9.37598H61.425C62.2948 9.37598 63 8.67637 63 7.81348V6.25098C63 5.38867 62.2913 4.68848 61.425 4.68848Z" fill="#392CFE"/>
</svg>
