<svg width="375" height="357" viewBox="0 0 375 357" fill="none" xmlns="http://www.w3.org/2000/svg">
    <defs>
        <linearGradient id="paint0_linear_13_28" x1="64.5193" y1="353.411" x2="64.5193" y2="72.76" gradientUnits="userSpaceOnUse">
            <stop stop-color="#808080" stop-opacity="0.25"/>
            <stop offset="0.54" stop-color="#808080" stop-opacity="0.12"/>
            <stop offset="1" stop-color="#808080" stop-opacity="0.1"/>
        </linearGradient>
        <linearGradient id="paint1_linear_13_28" x1="309.486" y1="349.862" x2="309.486" y2="93.5396" gradientUnits="userSpaceOnUse">
            <stop stop-color="#808080" stop-opacity="0.25"/>
            <stop offset="0.54" stop-color="#808080" stop-opacity="0.12"/>
            <stop offset="1" stop-color="#808080" stop-opacity="0.1"/>
        </linearGradient>
        <clipPath id="clip0_13_28">
            <rect width="504" height="357" fill="white" transform="translate(-98)"/>
        </clipPath>
        <clipPath id="clip1_13_28">
            <rect width="12" height="12" fill="white" transform="translate(194 219)"/>
        </clipPath>
        <clipPath id="clip2_13_28">
            <rect width="12" height="12" fill="white" transform="translate(262 245)"/>
        </clipPath>
        <clipPath id="clip3_13_28">
            <rect width="12" height="12" fill="white" transform="translate(262 245)"/>
        </clipPath>
        <clipPath id="clip4_13_28">
            <rect width="12" height="12" fill="white" transform="translate(214 271)"/>
        </clipPath>
        <clipPath id="clip5_13_28">
            <rect width="12" height="12" fill="white" transform="translate(211 194)"/>
        </clipPath>
    </defs>
<g clip-path="url(#clip0_13_28)">
<path opacity="0.1" d="M69.559 356.799C94.1035 356.799 114.001 353.604 114.001 349.662C114.001 345.719 94.1035 342.524 69.559 342.524C45.0146 342.524 25.1174 345.719 25.1174 349.662C25.1174 353.604 45.0146 356.799 69.559 356.799Z" fill="#6C63FF"/>
<path opacity="0.1" d="M311.137 357C341.765 357 366.594 353.804 366.594 349.862C366.594 345.92 341.765 342.724 311.137 342.724C280.51 342.724 255.681 345.92 255.681 349.862C255.681 353.804 280.51 357 311.137 357Z" fill="#6C63FF"/>
<path opacity="0.1" d="M-34.3479 154.245V217.341H64.5192V154.245H-34.3479ZM-34.3479 219.288V273.472C-33.7823 273.59 -33.2214 273.704 -32.6649 273.8C-31.9078 273.946 -31.1553 274.078 -30.3845 274.192C-30.2385 274.215 -30.088 274.238 -29.9284 274.252C-29.6273 274.302 -29.3172 274.343 -29.0162 274.384C-28.2545 274.489 -27.4974 274.575 -26.7357 274.644C-26.3754 274.68 -26.0105 274.712 -25.6457 274.74L-24.7654 274.808C-24.2865 274.844 -23.8122 274.872 -23.3424 274.885C-23.0505 274.885 -22.7586 274.913 -22.4576 274.922C-22.2295 274.922 -22.0015 274.922 -21.7643 274.922C-21.5272 274.922 -21.1896 274.922 -20.9023 274.922C-20.5101 274.922 -20.1178 274.922 -19.7301 274.922H-19.2056C-18.8134 274.922 -18.4212 274.922 -18.0335 274.885H-18.0061C-17.737 274.885 -17.4634 274.885 -17.1897 274.849C-17.1138 274.854 -17.0376 274.854 -16.9617 274.849C-16.7336 274.849 -16.5056 274.849 -16.2867 274.817H-16.127L-14.5991 274.698C-14.0974 274.653 -13.5912 274.594 -13.0803 274.539L-12.0404 274.416C-7.80983 273.823 -3.62623 272.933 0.47929 271.752C9.70147 269.18 18.723 265.581 27.9406 262.945C39.8583 259.547 53.0257 257.878 64.542 262.033V219.288H-34.3479ZM64.5192 84.0027V0.00452914C53.6949 -0.112742 42.9 1.15327 32.3966 3.77183C7.36172 10.0613 -15.1008 23.703 -34.3479 41.1256V83.9981H-29.3856V85.9456H-34.3479V152.298H64.5192V85.9502H-9.01198V84.0027H64.5192ZM191.509 55.6293C185.315 55.4104 179.158 53.4492 173.589 50.4207C162.939 44.6284 154.433 35.6845 144.928 28.1362C125.179 12.4147 100.687 2.92807 75.5612 0.574642V84.0027H216.699L217.05 83.6332L191.509 55.6293ZM204.366 53.3488L217.999 68.3086V49.4265C213.433 49.992 209.433 51.3375 204.384 53.3306L204.366 53.3488ZM217.999 286.926V219.288H188.95C188.873 219.001 188.795 218.709 188.704 218.417C188.791 218.709 188.864 219.001 188.946 219.288H75.5794V268.204C76.6558 269.002 77.7185 269.841 78.7721 270.694C79.9077 271.606 81.0297 272.569 82.1563 273.513L83.2919 274.452C83.8347 274.908 84.382 275.364 84.9338 275.793C86.0285 276.681 87.1337 277.557 88.2496 278.42C88.8015 278.876 89.3671 279.287 89.9281 279.715C98.8342 286.525 108.229 292.67 118.037 298.1C120.235 299.317 122.454 300.504 124.691 301.663C126.183 302.424 127.683 303.181 129.188 303.916C131.451 305.019 133.731 306.084 136.03 307.108C157.223 316.622 179.633 323.15 202.619 326.506C207.725 327.26 212.849 327.853 217.994 328.285V286.922H218.45L217.999 286.926ZM75.5794 85.9502V152.298H218.017V85.9502H75.5794ZM75.5794 154.245V217.341H218.017V154.245H75.5794ZM229.073 49.3444V70.4066L246.473 51.3147C240.708 50.3843 234.908 49.7199 229.073 49.3216V49.3444ZM229.073 154.268V217.341H367.611V154.245L229.073 154.268ZM367.104 291.934L367.592 219.288H229.073V329.01C237.996 329.385 246.933 329.278 255.845 328.69H256C260.257 328.423 264.494 328.034 268.712 327.523H268.807C291.307 324.904 313.307 319.034 334.12 310.096M394.324 164.635C393.804 163.408 393.261 162.19 392.709 160.986C391.679 158.706 390.589 156.489 389.467 154.272H378.657V217.341H405.986C405.973 199.48 401.453 181.236 394.338 164.612L394.324 164.635ZM351.438 346.61V409.095C359.136 401.715 365.64 393.273 370.324 383.622C375.957 372.001 378.534 359.417 378.744 346.601L351.438 346.61ZM351.438 263.182V279.601H361.234C374.058 258.204 382.237 234.349 385.241 209.585C388.245 184.821 386.006 159.703 378.671 135.86L351.438 263.182ZM257.483 189.022C256.762 188.748 256.041 188.47 255.316 188.201C247.668 185.377 239.852 183.028 231.914 181.168L205.287 210.39L231.996 83.6332L232.338 84.0072H327.105C313.907 74.9221 299.678 67.4341 284.716 61.6998L257.483 189.022ZM302.663 213.272H231.016L229.073 215.051V152.298H246.103H246.13H367.629V121.033C356.638 107.74 343.953 95.9456 329.896 85.9502L302.663 213.272Z" fill="#6C63FF"/>
<path opacity="0.1" d="M0.456486 95.4506V152.298H-34.3479V95.4506H-29.3856V76.2036H-9.01654V95.4506H0.456486Z" fill="#6C63FF"/>
<path opacity="0.1" d="M0.456554 154.245H-34.3433V217.336H0.456554V154.245Z" fill="#6C63FF"/>
<path opacity="0.1" d="M-34.3479 219.293H0.45647V271.743C-3.64904 272.923 -7.83266 273.811 -12.0632 274.402L-13.1031 274.53C-13.614 274.589 -14.1202 274.639 -14.6219 274.689C-15.1236 274.74 -15.6436 274.776 -16.1498 274.808H-16.3095C-16.5284 274.808 -16.7656 274.835 -16.9799 274.84H-17.2125C-17.4862 274.84 -17.7598 274.867 -18.0335 274.876C-18.4212 274.899 -18.8088 274.904 -19.2056 274.908C-19.3744 274.908 -19.534 274.908 -19.7028 274.908C-20.095 274.908 -20.4827 274.908 -20.8749 274.908H-21.737C-21.9696 274.908 -22.1931 274.908 -22.4348 274.908L-23.315 274.876C-23.7711 274.876 -24.2637 274.826 -24.738 274.794L-25.6137 274.73L-26.7038 274.63C-27.47 274.562 -28.2317 274.475 -28.9843 274.37L-29.8964 274.242L-30.3525 274.179C-31.1142 274.06 -31.8668 273.932 -32.633 273.786C-33.194 273.691 -33.7504 273.572 -34.316 273.458L-34.3479 219.293Z" fill="#6C63FF"/>
<path opacity="0.1" d="M218.017 88.7368H189.32V152.293H218.017V88.7368Z" fill="#6C63FF"/>
<path opacity="0.1" d="M218.022 154.245V217.341H75.5796V190.126H151.451V206.18H189.32V154.245H218.022Z" fill="#6C63FF"/>
<path opacity="0.1" d="M218.473 286.94H218.017V328.33C212.878 327.895 207.755 327.304 202.647 326.556C179.649 323.189 157.23 316.647 136.03 307.117C129.909 304.363 123.913 301.356 118.042 298.096C108.234 292.663 98.8378 286.518 89.9282 279.711C87.6903 277.996 85.4813 276.242 83.3012 274.448C81.7916 273.203 80.291 271.926 78.7722 270.685C77.7187 269.832 76.656 268.993 75.5796 268.19V219.293H188.941C188.864 219.001 188.786 218.709 188.704 218.422C188.791 218.709 188.873 219.001 188.95 219.293H218.017V286.913C218.172 286.917 218.323 286.931 218.473 286.94Z" fill="#6C63FF"/>
<path opacity="0.1" d="M292.862 84.0026H274.162V78.1921H282.545V60.8834C283.272 61.148 283.995 61.4201 284.716 61.6998V78.1921H292.862V84.0026Z" fill="#6C63FF"/>
<path opacity="0.1" d="M337.915 152.298H246.112C246.112 152.298 246.112 152.298 246.144 152.32L246.103 152.298H229.073V88.7414H233.898V135.719H255.95V107.897H274.167V85.9547H292.866V107.915H311.083V135.737H337.915V152.298Z" fill="#6C63FF"/>
<path opacity="0.1" d="M229.073 154.245V217.341H337.915V154.245H229.073ZM367.46 291.61L367.611 241.668H337.915V219.32H229.073V329.01C237.996 329.385 246.933 329.278 255.845 328.69H256C260.257 328.423 264.494 328.034 268.712 327.523H268.807C291.307 324.904 313.307 319.034 334.12 310.096" fill="#6C63FF"/>
<path opacity="0.1" d="M218.022 106.406H202.647V126.332H218.022V106.406Z" fill="#6C63FF"/>
<path opacity="0.1" d="M218.022 147.709H202.647V152.298H218.022V147.709Z" fill="#6C63FF"/>
<path opacity="0.1" d="M218.022 154.245H202.647V167.631H218.022V154.245Z" fill="#6C63FF"/>
<path opacity="0.1" d="M218.022 189.013H202.647V208.94H218.022V189.013Z" fill="#6C63FF"/>
<path opacity="0.1" d="M218.022 230.316H202.647V250.243H218.022V230.316Z" fill="#6C63FF"/>
<path opacity="0.1" d="M218.017 286.913C218.172 286.913 218.323 286.913 218.473 286.94H218.017V291.569H202.647V271.62H218.017V286.913Z" fill="#6C63FF"/>
<path opacity="0.1" d="M218.017 312.914V328.307C212.878 327.873 207.755 327.281 202.647 326.533V312.914H218.017Z" fill="#6C63FF"/>
<path opacity="0.1" d="M141.471 215.877H75.5796V217.341H141.471V215.877Z" fill="#6C63FF"/>
<path opacity="0.1" d="M141.471 219.288H75.5796V224.898H141.471V219.288Z" fill="#6C63FF"/>
<path opacity="0.1" d="M141.471 243.288H75.5796V252.309H141.471V243.288Z" fill="#6C63FF"/>
<path opacity="0.1" d="M141.467 270.699V279.72H89.9282C87.6903 278.011 85.4797 276.257 83.2966 274.457C81.7869 273.212 80.2909 271.935 78.7676 270.699H141.467Z" fill="#6C63FF"/>
<path opacity="0.1" d="M141.467 298.105V307.117H136.025C129.911 304.36 123.916 301.351 118.042 298.091L141.467 298.105Z" fill="#6C63FF"/>
<path opacity="0.1" d="M268.821 160.361H255.85V173.333H268.821V160.361Z" fill="#6C63FF"/>
<path opacity="0.1" d="M318.339 160.361H305.368V173.333H318.339V160.361Z" fill="#6C63FF"/>
<path opacity="0.1" d="M268.821 192.356H255.85V205.327H268.821V192.356Z" fill="#6C63FF"/>
<path opacity="0.1" d="M318.339 192.356H305.368V205.327H318.339V192.356Z" fill="#6C63FF"/>
<path opacity="0.1" d="M268.821 224.346H255.85V237.317H268.821V224.346Z" fill="#6C63FF"/>
<path opacity="0.1" d="M318.339 224.346H305.368V237.317H318.339V224.346Z" fill="#6C63FF"/>
<path opacity="0.1" d="M268.821 256.341H255.85V269.312H268.821V256.341Z" fill="#6C63FF"/>
<path opacity="0.1" d="M318.339 256.341H305.368V269.312H318.339V256.341Z" fill="#6C63FF"/>
<path opacity="0.1" d="M268.821 288.336H255.85V301.307H268.821V288.336Z" fill="#6C63FF"/>
<path opacity="0.1" d="M318.339 288.336H305.368V301.307H318.339V288.336Z" fill="#6C63FF"/>
<path opacity="0.1" d="M255.85 328.69V320.326H268.817V327.5L255.85 328.69Z" fill="#6C63FF"/>
<path opacity="0.1" d="M246.112 152.298H246.14H246.112ZM218.017 286.908H218.473H218.017ZM188.704 218.417C188.791 218.709 188.864 219.001 188.946 219.288C188.873 219.001 188.795 218.709 188.704 218.417ZM246.112 152.284H246.14H246.112ZM-29.3672 83.989V85.9365H-8.99356V83.989H-29.3672ZM218.017 286.908H218.473H218.017ZM188.704 218.417C188.791 218.709 188.864 219.001 188.946 219.288C188.873 219.001 188.795 218.709 188.704 218.417ZM246.112 152.284H246.14H246.112ZM218.017 286.894H218.473H218.017ZM188.704 218.417C188.791 218.709 188.864 219.001 188.946 219.288C188.873 219.001 188.795 218.709 188.704 218.417Z" fill="#6C63FF"/>
<path d="M112.532 173.164C112.532 173.164 110.735 172.913 110.735 170.295C110.735 167.677 109.449 162.788 109.449 162.788C109.449 162.765 108.336 154.272 106.799 152.922C105.262 151.572 103.287 143.646 103.287 143.646C103.287 143.646 102.95 139.345 102.261 138.419C101.572 137.493 100.642 135.226 99.269 131.992C97.8961 128.759 92.1722 126.519 92.1722 126.519C92.1722 126.519 81.8234 120.517 78.8908 118.561C78.6242 118.4 78.3751 118.212 78.1474 118C77.6365 117.329 75.4108 117.315 75.4108 117.315C75.1782 115.847 74.9547 114.159 74.8817 112.631C74.8817 112.467 74.8817 112.303 74.8589 112.139C78.1291 110.206 80.5922 107.158 81.7961 103.555C81.8508 103.382 81.8964 103.199 81.9466 103.026C82.1425 102.962 82.3229 102.857 82.476 102.719C82.6291 102.58 82.7518 102.412 82.836 102.223C83.1005 101.635 83.1051 100.946 83.4335 100.399C83.8166 99.7514 84.5463 99.4048 85.121 98.9168C86.5714 97.6854 86.9454 95.6101 86.877 93.7219C86.8313 92.194 86.5851 90.6524 86.6808 89.1337L86.7082 88.7505C86.7356 88.5225 86.7675 88.2945 86.8085 88.0755C87.032 86.9444 87.52 85.8772 87.7937 84.7552C88.0674 83.6332 88.0947 82.3698 87.4562 81.4029C86.5212 79.9845 84.5737 79.7017 82.8633 79.5558C80.925 79.3916 79.1918 79.6059 77.9512 77.9959C77.3706 77.1545 76.7174 76.3655 75.9992 75.638C75.7437 75.4008 73.2626 73.8866 73.2626 73.7862C70.841 72.6647 68.0961 72.4541 65.5318 73.1933C64.2457 73.5673 63.0325 74.1785 61.728 74.484C58.914 75.1499 55.6757 74.4293 53.2858 76.0393C51.954 76.9515 51.1558 78.4019 50.4078 79.8157C49.7997 80.9803 49.1825 82.1433 48.5561 83.3048C47.5481 85.2158 46.5219 87.1588 46.0978 89.275C46.0086 89.7356 45.9537 90.202 45.9336 90.6707V90.6935C45.9336 90.8622 45.9336 91.031 45.9336 91.1997V91.4141C45.9336 91.5737 45.9336 91.7288 45.9609 91.8702C45.9883 92.0116 45.9837 92.0572 45.9974 92.153C46.0111 92.2488 46.0339 92.4631 46.0613 92.6091C46.0886 92.755 46.1434 93.0104 46.1981 93.2111C46.2209 93.2978 46.2528 93.3799 46.2802 93.462C46.3258 93.617 46.3805 93.7675 46.4398 93.918C46.4718 93.9956 46.5037 94.0777 46.5402 94.1552C46.6086 94.3148 46.6907 94.4699 46.7728 94.6113C46.8093 94.6752 46.8366 94.7344 46.8731 94.7937C47.0004 95.0058 47.1405 95.2099 47.2927 95.4049C48.2688 96.6227 49.7055 97.398 50.7682 98.5382C50.7682 98.5838 50.7682 98.6295 50.7682 98.6705C50.7682 98.7982 50.7682 98.9213 50.7682 99.0491C50.8245 101.592 51.5014 104.083 52.7398 106.304C53.9782 108.526 55.7408 110.412 57.8741 111.797C57.8741 111.97 57.8969 112.148 57.906 112.321C57.9949 113.675 57.9781 115.034 57.8558 116.385C57.6701 116.166 57.4376 115.992 57.1755 115.875C56.9134 115.758 56.6284 115.702 56.3416 115.71C56.1456 115.7 55.9492 115.717 55.7578 115.76L55.7167 115.728V115.769C54.7133 116.016 53.4773 117.06 52.296 120.029C52.296 120.029 48.7021 124.079 45.9655 123.911C43.2289 123.742 36.3009 128.125 36.3009 128.125C36.3009 128.125 29.5416 132.512 28.0913 136.982C27.2806 139.517 26.3086 141.997 25.1814 144.407L16.8258 161.625L15.2842 175.285C15.2842 175.285 16.1371 181.36 15.9683 182.285C15.7996 183.211 19.4757 191.562 19.4757 191.562C19.4757 191.562 31.6214 212.903 36.5837 213.997L36.9394 213.747C37.1517 213.857 37.3769 213.942 37.6099 213.997L38.6315 213.277C38.6929 214.08 38.6669 214.887 38.554 215.685C37.8699 217.792 38.8094 231.543 40.0044 234.239C41.1993 236.934 40.7752 272.277 40.7752 272.277L40.6064 275.396C40.6064 275.396 40.6064 275.497 40.6475 275.67L40.6064 276.409L40.7296 276.473C40.8574 277.462 40.8158 278.466 40.6064 279.442C40.1777 280.81 40.0044 284.678 40.0044 284.678C40.0044 284.678 36.5882 306.515 38.2074 310.903C39.8265 315.29 41.2039 320.098 41.2039 320.098C41.2039 320.098 42.9142 325.571 41.286 326.506C39.6577 327.441 35.0284 329.01 35.9816 331.29C36.8482 333.397 40.1366 339.044 40.6247 339.869L40.5836 340.302L39.9132 347.568C40.0217 348.527 40.2819 349.463 40.6839 350.341C41.4183 351.924 42.8458 353.566 45.5596 353.388C46.0157 353.356 46.5447 353.301 47.0556 353.233C52.0224 352.567 58.1386 350.35 58.1386 350.35C57.8211 350.148 57.5299 349.908 57.272 349.634C57.0279 349.398 56.8344 349.114 56.7035 348.8C56.5726 348.487 56.5068 348.15 56.5103 347.81C56.5833 346.487 54.1067 340.184 53.491 338.633C53.3952 338.41 53.3451 338.282 53.3451 338.282C53.3451 338.282 58.9915 332.38 58.0519 327.149C58.0519 327.149 51.8035 323.5 53.8605 321.498C55.9174 319.496 59.5935 313.744 59.5935 313.744C59.5935 313.744 59.7623 292.24 59.5935 289.029C59.4175 286.8 59.5232 284.558 59.9082 282.356C59.9766 282.023 60.0587 281.699 60.1454 281.38C62.9901 281.805 65.8619 282.023 68.7382 282.032C69.7872 282.032 70.8544 282.032 71.9308 281.969C71.9308 282.273 71.9445 282.601 71.9719 282.954C72.209 288.281 72.6514 297.622 73.0118 301.092C73.5226 306.068 76.3458 319.477 76.3458 319.477C76.3458 319.477 70.9593 322.935 77.2853 331.454C77.2853 331.454 77.2853 334.542 76.8657 334.989C76.4178 336.45 76.0568 337.937 75.7848 339.44C75.5203 341.046 75.4108 342.67 75.8395 343.513C76.8657 345.529 83.023 345.365 83.023 345.365L83.1735 345.338C84.3359 345.218 85.5106 345.329 86.6294 345.667C87.7483 346.004 88.7889 346.561 89.691 347.303C92.0308 349.183 100.911 348.357 105.718 347.76C107.602 347.522 108.861 347.303 108.861 347.303C108.922 347.09 108.943 346.868 108.924 346.647C108.874 345.465 107.948 342.875 101.673 340.562C101.673 340.562 95.7707 336.594 95.8528 333.137H95.7297H95.0456C95.5427 333.11 95.862 333.137 95.862 333.137C95.862 333.137 93.5496 324.7 94.4937 324.016C95.4378 323.331 92.61 313.982 92.61 313.982C92.61 313.982 90.9909 298.292 90.9043 297.193C90.9079 296.25 91.0508 295.312 91.3284 294.411L90.9043 285.809C90.9043 285.809 90.8222 282.949 90.9043 282.019C90.8904 281.211 90.8249 280.405 90.7081 279.606C90.6671 279.287 90.626 278.954 90.5804 278.625C92.7925 278.064 94.2291 277.544 94.2291 277.544L93.9737 247.602C95.8528 243.953 96.1995 235.949 96.1904 230.271C96.1904 226.622 96.0262 223.922 96.0262 223.922L98.594 219.73C98.594 219.73 99.1869 214.714 98.2473 213.614C97.8323 213.117 98.0193 212.602 98.3613 212.178C98.539 212.037 98.7265 211.909 98.9223 211.795C98.9223 211.795 98.895 211.753 98.8631 211.694C99.0423 211.544 99.2329 211.409 99.4332 211.288C99.4332 211.288 98.521 209.874 99.3374 209.277C100.104 209.797 100.788 210.189 101.308 210.508C101.271 210.841 101.235 211.033 101.235 211.033L101.454 210.577C101.955 210.86 102.261 211.033 102.261 211.033C102.261 211.033 106.284 203.019 106.197 201.838C106.11 200.657 108.934 195.681 108.934 195.681C108.934 195.681 109.276 193.067 110.817 191.973C112.359 190.878 112.012 182.947 112.012 182.947C112.012 182.947 112.441 178.815 113.467 177.127C114.493 175.44 112.532 173.164 112.532 173.164ZM35.562 169.647L35.6396 171.558C35.1835 170.824 34.8551 170.295 34.8551 170.295L35.562 169.647Z" fill="url(#paint0_linear_13_28)"/>
<path d="M102.48 207.571L101.495 211.767C101.495 211.767 93.6042 207.74 92.1812 202.623C90.7582 197.505 94.562 195.562 94.562 195.562L101.914 198.677L102.48 207.571Z" fill="white"/>
<path opacity="0.1" d="M102.48 207.571L101.495 211.767C101.495 211.767 93.6042 207.74 92.1812 202.623C90.7582 197.505 94.562 195.562 94.562 195.562L101.914 198.677L102.48 207.571Z" fill="black"/>
<path d="M58.1979 350.378C58.1979 350.378 50.9004 353.059 45.8834 353.397C43.2198 353.575 41.8196 351.942 41.099 350.368C40.7053 349.494 40.4514 348.563 40.3464 347.609L40.9986 340.38L41.3453 336.531L52.0041 333.762L53.5138 338.378L53.6552 338.729C54.2618 340.271 56.6928 346.542 56.6198 347.851C56.6168 348.186 56.6815 348.518 56.8101 348.828C56.9386 349.137 57.1283 349.418 57.3678 349.652C57.6125 349.928 57.8915 350.172 58.1979 350.378Z" fill="white"/>
<path d="M108.044 346.701C108.062 346.921 108.041 347.142 107.98 347.354C107.98 347.354 92.3728 349.958 89.1802 347.354C88.28 346.593 87.2308 346.029 86.0997 345.697C84.9687 345.366 83.7808 345.274 82.6124 345.429C82.6124 345.429 76.5738 345.593 75.5658 343.605C75.1462 342.77 75.2557 341.151 75.5156 339.555C75.7809 338.059 76.1342 336.58 76.5738 335.126L76.8155 334.934L78.2522 333.78L95.0729 333.283H95.2006C95.1185 336.722 100.911 340.667 100.911 340.667C107.064 342.948 107.971 345.525 108.044 346.701Z" fill="white"/>
<path opacity="0.1" d="M108.044 346.701C108.06 346.921 108.037 347.142 107.976 347.354C107.976 347.354 92.3728 349.958 89.1802 347.354C88.2806 346.593 87.2321 346.03 86.1019 345.698C84.9717 345.367 83.7847 345.275 82.617 345.429C82.617 345.429 76.5738 345.593 75.5704 343.605C75.1508 342.765 75.2557 341.151 75.5157 339.555C77.8417 339.787 81.5133 340.366 82.9545 341.748C85.1346 343.851 88.829 345.949 91.0958 346.113C92.87 346.227 103.483 346.565 108.044 346.701Z" fill="black"/>
<path opacity="0.1" d="M58.1978 350.378C58.1978 350.378 50.9004 353.059 45.8834 353.397C43.2198 353.575 41.8196 351.942 41.1035 350.364C42.9598 350.989 45.5367 351.645 46.8913 351.043C48.4968 350.332 54.1888 349.871 57.3814 349.675C57.6244 349.941 57.8985 350.177 58.1978 350.378Z" fill="black"/>
<path d="M69.0254 134.259C63.005 131.919 55.2606 124.189 57.1944 120.577C57.6239 119.665 57.8791 118.681 57.947 117.676C58.0714 116.311 58.0897 114.939 58.0017 113.571C57.8661 111.331 57.5965 109.101 57.1944 106.894C57.1944 106.894 75.99 107.318 74.8953 110.086C74.5761 110.898 74.5259 112.308 74.6126 113.886C74.6992 115.464 74.9273 117.247 75.1644 118.757C75.4928 120.827 75.8212 122.405 75.8212 122.405C75.8212 122.405 74.6718 124.015 73.9968 124.102C73.3218 124.189 77.6638 137.593 69.0254 134.259Z" fill="#CF6F80"/>
<path opacity="0.1" d="M53.6414 338.729L53.5 338.884C47.881 332.088 41.0852 340.558 41.0852 340.558L40.9849 340.38L41.3315 336.531L51.9904 333.762L53.5 338.378L53.6414 338.729Z" fill="black"/>
<path opacity="0.1" d="M95.2052 333.762C95.2052 333.762 91.1003 333.676 88.9111 335.609C86.7218 337.543 76.1405 336.029 76.5966 335.609C76.7317 335.401 76.8132 335.163 76.8338 334.916L78.2705 333.762L95.0911 333.265C95.155 333.571 95.2052 333.762 95.2052 333.762Z" fill="black"/>
<path d="M60.6333 280.395C60.3276 281.151 60.0954 281.934 59.94 282.735C59.5597 284.927 59.454 287.157 59.6253 289.375C59.7941 292.568 59.6253 313.963 59.6253 313.963C59.6253 313.963 56.0176 319.669 54.0063 321.68C51.9949 323.692 58.1111 327.304 58.1111 327.304C59.0233 332.503 53.4954 338.378 53.4954 338.378C47.8764 331.582 41.0806 340.056 41.0806 340.056C41.0806 340.056 37.3863 333.671 36.465 331.39C35.5437 329.11 40.0727 327.532 41.6644 326.606C43.2562 325.68 41.5869 320.221 41.5869 320.221C41.5869 320.221 40.2414 315.436 38.6451 311.072C37.0488 306.707 40.4056 284.979 40.4056 284.979C40.4056 284.979 40.5789 281.12 40.994 279.775C41.2034 278.804 41.245 277.804 41.1171 276.819C41.0897 276.486 41.0578 276.208 41.035 276.021C41.0122 275.834 40.994 275.747 40.994 275.747L41.0578 275.638L43.3383 271.387C43.3383 271.387 61.7279 277.718 60.6333 280.395Z" fill="#6C63FF"/>
<path d="M95.2052 333.261C95.2052 333.261 91.1004 333.174 88.9111 335.085C86.7219 336.996 76.1405 335.504 76.5966 335.085C77.0527 334.665 77.0162 331.559 77.0162 331.559C70.8088 323.085 76.1041 319.646 76.1041 319.646C76.1041 319.646 73.331 306.306 72.8293 301.357C72.4781 297.9 72.0448 288.609 71.8122 283.305C71.7119 281.025 71.6526 279.456 71.6526 279.456L76.7243 278.434L77.3766 278.302L89.6089 275.848C89.6089 275.848 89.9464 278.128 90.1745 279.994C90.2882 280.79 90.3522 281.593 90.366 282.397C90.2839 283.31 90.366 286.165 90.366 286.165L90.7811 294.725C90.5099 295.623 90.3701 296.556 90.366 297.494C90.4481 298.584 92.0399 314.191 92.0399 314.191C92.0399 314.191 94.8084 323.505 93.8643 324.175C92.9202 324.846 95.2052 333.261 95.2052 333.261Z" fill="#6C63FF"/>
<path opacity="0.1" d="M74.8953 110.086C74.576 110.898 74.5258 112.308 74.6125 113.886C72.0949 115.402 69.2007 116.177 66.2624 116.122C63.3241 116.067 60.4609 115.184 58.0016 113.576C57.8662 111.334 57.5966 109.103 57.1943 106.894C57.1943 106.894 75.9899 107.309 74.8953 110.086Z" fill="black"/>
<path d="M82.161 100.007C82.1646 101.65 81.906 103.284 81.3948 104.846C80.2521 108.346 77.9089 111.329 74.7794 113.268C71.6499 115.208 67.9356 115.978 64.2928 115.444C60.6501 114.91 57.3136 113.105 54.8729 110.348C52.4322 107.592 51.0445 104.061 50.9552 100.381C50.9552 100.253 50.9552 100.135 50.9552 100.007C50.9197 97.9351 51.2972 95.8771 52.0655 93.9528C52.8339 92.0284 53.9777 90.2763 55.4303 88.7987C56.8829 87.3211 58.6151 86.1475 60.5261 85.3464C62.437 84.5453 64.4883 84.1327 66.5604 84.1327C68.6324 84.1327 70.6837 84.5453 72.5946 85.3464C74.5056 86.1475 76.2378 87.3211 77.6904 88.7987C79.143 90.2763 80.2868 92.0284 81.0552 93.9528C81.8235 95.8771 82.201 97.9351 82.1655 100.007H82.161Z" fill="#CF6F80"/>
<path opacity="0.1" d="M69.0254 134.259C63.005 131.919 55.2606 124.189 57.1944 120.577C57.6239 119.665 57.8791 118.681 57.947 117.676L66.1885 124.449L71.2876 128.631L75.1644 118.761C75.4928 120.832 75.8212 122.41 75.8212 122.41C75.8212 122.41 74.6718 124.02 73.9968 124.107C73.3218 124.193 77.6638 137.593 69.0254 134.259Z" fill="black"/>
<path d="M90.3386 164.192L83.4561 279.811L74.4803 280.4L51.2378 213.359L55.0507 133.767L55.8534 116.951L66.1885 125.439L71.2922 129.621L75.283 119.464L82.7036 125.931L90.3386 164.192Z" fill="#6C63FF"/>
<path opacity="0.1" d="M60.6333 280.395C60.3276 281.151 60.0954 281.934 59.94 282.735C53.4087 281.726 47.0655 279.745 41.1217 276.856L40.9985 276.792L41.0396 276.058L41.0624 275.675L43.3429 271.424C43.3429 271.424 61.7279 277.718 60.6333 280.395Z" fill="black"/>
<path opacity="0.1" d="M76.8293 282.753C75.1596 283.037 73.4756 283.229 71.7849 283.328C71.6845 281.047 71.6252 279.478 71.6252 279.478L76.697 278.457L76.8293 282.753Z" fill="black"/>
<path opacity="0.1" d="M90.1471 280.017C86.9042 280.86 81.8964 281.809 77.413 281.216L77.3491 278.324L89.5815 275.871C89.5815 275.871 89.919 278.128 90.1471 280.017Z" fill="black"/>
<path opacity="0.1" d="M77.331 281.745C58.6312 284.938 41.5049 275.784 41.5049 275.784L41.6691 272.683C41.6691 272.683 42.0933 237.523 40.9166 234.827C39.7399 232.132 38.8231 218.463 39.489 216.365C40.1549 214.267 37.0581 182.806 37.0581 182.806L36.5564 170.035L18.1941 162.596L26.4037 145.484C27.5126 143.084 28.4663 140.616 29.2589 138.095C30.6865 133.653 37.3135 129.288 37.3135 129.288C37.3135 129.288 44.1092 124.928 46.7956 125.092C49.482 125.256 53.003 121.233 53.003 121.233C55.6028 114.606 57.9562 117.607 57.9562 117.607C57.9562 117.922 57.9562 117.607 57.8285 118.588C56.9163 125.863 72.5785 148.85 72.802 149.256L74.2934 185.588L75.8031 231.566L77.331 281.745Z" fill="black"/>
<path d="M76.8293 281.745C58.1295 284.938 40.9987 275.784 40.9987 275.784L41.1674 272.683C41.1674 272.683 41.5916 237.523 40.4103 234.827C39.2291 232.132 38.3169 218.463 38.9873 216.365C39.6578 214.267 36.5564 182.806 36.5564 182.806L36.0501 170.035L17.6787 162.569L25.8884 145.456C26.9948 143.056 27.9484 140.588 28.7435 138.068C30.1665 133.625 36.7981 129.261 36.7981 129.261C36.7981 129.261 43.5939 124.9 46.2757 125.065C48.9575 125.229 52.4831 121.206 52.4831 121.206C55.0874 114.579 57.9562 117.58 57.9562 117.58C57.9562 117.895 57.6825 118.036 57.8285 118.561C59.8353 125.616 72.0768 148.822 72.3003 149.228L73.81 185.56L75.3196 231.539L76.8293 281.745Z" fill="white"/>
<path opacity="0.1" d="M71.7893 150.263C69.778 149.424 59.1237 137.26 59.1237 137.26V134.492C58.736 133.58 56.4327 134.136 54.5627 134.775L55.3655 117.959L56.2777 118.716C58.2753 125.767 71.5567 149.858 71.7893 150.263Z" fill="black"/>
<path d="M72.2956 149.256C70.2797 148.416 59.6254 136.252 59.6254 136.252V133.484C59.2377 132.572 56.9344 133.128 55.0645 133.767L55.8717 116.951L56.7839 117.708C58.7862 124.759 72.0721 148.854 72.2956 149.256Z" fill="white"/>
<path opacity="0.1" d="M41.505 209.92C41.7558 209.92 54.5082 208.579 54.5082 208.579C54.5082 208.579 62.2298 223.762 61.7235 227.457C61.2173 231.151 60.3005 234.421 57.1945 233.842C54.0886 233.263 40.4788 234.298 40.4788 234.298L41.505 209.92Z" fill="black"/>
<path d="M40.9986 208.912C41.2495 208.912 54.0018 207.571 54.0018 207.571C54.0018 207.571 61.7189 222.759 61.2172 226.449C60.7155 230.139 59.7896 233.413 56.6882 232.834C53.5868 232.255 39.9724 233.29 39.9724 233.29L40.9986 208.912Z" fill="white"/>
<path d="M50.6084 201.783C50.6084 201.783 62.3117 208.073 62.5626 209.993C62.8134 211.913 56.606 209.154 55.2651 208.821C54.3825 208.608 53.4841 208.468 52.5787 208.401L43.6348 208.643L50.6084 201.783Z" fill="#CF6F80"/>
<path opacity="0.1" d="M68.5237 151.048C69.2038 151.048 69.7551 150.497 69.7551 149.817C69.7551 149.136 69.2038 148.585 68.5237 148.585C67.8436 148.585 67.2922 149.136 67.2922 149.817C67.2922 150.497 67.8436 151.048 68.5237 151.048Z" fill="black"/>
<path d="M68.5237 150.546C69.2038 150.546 69.7551 149.995 69.7551 149.315C69.7551 148.635 69.2038 148.083 68.5237 148.083C67.8436 148.083 67.2922 148.635 67.2922 149.315C67.2922 149.995 67.8436 150.546 68.5237 150.546Z" fill="#3F3D56"/>
<path opacity="0.1" d="M70.7905 204.356C71.4706 204.356 72.022 203.804 72.022 203.124C72.022 202.444 71.4706 201.893 70.7905 201.893C70.1104 201.893 69.5591 202.444 69.5591 203.124C69.5591 203.804 70.1104 204.356 70.7905 204.356Z" fill="black"/>
<path d="M70.7905 203.849C71.4706 203.849 72.022 203.298 72.022 202.618C72.022 201.938 71.4706 201.387 70.7905 201.387C70.1104 201.387 69.5591 201.938 69.5591 202.618C69.5591 203.298 70.1104 203.849 70.7905 203.849Z" fill="#3F3D56"/>
<path opacity="0.1" d="M69.7507 177.702C70.4308 177.702 70.9822 177.15 70.9822 176.47C70.9822 175.79 70.4308 175.239 69.7507 175.239C69.0706 175.239 68.5193 175.79 68.5193 176.47C68.5193 177.15 69.0706 177.702 69.7507 177.702Z" fill="black"/>
<path d="M69.7507 177.2C70.4308 177.2 70.9822 176.649 70.9822 175.969C70.9822 175.289 70.4308 174.737 69.7507 174.737C69.0706 174.737 68.5193 175.289 68.5193 175.969C68.5193 176.649 69.0706 177.2 69.7507 177.2Z" fill="#3F3D56"/>
<path d="M98.1378 208.146C98.1378 208.146 98.977 209.405 98.1378 209.993C97.2986 210.581 98.2199 212.004 98.2199 212.004C98.2199 212.004 96.1265 213.231 97.0478 214.335C97.9691 215.439 97.3853 220.424 97.3853 220.424L94.8676 224.592C94.8676 224.592 95.0182 227.279 95.0273 230.909C95.0273 236.574 94.6943 244.537 92.8517 248.168L93.1071 277.955C93.1071 277.955 84.2909 281.175 76.9113 280.194L75.8167 232.396C75.8167 232.396 77.413 205.291 78.0014 200.091C78.3457 197.392 78.4859 194.67 78.421 191.95C78.421 191.95 78.1701 183.813 77.3263 180.037C77.3263 180.037 76.4142 163.677 76.323 159.148C76.2819 156.982 76.3959 150.66 76.5236 144.649C76.665 138.077 76.8246 131.878 76.8246 131.878L75.1599 118.707C75.1599 118.707 76.8246 118.538 77.3263 119.208C77.5511 119.418 77.7954 119.606 78.0561 119.769C80.9295 121.712 91.0821 127.687 91.0821 127.687C91.0821 127.687 96.7011 129.922 98.0466 133.124C99.3921 136.325 100.327 138.597 100.979 139.509C101.631 140.421 101.987 144.708 101.987 144.708C101.987 144.708 103.921 152.599 105.431 153.935C106.94 155.271 108.044 163.773 108.044 163.773L94.7035 174.263C94.7035 174.263 93.5313 191.713 93.2805 192.388C93.0296 193.063 98.1378 208.146 98.1378 208.146Z" fill="white"/>
<path d="M98.644 208.146C98.644 208.146 99.4787 209.405 98.644 209.993C97.8094 210.581 98.7216 212.004 98.7216 212.004C98.7216 212.004 96.6418 213.245 97.554 214.349C98.4662 215.452 97.8915 220.437 97.8915 220.437L95.3739 224.606C95.3739 224.606 95.5244 227.292 95.538 230.923C95.538 236.588 95.2051 244.551 93.3625 248.181L93.6133 277.969C93.6133 277.969 84.7834 281.189 77.413 280.208L76.3229 232.41C76.3229 232.41 77.9192 205.304 78.5076 200.105C78.8523 197.406 78.991 194.684 78.9226 191.964C78.9226 191.964 78.6718 183.827 77.8326 180.051C77.8326 180.051 76.9204 163.691 76.8246 159.162C76.7835 156.995 76.9021 150.674 77.0253 144.663C77.1667 138.09 77.3263 131.892 77.3263 131.892L75.1279 118.542C75.1279 118.542 77.3263 118.542 77.8326 119.222C78.0552 119.434 78.2998 119.622 78.5623 119.783C81.4357 121.726 91.5929 127.701 91.5929 127.701C91.5929 127.701 97.2074 129.935 98.5528 133.137C99.8983 136.339 100.833 138.61 101.49 139.523C102.147 140.435 102.493 144.722 102.493 144.722C102.493 144.722 104.427 152.612 105.937 153.949C107.447 155.285 108.537 163.768 108.537 163.768L95.196 174.258C95.196 174.258 94.0238 191.708 93.7684 192.383C93.513 193.058 98.644 208.146 98.644 208.146Z" fill="white"/>
<path opacity="0.1" d="M82.6672 135.764L83.8713 139.276L77.5316 145.662C77.673 139.094 77.8326 132.891 77.8326 132.891L75.6343 119.541C75.6343 119.541 77.8326 119.541 78.3389 120.221C78.5609 120.433 78.8056 120.619 79.0687 120.777L84.4597 136.33L82.6672 135.764Z" fill="black"/>
<path d="M82.1609 134.756L83.3695 138.268L77.0298 144.654C77.1712 138.081 77.3309 131.883 77.3309 131.883L75.1279 118.533C75.1279 118.533 77.3309 118.533 77.8326 119.213C78.0563 119.424 78.3008 119.612 78.5623 119.774L83.9579 135.322L82.1609 134.756Z" fill="white"/>
<path opacity="0.1" d="M82.161 100.007C82.1646 101.65 81.906 103.284 81.3948 104.846C81.3086 104.859 81.2206 104.855 81.136 104.834C81.0514 104.813 80.9719 104.775 80.9022 104.723C80.7836 100.618 78.7631 96.7641 76.2774 93.4848C75.5795 92.4947 74.7335 91.6179 73.7689 90.8851C72.7937 90.1527 71.5808 89.8096 70.3665 89.9227C68.9982 90.1097 67.7895 91.0402 66.4076 91.1587C64.5832 91.3092 62.9504 90.0459 61.1397 89.982C60.4036 89.989 59.6775 90.1529 59.0097 90.4628C58.342 90.7727 57.748 91.2214 57.2675 91.779C56.3162 92.9043 55.6095 94.2152 55.1923 95.6284C54.4751 97.7713 54.0846 100.01 54.0338 102.269C54.011 103.546 53.8878 105.147 52.702 105.612C52.7913 104.673 52.6845 103.726 52.3885 102.83C52.0926 101.934 51.6138 101.109 50.9825 100.408L50.9552 100.381C50.9552 100.253 50.9552 100.135 50.9552 100.007C50.9197 97.9351 51.2972 95.8771 52.0655 93.9528C52.8339 92.0284 53.9777 90.2763 55.4303 88.7987C56.8829 87.3211 58.6151 86.1475 60.5261 85.3464C62.437 84.5453 64.4883 84.1327 66.5604 84.1327C68.6324 84.1327 70.6837 84.5453 72.5946 85.3464C74.5056 86.1475 76.2378 87.3211 77.6904 88.7987C79.143 90.2763 80.2868 92.0284 81.0552 93.9528C81.8235 95.8771 82.201 97.9351 82.1655 100.007H82.161Z" fill="black"/>
<path d="M73.0208 75.2275C70.6507 74.1126 67.9551 73.9018 65.4405 74.6346C64.1772 75.0086 62.9868 75.6152 61.7051 75.9208C58.9686 76.5821 55.776 75.866 53.4271 77.4669C52.1227 78.3791 51.3382 79.8203 50.6084 81.2205L48.7841 84.6959C47.7898 86.5978 46.7864 88.5316 46.3713 90.6251C45.9563 92.7185 46.2071 95.0629 47.5344 96.7458C48.5013 97.9727 49.9289 98.7435 50.9779 99.8974C51.6063 100.599 52.083 101.423 52.3781 102.318C52.6732 103.213 52.7803 104.159 52.6928 105.097C53.8832 104.641 53.9972 103.035 54.0246 101.758C54.0754 99.4991 54.4659 97.2605 55.183 95.1176C55.5993 93.704 56.3061 92.3929 57.2583 91.2682C57.7392 90.711 58.3332 90.2626 59.0009 89.9528C59.6685 89.6429 60.3945 89.4788 61.1305 89.4712C62.9548 89.535 64.5922 90.7938 66.3983 90.6433C67.7666 90.5293 68.9798 89.5943 70.3572 89.4119C71.5717 89.297 72.7853 89.6402 73.7597 90.3742C74.7239 91.1059 75.5686 91.9829 76.2636 92.974C78.7539 96.2533 80.7744 100.098 80.8929 104.212C81.4083 104.591 82.1518 104.098 82.4072 103.514C82.6626 102.93 82.6717 102.246 82.9955 101.69C83.3695 101.047 84.0856 100.705 84.6466 100.221C86.0696 98.9944 86.4253 96.9283 86.3706 95.0537C86.3159 93.1792 85.951 91.2773 86.3068 89.4347C86.5211 88.3036 87.0046 87.2455 87.2691 86.128C87.5336 85.0106 87.5656 83.7564 86.9407 82.794C86.0285 81.3802 84.1084 81.1019 82.4345 80.9697C80.5326 80.8055 78.8314 81.0153 77.6182 79.4144C77.0487 78.579 76.4078 77.7946 75.7026 77.0701C75.4609 76.8329 73.0208 75.3278 73.0208 75.2275Z" fill="#512E4E"/>
<path opacity="0.1" d="M23.4482 171.408L18.682 162.596L17.1724 176.192C17.1724 176.192 18.0116 182.231 17.8428 183.157C17.6741 184.083 21.2817 192.383 21.2817 192.383C21.2817 192.383 33.1994 213.61 38.0659 214.704L54.508 202.956L50.1478 197.419C50.1478 197.419 48.6382 196.83 48.2596 197.419C48.2596 197.419 40.164 183.49 39.3247 182.482C38.4855 181.474 38.6497 179.462 38.6497 179.462C38.6497 179.462 37.3909 178.121 37.8105 176.863C38.2301 175.604 35.3795 171.239 35.3795 171.239L37.9793 168.808L23.4482 171.408Z" fill="black"/>
<path d="M18.9328 161.593L17.674 162.596L16.1643 176.192C16.1643 176.192 17.0035 182.231 16.8348 183.157C16.666 184.083 20.2783 192.383 20.2783 192.383C20.2783 192.383 32.1914 213.61 37.0579 214.704L53.5046 202.956L49.1398 197.419C49.1398 197.419 47.6301 196.83 47.2515 197.419C47.2515 197.419 39.1559 183.49 38.3167 182.482C37.4775 181.474 37.6462 179.462 37.6462 179.462C37.6462 179.462 36.3874 178.121 36.807 176.863C37.2266 175.604 34.3715 171.239 34.3715 171.239L36.9712 168.808L18.9328 161.593Z" fill="white"/>
<path opacity="0.1" d="M97.0478 214.855C97.9599 215.963 97.3853 220.939 97.3853 220.939L94.8676 225.108C94.8676 225.108 95.0181 227.799 95.0273 231.425L90.7947 232.747C90.4122 232.867 90.0067 232.893 89.612 232.824C89.2172 232.755 88.8448 232.592 88.5256 232.35C88.2065 232.108 87.95 231.792 87.7774 231.431C87.6048 231.069 87.5213 230.671 87.5337 230.271L88.2634 206.732L98.1378 210.508C97.2986 211.092 98.2199 212.524 98.2199 212.524C98.2199 212.524 96.1265 213.747 97.0478 214.855Z" fill="black"/>
<path d="M97.5539 214.349C98.4661 215.457 97.8914 220.437 97.8914 220.437L95.3738 224.606C95.3738 224.606 95.5243 227.292 95.538 230.923L91.228 232.268C90.8533 232.385 90.4563 232.41 90.07 232.342C89.6836 232.274 89.3191 232.115 89.0068 231.877C88.6945 231.64 88.4434 231.331 88.2744 230.977C88.1054 230.623 88.0234 230.234 88.0353 229.842L88.7696 206.23L98.6486 210.007C97.8048 210.59 98.7261 212.018 98.7261 212.018C98.7261 212.018 96.6418 213.245 97.5539 214.349Z" fill="white"/>
<path d="M100.824 203.129C100.824 203.129 100.154 207.412 98.4754 207.662C96.797 207.913 96.0445 214.59 94.3706 214.353C92.6967 214.116 93.8051 208.146 93.8644 206.987C93.9236 205.829 92.04 201.031 93.4493 199.941C94.8586 198.851 99.3192 199.941 99.3192 199.941L100.824 203.129Z" fill="#CF6F80"/>
<path opacity="0.1" d="M104.395 170.149L107.561 163.764C107.561 163.764 108.819 168.63 108.819 171.23C108.819 173.83 110.58 174.085 110.58 174.085C110.58 174.085 112.509 176.365 111.492 178.026C110.475 179.686 110.065 183.818 110.065 183.818C110.065 183.818 110.398 191.704 108.888 192.794C107.378 193.884 107.064 196.488 107.064 196.488C107.064 196.488 104.29 201.437 104.377 202.613C104.464 203.79 100.519 211.758 100.519 211.758C100.519 211.758 102.448 201.856 91.2052 197.578C91.2052 197.578 91.1185 194.217 91.9577 193.296C92.7969 192.374 94.1059 191.955 93.285 187.298C92.464 182.641 93.0478 177.077 93.0478 175.96C93.0478 174.842 95.5654 167.873 95.5654 167.873L104.395 170.149Z" fill="black"/>
<path d="M105.764 162.852L108.528 163.764C108.528 163.764 109.791 168.63 109.791 171.23C109.791 173.83 111.551 174.085 111.551 174.085C111.551 174.085 113.481 176.366 112.464 178.026C111.447 179.686 111.041 183.818 111.041 183.818C111.041 183.818 111.374 191.704 109.864 192.794C108.354 193.884 108.017 196.488 108.017 196.488C108.017 196.488 105.248 201.437 105.335 202.614C105.422 203.79 101.472 211.758 101.472 211.758C101.472 211.758 103.406 201.856 92.1584 197.578C92.1584 197.578 92.0763 194.217 92.9155 193.296C93.7548 192.374 95.0637 191.955 94.2428 187.298C93.4218 182.641 94.0056 177.077 94.0056 175.96C94.0056 174.842 96.5232 167.873 96.5232 167.873L105.764 162.852Z" fill="white"/>
<path opacity="0.1" d="M44.7158 328.353C44.7158 328.353 49.1217 325.585 52.0133 327.596C54.9049 329.607 44.7158 328.353 44.7158 328.353Z" fill="black"/>
<path opacity="0.1" d="M78.95 319.792C78.95 319.792 82.8495 319.291 86.1243 322.816C89.399 326.342 78.95 319.792 78.95 319.792Z" fill="black"/>
<g opacity="0.1">
<path d="M84.6556 99.2225C84.0946 99.7059 83.374 100.053 83 100.696C82.6807 101.248 82.6716 101.927 82.4162 102.52C82.1608 103.113 81.4174 103.596 80.902 103.222C80.7834 99.1176 78.7584 95.2636 76.2727 91.9797C75.5777 90.9887 74.733 90.1117 73.7687 89.38C72.7925 88.6461 71.5776 88.303 70.3617 88.4177C68.9934 88.6047 67.7893 89.5351 66.4074 89.6491C64.583 89.8042 62.9456 88.5408 61.135 88.477C60.3991 88.4843 59.6734 88.6488 59.0063 88.9595C58.3393 89.2703 57.7464 89.72 57.2673 90.2785C56.3152 91.4015 55.6083 92.7111 55.1921 94.1234C54.4754 96.2664 54.0848 98.5049 54.0336 100.764C54.0062 102.037 53.8877 103.624 52.7109 104.098C52.7383 104.435 52.7383 104.774 52.7109 105.111C53.8968 104.654 54.0154 103.049 54.0427 101.772C54.0936 99.5129 54.4841 97.2742 55.2012 95.1313C55.6175 93.7177 56.3243 92.4066 57.2764 91.2819C57.7565 90.7249 58.3497 90.2765 59.0166 89.9666C59.6835 89.6568 60.4088 89.4926 61.1441 89.4849C62.9685 89.5488 64.6104 90.8076 66.4165 90.6571C67.7848 90.5431 68.998 89.6081 70.3708 89.4256C71.5867 89.3109 72.8017 89.6541 73.7778 90.388C74.7421 91.1197 75.5868 91.9967 76.2818 92.9877C78.7675 96.267 80.7925 100.112 80.9111 104.226C81.4265 104.604 82.1699 104.112 82.4253 103.528C82.6807 102.944 82.6899 102.26 83.0091 101.704C83.3831 101.061 84.1038 100.718 84.6647 100.235C86.0878 99.0081 86.4435 96.942 86.3888 95.0675C86.3888 95.0082 86.3888 94.9489 86.3888 94.8942C86.3021 96.5179 85.8688 98.1735 84.6556 99.2225Z" fill="black"/>
<path d="M50.9869 98.8986C49.9379 97.7447 48.5058 96.9739 47.5434 95.7516C46.7331 94.6696 46.2703 93.367 46.2162 92.0162C46.0727 93.7042 46.544 95.3872 47.5434 96.755C48.5058 97.9819 49.9379 98.7527 50.9869 99.9066C51.9941 101.035 52.5988 102.466 52.7064 103.975C52.7762 103.057 52.6599 102.134 52.3644 101.261C52.069 100.389 51.6004 99.5855 50.9869 98.8986Z" fill="black"/>
<path d="M87.2782 85.1293C87.0092 86.2467 86.5303 87.3094 86.3113 88.4359C86.1817 89.1887 86.1343 89.9533 86.1699 90.7164C86.1852 90.2817 86.2325 89.8488 86.3113 89.4211C86.5303 88.29 87.0092 87.2318 87.2782 86.1144C87.4351 85.4981 87.486 84.8596 87.4288 84.2262C87.4004 84.5304 87.3501 84.8323 87.2782 85.1293Z" fill="black"/>
</g>
<path opacity="0.1" d="M-37.4629 346.898C-12.9185 346.898 6.97868 343.702 6.97868 339.76C6.97868 335.818 -12.9185 332.622 -37.4629 332.622C-62.0074 332.622 -81.9045 335.818 -81.9045 339.76C-81.9045 343.702 -62.0074 346.898 -37.4629 346.898Z" fill="#6C63FF"/>
<path d="M-24.291 219.174C-34.7036 230.617 -36.9065 245.573 -36.9065 245.573C-36.9065 245.573 -22.2249 241.97 -11.8214 230.522C-1.41797 219.074 0.794079 204.123 0.794079 204.123C0.794079 204.123 -13.8784 207.731 -24.291 219.174Z" fill="#6C63FF"/>
<path d="M0.803189 204.128C0.803189 204.128 -12.761 215.858 -16.209 223.94C-19.6571 232.022 -36.9065 245.573 -36.9065 245.573" stroke="#535461" stroke-width="0.700105" stroke-miterlimit="10"/>
<path d="M357.942 215.147C357.942 215.147 350.411 177.684 353.294 173.022C353.294 173.022 353.399 168.69 353.225 163.166C353.225 162.956 353.225 162.747 353.225 162.532C353.733 162.87 354.261 163.175 354.808 163.445C357.464 164.809 360.513 165.203 363.428 164.557L361.148 162.017C360.6 161.41 360.03 160.754 359.912 159.951C359.793 159.148 360.122 158.432 360.404 157.716C362.571 152.243 362.685 145.361 358.512 141.183C354.986 137.671 354.129 133.137 350.302 129.931C347.506 127.582 345.969 124.139 344.519 120.809C343.292 117.995 342.056 115.158 341.353 112.175C340.806 109.845 340.587 107.432 339.835 105.156C339.082 102.88 337.673 100.668 335.47 99.6512C334.685 99.2909 333.814 99.0856 333.098 98.6067C332.159 97.9728 331.593 96.942 330.913 96.039C327.461 91.4781 315.899 94.1644 310.426 96.0161C308.938 96.4825 307.56 97.2459 306.376 98.2601L306.426 98.178C306.467 98.1096 306.517 98.0412 306.563 97.9728C305.964 98.4572 305.446 99.0347 305.03 99.6831C304.232 100.946 303.899 102.42 303.233 103.788C302.431 105.407 297.965 109.927 299.886 111.747C300.02 111.869 300.174 111.968 300.342 112.039C301.062 112.339 301.856 112.418 302.622 112.267L302.54 112.463C301.884 114.068 301.548 115.786 301.55 117.521C301.55 125.014 307.73 131.089 315.361 131.089C316.795 131.091 318.221 130.871 319.589 130.437C319.621 130.611 319.648 130.784 319.68 130.957C319.68 131.026 319.703 131.094 319.712 131.162L319.47 131.5C319.458 131.479 319.444 131.459 319.429 131.441L312.268 141.447C311.174 142.218 304.871 146.779 304.515 150.2C304.141 153.944 303.767 158.327 303.767 158.327L303.717 159.267C303.404 159.528 303.038 159.719 302.644 159.825C302.25 159.931 301.838 159.951 301.436 159.882C299.201 159.518 299.201 168.092 299.201 168.092C299.201 168.092 297.715 169.46 296.693 168.274C295.671 167.089 292.971 171.107 292.971 171.107L276.05 171.837L275.662 171.859L274.75 169.036C274.652 168.738 274.44 168.491 274.161 168.349C273.882 168.206 273.558 168.179 273.259 168.274C273.188 168.298 273.12 168.327 273.054 168.361L272.99 168.398L272.871 168.48L272.812 168.534C272.779 168.564 272.749 168.596 272.721 168.63L272.666 168.694L272.639 168.721C272.533 168.867 272.464 169.035 272.435 169.213C272.406 169.39 272.42 169.572 272.474 169.743L273.259 172.165C269.993 172.822 266.655 174.673 269.378 179.773L255.576 177.223L260.041 180.972L283.092 185.729C282.787 186.276 282.987 187.07 283.941 188.187C288.045 193.008 295.525 194.317 298.535 194.655C299.33 196.433 300.323 198.116 301.496 199.672L301.236 204.474C301.236 204.474 293.614 241.08 292.219 242.936C292.923 242.138 293.568 241.289 294.148 240.396C291.936 247.917 288.844 258.211 288.032 259.753C286.727 262.215 285.519 272.181 287.005 272.819C287.462 273.016 288.766 272.92 290.627 272.778V273.604L290.545 304.887C290.545 304.887 290.919 324.075 289.893 325.904C288.866 327.733 288.593 331.568 288.593 331.568C288.593 331.568 284.488 339.135 281.236 342.177C281.214 342.201 281.189 342.222 281.163 342.241L281.063 341.529C281.063 341.529 277.154 346.464 268.506 346.186C268.506 346.186 263.302 349.57 271.019 349.753C278.737 349.935 288.593 349.479 288.593 349.479C288.593 349.479 295.475 338.989 301.24 340.357V348.307H303.005V340.23C303.824 339.691 304.524 338.991 305.065 338.173C305.605 337.356 305.973 336.437 306.148 335.473C306.299 334.479 306.188 333.462 305.827 332.524C305.465 331.586 304.865 330.758 304.086 330.123C303.736 329.806 303.455 329.421 303.262 328.991C303.068 328.561 302.965 328.095 302.96 327.623L302.896 327.678C302.896 327.518 302.855 327.354 302.836 327.185C302.33 323.081 301.696 314.611 303.936 308.344C307.005 299.752 307.936 287.784 305.701 280.66C304.98 278.382 304.387 276.066 303.926 273.723C303.872 273.426 303.822 273.143 303.776 272.879C305.304 273.085 306.816 273.39 308.305 273.791C313.482 275.219 324.806 275.483 334.476 275.405C334.498 275.67 334.526 275.948 334.558 276.226C334.73 278.16 335.091 280.073 335.634 281.937C336.847 285.585 337.404 301.672 337.404 301.672C337.404 301.672 338.968 314.898 338.115 320.28C337.659 323.272 337.203 326.278 336.943 329.297V329.356C336.943 329.356 334.38 336.654 332.505 340.617C332.46 340.718 332.409 340.818 332.364 340.914C331.864 340.959 331.372 341.068 330.9 341.238C330.9 341.238 328.387 346.255 325.883 347.085C323.379 347.915 324.209 350.647 329.878 349.643C335.547 348.64 344.108 347.819 344.108 347.819L344.478 342.702L346.22 340.521L345.764 345.625L347.62 345.26L347.374 339.053L350.224 335.486C350.224 335.486 353.668 332.421 348.551 326.392V326.524C348.496 326.437 348.446 326.346 348.386 326.26V326.232C347.538 324.919 346.863 322.469 348.099 318.123C350.334 310.269 351.634 303.14 351.634 303.14C351.634 303.14 356.623 284.044 350.626 275.009H350.89C350.276 273.737 349.841 272.386 349.6 270.995C349.569 270.831 349.542 270.662 349.517 270.489C353.955 270.233 358.311 269.431 361.864 267.698C361.85 267.679 359.711 222.362 357.942 215.147ZM301.6 183.54V183.631L300.688 183.677L301.6 183.54ZM298.472 183.973C298.322 184.006 298.181 184.073 298.061 184.169C297.669 184.724 297.423 185.369 297.345 186.044L295.922 185.725C295.922 185.725 294.923 185.51 293.487 185.268L292.807 184.584C294.677 184.429 296.62 184.201 298.472 183.973Z" fill="url(#paint1_linear_13_28)"/>
<path d="M345.554 339.117L345.011 345.58L346.831 345.215L346.558 338.205L345.554 339.117Z" fill="#1D2366"/>
<path d="M304.036 308.431C301.842 314.679 302.462 323.113 302.955 327.208C303.138 328.722 303.306 329.644 303.306 329.644C303.306 329.644 300.027 337.115 299.753 337.397C299.48 337.68 290.102 343.404 290.102 343.404L283.548 347.231C283.548 347.231 276.899 344.316 280.087 343.313C280.738 343.051 281.325 342.651 281.806 342.141C284.999 339.108 289.008 331.568 289.008 331.568C289.008 331.568 289.281 327.742 290.285 325.922C291.288 324.102 290.923 304.978 290.923 304.978L291.001 273.805V269.741L303.475 269.832C303.554 271.212 303.734 272.584 304.013 273.937C304.461 276.273 305.041 278.581 305.751 280.851C307.949 287.962 307.037 299.87 304.036 308.431Z" fill="#FFB0B1"/>
<path opacity="0.1" d="M303.306 329.644C303.306 329.644 300.027 337.114 299.753 337.397C299.48 337.68 290.102 343.404 290.102 343.404L283.548 347.231C283.548 347.231 276.899 344.316 280.087 343.313C280.738 343.051 281.325 342.651 281.806 342.141L282.089 344.134L284.274 344.042L302.973 327.217C303.138 328.722 303.306 329.644 303.306 329.644Z" fill="black"/>
<path d="M303.078 327.641L284.274 344.581L282.089 344.672L281.633 341.479C281.633 341.479 277.811 346.396 269.318 346.122C269.318 346.122 264.219 349.493 271.777 349.675C279.334 349.858 288.985 349.402 288.985 349.402C288.985 349.402 295.726 338.911 301.368 340.28V348.202H303.101V340.207C303.907 339.664 304.595 338.964 305.123 338.149C305.651 337.334 306.009 336.421 306.175 335.463C306.325 334.478 306.219 333.47 305.867 332.537C305.514 331.604 304.928 330.777 304.164 330.136C303.822 329.816 303.55 329.43 303.363 329.001C303.177 328.572 303.08 328.109 303.078 327.641Z" fill="#1D2366"/>
<path d="M347.287 318.173C346.074 322.506 346.735 324.946 347.565 326.255V326.282C348.63 327.899 349.371 329.706 349.746 331.605L349.819 332.015L341.262 344.489L336.619 346.314C336.619 346.314 329.153 343.764 330.517 343.035C330.859 342.857 331.392 341.908 332.004 340.599C333.828 336.654 336.346 329.375 336.346 329.375V329.315C336.61 326.31 337.03 323.313 337.495 320.33C338.33 314.962 336.797 301.786 336.797 301.786C336.797 301.786 336.25 285.763 335.064 282.119C334.529 280.266 334.173 278.366 334.001 276.445C333.755 274.165 333.7 272.286 333.7 272.286C333.7 272.286 338.617 265.444 347.629 272.833C348.35 273.422 348.984 274.11 349.513 274.876C355.739 283.734 350.726 303.245 350.726 303.245C350.726 303.245 349.472 310.342 347.287 318.173Z" fill="#FFB0B1"/>
<path opacity="0.1" d="M349.832 332.015L341.276 344.489L336.633 346.314C336.633 346.314 329.167 343.764 330.53 343.035C330.872 342.857 331.406 341.908 332.017 340.599C335.178 340.572 336.815 343.582 336.815 343.582L340.82 342.943C340.82 342.943 346.101 332.563 347.287 331.929C348.473 331.295 347.47 327.19 347.47 327.19V326.146C347.502 326.182 347.529 326.223 347.565 326.26V326.287C348.63 327.903 349.371 329.711 349.746 331.609L349.832 332.015Z" fill="black"/>
<path d="M337.089 343.851C337.089 343.851 334.809 339.664 330.439 341.21C330.439 341.21 327.981 346.227 325.523 347.039C323.064 347.851 323.885 350.587 329.44 349.589C334.996 348.59 343.369 347.764 343.369 347.764L343.734 342.661L349.381 335.468C349.381 335.468 352.747 332.417 347.739 326.41V327.454C347.739 327.454 348.742 331.559 347.556 332.193C346.37 332.827 341.107 343.212 341.107 343.212L337.089 343.851Z" fill="#1D2366"/>
<path opacity="0.1" d="M303.489 269.823C303.567 271.202 303.747 272.574 304.027 273.928C298.891 273.175 294.125 273.549 291.001 273.795V269.732L303.489 269.823Z" fill="black"/>
<path opacity="0.1" d="M350.019 276.012C350.019 276.012 342.722 276.368 334.02 276.441C333.773 274.16 333.719 272.281 333.719 272.281C333.719 272.281 338.635 265.44 347.648 272.829C348.368 273.418 349.002 274.106 349.531 274.872C349.673 275.261 349.836 275.641 350.019 276.012Z" fill="black"/>
<path d="M350.019 275.191C350.019 275.191 318.056 276.737 308.314 274.005C298.572 271.273 288.917 273.64 287.462 273.006C286.007 272.373 287.188 262.443 288.465 259.985C289.742 257.527 296.748 232.665 296.748 232.665L303.489 197.519L310.59 195.562L311.092 195.421L323.466 192.009L332.533 189.505C332.533 189.505 350.562 259.894 349.016 265.084C348.454 267.072 348.364 269.163 348.751 271.191C348.988 272.577 349.414 273.923 350.019 275.191Z" fill="#1D2366"/>
<path d="M279.991 173.483C279.991 173.483 273.606 180.324 278.44 184.137C283.275 187.95 286.454 184.502 286.454 184.502L279.991 173.483Z" fill="#C7DAF5"/>
<path opacity="0.1" d="M279.991 173.483C279.991 173.483 273.606 180.324 278.44 184.137C283.275 187.95 286.454 184.502 286.454 184.502L279.991 173.483Z" fill="black"/>
<path d="M331.579 128.503C331.579 128.503 330.831 129.215 329.705 130.264C328.099 131.764 325.723 133.958 323.616 135.796C320.697 138.337 318.289 140.202 319.151 138.61C320.013 137.019 319.849 134.246 319.42 131.65C319.388 131.477 319.361 131.304 319.329 131.135C318.974 129.229 318.503 127.347 317.919 125.498C317.919 125.498 322.635 119.404 325.244 117.001C326.216 116.089 326.895 115.715 326.936 116.349C326.982 117.202 327.621 119.085 328.414 121.083C328.437 121.147 328.46 121.206 328.487 121.27C329.016 122.638 329.614 124.043 330.138 125.256C330.941 127.117 331.579 128.503 331.579 128.503Z" fill="#FFB0B1"/>
<path opacity="0.1" d="M328.487 121.27C328.044 123.654 326.969 125.874 325.374 127.701C323.779 129.527 321.722 130.891 319.42 131.65C319.057 129.568 318.556 127.513 317.919 125.498C317.919 125.498 326.8 114.027 326.936 116.349C326.968 117.229 327.662 119.181 328.487 121.27Z" fill="black"/>
<path opacity="0.1" d="M318.535 134.715L319.685 133.096C319.685 133.096 320.446 137.739 323.247 135.691C326.047 133.644 326.184 151.103 326.184 151.103L323.178 196.041L301.459 194.741L302.075 173.027L304.533 162.081L310.613 146.168L314.23 140.909L318.535 134.715Z" fill="black"/>
<path d="M326.184 151.381L323.447 192.014L323.16 196.319L311.051 195.594L310.595 195.567L301.473 195.02L302.089 173.301L304.547 162.354L310.627 146.441L314.243 141.183L318.549 134.966L319.698 133.352C319.698 133.352 320.46 137.995 323.26 135.947L323.32 135.906C326.056 134.173 326.184 151.381 326.184 151.381Z" fill="#1D2366"/>
<path d="M304.852 158.551C304.852 158.551 303.762 160.831 301.573 160.462C299.384 160.092 299.389 168.671 299.389 168.671C299.389 168.671 297.934 170.04 296.93 168.854C295.927 167.668 293.281 171.677 293.281 171.677L276.707 172.407C276.707 172.407 284.082 175.777 282.636 185.975C282.636 185.975 307.676 184.425 308.497 182.058C309.318 179.69 304.852 158.551 304.852 158.551Z" fill="white"/>
<path opacity="0.03" d="M304.852 158.551C304.852 158.551 303.762 160.831 301.573 160.462C299.384 160.092 299.389 168.671 299.389 168.671C299.389 168.671 297.934 170.04 296.93 168.854C295.927 167.668 293.281 171.677 293.281 171.677L276.707 172.407C276.707 172.407 284.082 175.777 282.636 185.975C282.636 185.975 307.676 184.425 308.497 182.058C309.318 179.69 304.852 158.551 304.852 158.551Z" fill="black"/>
<path d="M256.685 177.766L261.054 181.497L297.021 189.054L292.561 184.502L256.685 177.766Z" fill="white"/>
<path d="M318.604 136.152C318.006 137.064 316.296 141.735 314.868 145.812C313.678 149.21 312.684 152.197 312.684 152.197C312.684 152.197 310.362 167.312 309.176 170.044C307.99 172.776 308.633 183.43 308.633 183.43L304.214 209.742C304.214 209.742 302.212 223.311 299.119 231.416C296.068 239.393 292.67 243.133 292.565 243.251C293.934 241.399 301.391 204.94 301.391 204.94L303.854 158.957C303.854 158.957 304.214 154.587 304.579 150.852C304.944 147.116 312.332 142.017 312.332 142.017L319.457 131.888C320.173 132.845 319.694 134.515 318.604 136.152Z" fill="white"/>
<path d="M300.027 195.248C300.027 195.248 289.537 194.791 284.456 188.689C279.375 182.587 296.2 186.253 296.2 186.253L300.574 187.257L300.027 195.248Z" fill="#FFB0B1"/>
<path opacity="0.1" d="M349.016 265.089C348.454 267.076 348.364 269.167 348.751 271.196C337.308 272.008 325.066 268.915 325.066 268.915C322.786 271.013 316.779 274.106 316.779 274.106L313.504 233.514C311.411 228.041 310.59 199.366 310.59 199.366C310.59 199.366 310.777 197.866 311.046 195.617C311.046 195.562 311.046 195.503 311.069 195.448C311.885 189.168 313.504 177.378 314.298 175.786C315.393 173.597 310.932 167.773 310.932 167.773L312.962 150.464L313.208 148.375C317.486 146.464 320.766 140.362 320.766 140.362L323.283 135.951C326.02 134.195 326.161 151.404 326.161 151.404L323.424 192.037L332.492 189.533C332.492 189.533 350.562 259.898 349.016 265.089Z" fill="black"/>
<path d="M360.76 267.894C348.286 274.087 325.614 268.35 325.614 268.35C323.333 270.448 317.327 273.54 317.327 273.54L314.047 232.948C311.958 227.475 311.137 198.801 311.137 198.801C311.137 198.801 313.774 177.405 314.868 175.221C315.187 174.582 315.032 173.633 314.654 172.612C312.793 167.749 312.108 162.515 312.656 157.337L313.532 149.899L313.774 147.814C318.056 145.899 321.336 139.796 321.336 139.796L323.616 135.801L327.812 128.439L329.801 124.955L330.138 125.261L332.715 127.596C332.715 127.596 333.81 128.508 335.452 129.876C339.023 132.886 345.194 138.186 348.377 141.429C351.178 144.284 352.062 155.39 352.318 163.75C352.487 169.255 352.386 173.57 352.386 173.57C349.563 178.217 356.947 215.53 356.947 215.53C358.667 222.741 360.76 267.894 360.76 267.894Z" fill="white"/>
<path opacity="0.03" d="M336.815 139.705C336.815 139.705 328.255 156.001 329.249 162.195C330.243 168.388 333.071 175.399 331.707 177.036C331.239 177.656 330.633 178.16 329.937 178.507C329.242 178.854 328.475 179.036 327.698 179.038C326.33 179.129 322.681 181.679 322.681 181.953C322.681 182.226 319.311 182.226 316.296 183.503C313.281 184.78 308.83 185.506 308.83 185.506C308.83 185.506 300.164 185.232 299.357 186.053C298.549 186.874 297.719 191.786 299.448 195.704C301.176 199.622 303.096 202.545 304.547 203.079C305.997 203.612 315.201 200.529 322.667 199.799C330.134 199.07 338.238 193.154 338.238 193.154C338.238 193.154 347.164 189.962 348.728 184.593C350.293 179.225 346.817 149.721 346.817 149.721C346.817 149.721 344.19 135.97 336.815 139.705Z" fill="black"/>
<path opacity="0.03" d="M335.721 138.337C335.721 138.337 327.16 154.637 328.163 160.827C329.167 167.016 331.985 174.03 330.617 175.672C330.15 176.293 329.545 176.797 328.851 177.145C328.156 177.492 327.389 177.674 326.613 177.675C325.244 177.766 321.596 180.315 321.596 180.589C321.596 180.863 318.225 180.863 315.21 182.135C312.195 183.408 307.744 184.137 307.744 184.137C307.744 184.137 299.078 183.864 298.276 184.685C297.473 185.506 296.634 190.422 298.367 194.335C300.1 198.249 302.015 201.177 303.466 201.71C304.916 202.244 314.12 199.161 321.586 198.436C329.053 197.711 337.157 191.786 337.157 191.786C337.157 191.786 346.079 188.593 347.625 183.23C349.171 177.866 345.714 148.352 345.714 148.352C345.714 148.352 343.096 134.606 335.721 138.337Z" fill="black"/>
<path d="M336.546 138.884C336.546 138.884 327.985 155.185 328.989 161.374C329.992 167.563 332.811 174.578 331.447 176.215C330.98 176.837 330.375 177.343 329.679 177.691C328.983 178.039 328.216 178.221 327.438 178.222C326.07 178.313 322.421 180.863 322.421 181.132C322.421 181.401 319.055 181.405 316.036 182.682C313.016 183.959 308.57 184.685 308.57 184.685C308.57 184.685 299.904 184.411 299.096 185.232C298.289 186.053 297.459 190.97 299.188 194.883C300.916 198.796 302.836 201.724 304.287 202.258C305.737 202.791 314.941 199.708 322.407 198.978C329.874 198.249 337.978 192.333 337.978 192.333C337.978 192.333 346.904 189.141 348.468 183.772C350.033 178.404 346.58 148.9 346.58 148.9C346.58 148.9 343.917 135.171 336.546 138.884Z" fill="white"/>
<path opacity="0.1" d="M336.359 182.605C336.359 182.605 329.518 181.237 331.899 183.517C334.279 185.797 334.266 187.795 337.18 187.704C340.095 187.613 336.359 182.605 336.359 182.605Z" fill="black"/>
<path opacity="0.1" d="M347.921 231.671C347.921 231.671 344.829 233.764 350.744 238.59C356.66 243.415 347.921 231.671 347.921 231.671Z" fill="black"/>
<path opacity="0.1" d="M342.019 248.879C342.019 249.153 340.925 258.913 345.02 261.353C349.116 263.793 342.019 248.879 342.019 248.879Z" fill="black"/>
<path d="M276.99 172.384C273.688 172.498 266.554 173.506 270.253 180.406C273.523 186.513 279.019 182.431 282.112 179.335C281.357 176.447 279.524 173.959 276.99 172.384Z" fill="#FFB0B1"/>
<path d="M282.153 179.281L282.291 179.139L282.153 179.281Z" fill="#FFB0B1"/>
<path opacity="0.1" d="M335.452 130.154C331.949 132.549 329.012 134.569 328.437 134.989C326.868 136.152 323.876 142.98 321.947 146.464C320.41 149.269 315.416 149.99 313.532 150.168L313.774 148.083C318.056 146.168 321.336 140.065 321.336 140.065L329.801 125.224L332.715 127.874C332.715 127.874 333.81 128.786 335.452 130.154Z" fill="black"/>
<path d="M335.452 129.881C331.949 132.275 329.012 134.296 328.437 134.72C326.868 135.878 323.876 142.706 321.947 146.191C320.41 148.996 315.416 149.716 313.532 149.894L313.774 147.81C318.056 145.894 321.336 139.792 321.336 139.792L329.801 124.95L332.715 127.591C332.715 127.591 333.81 128.494 335.452 129.881Z" fill="#DCE7FF"/>
<path d="M328.711 118.26C328.713 120.998 327.882 123.671 326.33 125.927C324.496 128.593 321.768 130.514 318.639 131.341C315.511 132.167 312.189 131.845 309.278 130.433C306.367 129.02 304.058 126.611 302.771 123.642C301.484 120.673 301.304 117.341 302.264 114.25C303.224 111.16 305.259 108.516 308.002 106.798C310.744 105.08 314.011 104.402 317.211 104.887C320.41 105.372 323.33 106.988 325.44 109.442C327.55 111.895 328.71 115.024 328.711 118.26Z" fill="#FFB0B1"/>
<path opacity="0.1" d="M352.318 163.755C350.466 162.615 348.957 160.995 347.953 159.066C347.191 157.561 346.685 155.823 345.385 154.756C344.213 153.798 342.649 153.566 341.189 153.137C336.391 151.718 332.368 147.34 332.218 142.341C332.145 139.988 332.879 137.639 332.546 135.308C332.357 133.989 331.832 132.741 331.023 131.682C330.621 131.176 330.18 130.702 329.705 130.264C329.066 129.662 328.396 129.078 327.812 128.44C327.444 128.044 327.123 127.608 326.854 127.14C326.637 126.756 326.461 126.351 326.33 125.931C325.418 123.14 326.248 119.829 325.244 117.005L325.189 116.85C324.811 115.847 324.04 114.844 322.968 114.766C321.896 114.688 320.98 115.578 319.958 115.975C317.819 116.805 315.511 115.391 313.728 113.95C311.945 112.508 309.933 110.862 307.666 111.181C306.166 111.395 304.98 112.417 303.598 112.946C303.286 113.067 302.964 113.16 302.636 113.224C303.805 110.308 305.954 107.889 308.713 106.385C311.472 104.88 314.668 104.384 317.754 104.98C320.839 105.576 323.62 107.229 325.62 109.653C327.619 112.077 328.712 115.122 328.711 118.264C328.712 119.213 328.613 120.159 328.414 121.087C328.437 121.151 328.46 121.211 328.487 121.274C329.016 122.643 329.614 124.047 330.138 125.261L332.715 127.596C332.715 127.596 333.81 128.508 335.452 129.876C339.023 132.886 345.194 138.186 348.377 141.429C351.178 144.293 352.053 155.394 352.318 163.755Z" fill="black"/>
<path d="M303.439 104.613C304.091 103.286 304.415 101.799 305.195 100.54C306.339 98.7161 308.337 97.5485 310.389 96.8416C315.749 94.9944 327.073 92.3126 330.457 96.8416C331.123 97.7538 331.675 98.7663 332.597 99.3957C333.299 99.8746 334.147 100.08 334.918 100.44C337.075 101.453 338.453 103.66 339.187 105.913C339.921 108.166 340.14 110.584 340.678 112.905C341.367 115.883 342.576 118.707 343.78 121.512C345.198 124.823 346.703 128.257 349.44 130.597C353.175 133.789 354.001 138.309 357.467 141.812C361.572 145.972 361.44 152.836 359.324 158.286C359.045 159.002 358.731 159.75 358.84 160.512C358.95 161.273 359.515 161.967 360.049 162.573L362.293 165.105C356.984 166.386 350.977 163.613 348.505 158.747C347.743 157.242 347.237 155.508 345.933 154.437C344.765 153.479 343.196 153.251 341.741 152.822C336.943 151.399 332.92 147.016 332.77 142.017C332.697 139.668 333.431 137.32 333.098 134.994C332.913 133.666 332.387 132.408 331.57 131.345C330.316 129.707 328.423 128.608 327.402 126.784C325.673 123.733 326.987 119.769 325.741 116.495C325.358 115.491 324.592 114.488 323.52 114.41C322.448 114.333 321.532 115.222 320.506 115.619C318.371 116.449 316.063 115.04 314.28 113.594C312.497 112.148 310.485 110.506 308.214 110.83C306.713 111.04 305.532 112.061 304.15 112.595C303.128 112.987 301.058 113.338 300.164 112.476C298.276 110.739 302.65 106.237 303.439 104.613Z" fill="#591D4B"/>
<path opacity="0.1" d="M349.773 157.242C349.007 155.736 348.505 154.003 347.201 152.936C346.033 151.978 344.464 151.746 343.004 151.317C338.211 149.899 334.188 145.515 334.033 140.517C333.96 138.168 334.694 135.814 334.366 133.488C334.175 132.169 333.649 130.921 332.838 129.862C331.579 128.225 329.687 127.126 328.67 125.302C326.941 122.255 328.254 118.291 327.005 115.012C326.626 114.013 325.855 113.01 324.788 112.928C323.721 112.846 322.795 113.744 321.773 114.141C319.639 114.971 317.327 113.557 315.548 112.116C313.769 110.675 311.748 109.028 309.482 109.348C307.981 109.562 306.795 110.584 305.418 111.113C304.396 111.505 302.321 111.861 301.427 110.999C299.548 109.174 303.922 104.682 304.706 103.067C305.359 101.735 305.682 100.253 306.467 98.9943C306.508 98.9259 306.554 98.8575 306.599 98.7891C306.012 99.2752 305.506 99.8508 305.099 100.495C304.319 101.754 303.995 103.231 303.343 104.568C302.554 106.182 298.18 110.688 300.063 112.499C300.976 113.366 303.028 113.01 304.05 112.618C305.418 112.084 306.613 111.062 308.113 110.853C310.394 110.529 312.401 112.175 314.179 113.617C315.958 115.058 318.284 116.472 320.41 115.642C321.431 115.245 322.325 114.351 323.42 114.433C324.515 114.515 325.244 115.514 325.641 116.517C326.886 119.792 325.573 123.755 327.301 126.807C328.323 128.599 330.216 129.721 331.47 131.368C332.286 132.431 332.813 133.688 332.998 135.016C333.331 137.342 332.596 139.691 332.669 142.04C332.82 147.057 336.843 151.422 341.641 152.845C343.087 153.274 344.665 153.502 345.832 154.459C347.141 155.531 347.657 157.264 348.405 158.769C350.877 163.636 356.883 166.409 362.192 165.127L361.134 163.932C356.532 164.001 351.875 161.383 349.773 157.242Z" fill="black"/>
<path opacity="0.1" d="M318.33 136.426C317.732 137.338 316.022 142.008 314.595 146.086C313.258 145.566 312.045 142.25 312.045 142.25L319.169 132.116C319.899 133.119 319.42 134.784 318.33 136.426Z" fill="black"/>
<path d="M318.604 136.152C318.006 137.064 316.296 141.735 314.868 145.812C313.532 145.297 312.319 141.976 312.319 141.976L319.443 131.847C320.173 132.845 319.694 134.515 318.604 136.152Z" fill="#DCE7FF"/>
<path d="M277.181 182.746L273.232 170.29C273.185 170.145 273.167 169.991 273.18 169.838C273.193 169.686 273.236 169.537 273.306 169.401C273.376 169.265 273.473 169.144 273.59 169.046C273.707 168.947 273.843 168.873 273.989 168.826C274.283 168.735 274.601 168.763 274.874 168.904C275.148 169.046 275.354 169.29 275.448 169.583L279.398 182.026L279.006 184.63L277.181 182.746Z" fill="#BE8B87"/>
<path opacity="0.1" d="M273.606 169.196C273.9 169.103 274.22 169.13 274.494 169.272C274.768 169.414 274.975 169.659 275.07 169.953L279.019 182.395L278.723 184.347L279.01 184.648L279.402 182.044L275.43 169.602C275.336 169.309 275.129 169.064 274.856 168.923C274.583 168.781 274.264 168.753 273.97 168.845C273.723 168.925 273.51 169.085 273.364 169.301C273.441 169.259 273.522 169.224 273.606 169.196Z" fill="white"/>
<path d="M277.181 182.746L279.398 182.044L279.074 184.178L279.006 184.648L278.358 183.973L277.181 182.746Z" fill="#EFC8C4"/>
<path d="M278.358 183.973C278.397 183.924 278.445 183.884 278.499 183.854C278.531 183.834 278.569 183.823 278.607 183.823C278.645 183.823 278.682 183.834 278.714 183.854C278.745 183.892 278.771 183.933 278.791 183.978C278.821 184.028 278.863 184.071 278.911 184.103C278.96 184.136 279.016 184.157 279.074 184.165L279.006 184.621L278.358 183.973Z" fill="#727A9C"/>
<path d="M273.209 174.714C273.209 174.714 281.131 174.669 279.266 178.039C277.4 181.41 274.486 181.816 274.486 181.816L273.209 174.714Z" fill="#FFB0B1"/>
<path d="M223.937 23.4521H223.595C209.985 23.4521 197.949 30.6538 191.026 41.2807C184.102 30.6538 172.066 23.4521 158.456 23.4521H158.114C147.9 23.5495 138.138 27.6737 130.947 34.9286C123.757 42.1835 119.721 51.9828 119.716 62.197C119.716 74.8809 125.271 92.8782 136.103 107.687C156.741 135.906 191.026 160.594 191.026 160.594C191.026 160.594 225.31 135.91 245.944 107.687C256.78 92.8782 262.331 74.8809 262.331 62.197C262.325 51.9836 258.29 42.185 251.101 34.9302C243.912 27.6754 234.15 23.5507 223.937 23.4521ZM219.043 109.858C217.493 109.853 215.981 109.378 214.706 108.497C213.43 107.617 212.451 106.371 211.896 104.924H203.76C203.224 104.92 202.702 104.75 202.268 104.436C201.834 104.122 201.509 103.68 201.338 103.172L198.838 95.6421L190.93 123.277C190.776 123.809 190.453 124.276 190.011 124.609C189.568 124.942 189.03 125.123 188.476 125.124H188.316C187.739 125.096 187.188 124.87 186.756 124.485C186.324 124.1 186.038 123.578 185.945 123.007L177.794 73.9869L171.838 102.994C171.701 103.545 171.384 104.035 170.937 104.384C170.49 104.734 169.938 104.924 169.37 104.924H157.909C157.565 104.938 157.222 104.883 156.9 104.761C156.579 104.64 156.285 104.455 156.037 104.217C155.788 103.979 155.591 103.693 155.456 103.377C155.321 103.06 155.251 102.72 155.251 102.376C155.251 102.032 155.321 101.692 155.456 101.376C155.591 101.059 155.788 100.774 156.037 100.536C156.285 100.298 156.579 100.112 156.9 99.991C157.222 99.8696 157.565 99.8145 157.909 99.829H167.363L175.801 60.8287C175.94 60.2521 176.274 59.7415 176.748 59.3842C177.221 59.027 177.804 58.8452 178.396 58.8699C178.988 58.8947 179.554 59.1245 179.996 59.5201C180.438 59.9156 180.728 60.4524 180.818 61.0385L189.142 111.044L196.23 86.3196C196.377 85.7989 196.689 85.3399 197.119 85.0111C197.549 84.6822 198.074 84.5013 198.615 84.4952H198.665C199.201 84.4954 199.723 84.6648 200.157 84.9793C200.592 85.2938 200.915 85.7373 201.082 86.2466L205.602 99.8427H211.796C212.236 98.5048 213.038 97.3146 214.112 96.4034C215.186 95.4923 216.491 94.8956 217.883 94.6792C219.274 94.4629 220.699 94.6353 221.999 95.1774C223.299 95.7195 224.424 96.6102 225.25 97.7513C226.075 98.8924 226.57 100.239 226.678 101.644C226.787 103.048 226.505 104.455 225.865 105.709C225.224 106.964 224.249 108.017 223.048 108.752C221.847 109.487 220.465 109.877 219.057 109.877L219.043 109.858Z" fill="#6C63FF"/>
<g clip-path="url(#clip1_13_28)">
<path d="M205.812 225C205.812 228.21 203.21 230.812 200 230.812C196.79 230.812 194.188 228.21 194.188 225C194.188 221.79 196.79 219.188 200 219.188C203.21 219.188 205.812 221.79 205.812 225ZM199.328 228.078L203.64 223.765C203.787 223.619 203.787 223.381 203.64 223.235L203.11 222.705C202.963 222.558 202.726 222.558 202.58 222.705L199.062 226.222L197.42 224.58C197.274 224.433 197.037 224.433 196.89 224.58L196.36 225.11C196.213 225.256 196.213 225.494 196.36 225.64L198.797 228.078C198.944 228.224 199.181 228.224 199.328 228.078Z" fill="#E84C3C"/>
</g>
<g clip-path="url(#clip2_13_28)">
<path d="M273.812 251C273.812 254.21 271.21 256.812 268 256.812C264.79 256.812 262.188 254.21 262.188 251C262.188 247.79 264.79 245.188 268 245.188C271.21 245.188 273.812 247.79 273.812 251ZM267.328 254.078L271.64 249.765C271.787 249.619 271.787 249.381 271.64 249.235L271.11 248.705C270.963 248.558 270.726 248.558 270.58 248.705L267.062 252.222L265.42 250.58C265.274 250.433 265.037 250.433 264.89 250.58L264.36 251.11C264.213 251.256 264.213 251.494 264.36 251.64L266.797 254.078C266.944 254.224 267.181 254.224 267.328 254.078Z" fill="#E84C3C"/>
<g clip-path="url(#clip3_13_28)">
<path d="M273.812 251C273.812 254.21 271.21 256.812 268 256.812C264.79 256.812 262.188 254.21 262.188 251C262.188 247.79 264.79 245.188 268 245.188C271.21 245.188 273.812 247.79 273.812 251ZM267.328 254.078L271.64 249.765C271.787 249.619 271.787 249.381 271.64 249.235L271.11 248.705C270.963 248.558 270.726 248.558 270.58 248.705L267.062 252.222L265.42 250.58C265.274 250.433 265.037 250.433 264.89 250.58L264.36 251.11C264.213 251.256 264.213 251.494 264.36 251.64L266.797 254.078C266.944 254.224 267.181 254.224 267.328 254.078Z" fill="#E84C3C"/>
</g>
</g>
<g clip-path="url(#clip4_13_28)">
<path d="M225.812 277C225.812 280.21 223.21 282.812 220 282.812C216.79 282.812 214.188 280.21 214.188 277C214.188 273.79 216.79 271.188 220 271.188C223.21 271.188 225.812 273.79 225.812 277ZM219.328 280.078L223.64 275.765C223.787 275.619 223.787 275.381 223.64 275.235L223.11 274.705C222.963 274.558 222.726 274.558 222.58 274.705L219.062 278.222L217.42 276.58C217.274 276.433 217.037 276.433 216.89 276.58L216.36 277.11C216.213 277.256 216.213 277.494 216.36 277.64L218.797 280.078C218.944 280.224 219.181 280.224 219.328 280.078Z" fill="#E84C3C"/>
</g>
<g clip-path="url(#clip5_13_28)">
<path d="M222.812 200C222.812 203.21 220.21 205.812 217 205.812C213.79 205.812 211.188 203.21 211.188 200C211.188 196.79 213.79 194.188 217 194.188C220.21 194.188 222.812 196.79 222.812 200ZM216.328 203.078L220.64 198.765C220.787 198.619 220.787 198.381 220.64 198.235L220.11 197.705C219.963 197.558 219.726 197.558 219.58 197.705L216.062 201.222L214.42 199.58C214.274 199.433 214.037 199.433 213.89 199.58L213.36 200.11C213.213 200.256 213.213 200.494 213.36 200.64L215.797 203.078C215.944 203.224 216.181 203.224 216.328 203.078Z" fill="#E84C3C"/>
</g>
</g>

</svg>
