<svg width="63" height="48" viewBox="0 0 63 48" fill="none" xmlns="http://www.w3.org/2000/svg">
<path d="M10.2375 6.85714H5.5125C4.2082 6.85714 3.15 8.01429 3.15 9.42857V20.5714C1.41061 20.5714 0 22.1036 0 24C0 25.8932 1.41061 27.4286 3.06141 27.4286L3.15 38.5714C3.15 39.9964 4.2082 41.1429 5.5125 41.1429H10.2375C11.5467 41.1429 12.6 39.9964 12.6 38.5714V9.42857C12.6 8.01429 11.5467 6.85714 10.2375 6.85714ZM44.8875 0H40.1625C38.8631 0 37.8 1.15179 37.8 2.57143V20.5714H25.2V2.57143C25.2 1.15179 24.1467 0 22.8375 0H18.1125C16.8131 0 15.75 1.15179 15.75 2.57143V45.4286C15.75 46.8536 16.8131 48 18.1125 48H22.8375C24.1467 48 25.2 46.8536 25.2 45.4286V27.4286H37.8V45.4286C37.8 46.8482 38.8582 48 40.1625 48H44.8875C46.1918 48 47.25 46.8482 47.25 45.4286V2.57143C47.25 1.15179 46.1967 0 44.8875 0ZM59.85 20.5714V9.42857C59.85 8.01429 58.7967 6.85714 57.4875 6.85714H52.7625C51.4631 6.85714 50.4 8.01429 50.4 9.42857V38.5714C50.4 39.9911 51.4582 41.1429 52.7625 41.1429H57.4875C58.7918 41.1429 59.85 39.9911 59.85 38.5714V27.4286C61.5894 27.4286 63 25.8932 63 24C63 22.1036 61.5923 20.5714 59.85 20.5714Z" fill="#392CFE"/>
</svg>
