<svg width="65" height="65" viewBox="0 0 65 65" fill="none" xmlns="http://www.w3.org/2000/svg">
<path d="M4.0625 56.875C4.0625 59.1221 5.87793 60.9375 8.125 60.9375H28.4375V40.625H4.0625V56.875ZM36.5625 60.9375H56.875C59.1221 60.9375 60.9375 59.1221 60.9375 56.875V40.625H36.5625V60.9375ZM60.9375 20.3125H55.5928C56.3799 18.7764 56.875 17.0752 56.875 15.2344C56.875 9.07715 51.8604 4.0625 45.7031 4.0625C40.4219 4.0625 37.0068 6.7666 32.627 12.7334C28.2471 6.7666 24.832 4.0625 19.5508 4.0625C13.3936 4.0625 8.37891 9.07715 8.37891 15.2344C8.37891 17.0752 8.86133 18.7764 9.66113 20.3125H4.0625C1.81543 20.3125 0 22.1279 0 24.375V34.5312C0 35.6484 0.914062 36.5625 2.03125 36.5625H62.9688C64.0859 36.5625 65 35.6484 65 34.5312V24.375C65 22.1279 63.1846 20.3125 60.9375 20.3125ZM19.5381 20.3125C16.7324 20.3125 14.46 18.04 14.46 15.2344C14.46 12.4287 16.7324 10.1562 19.5381 10.1562C22.0645 10.1562 23.9307 10.5752 30.4688 20.3125H19.5381ZM45.7031 20.3125H34.7725C41.2979 10.6006 43.1133 10.1562 45.7031 10.1562C48.5088 10.1562 50.7812 12.4287 50.7812 15.2344C50.7812 18.04 48.5088 20.3125 45.7031 20.3125Z" fill="#FC8846"/>
</svg>
