<svg width="25" height="23" viewBox="0 0 25 23" fill="none" xmlns="http://www.w3.org/2000/svg">
<path d="M12.5004 4.99175L3.01562 13.3559C2.94531 13.4193 2.85547 13.4488 2.77821 13.5013V21.5282C2.77821 21.7124 2.85137 21.889 2.98161 22.0193C3.11184 22.1495 3.28848 22.2227 3.47265 22.2227H21.5282C21.7124 22.2227 21.889 22.1495 22.0193 22.0193C22.1495 21.889 22.2227 21.7124 22.2227 21.5282V13.503C22.1489 13.4527 22.0612 13.424 21.9944 13.3641L12.5004 4.99175ZM16.6671 16.3199C16.6671 16.412 16.6305 16.5003 16.5654 16.5654C16.5003 16.6305 16.412 16.6671 16.3199 16.6671H13.8893V19.0977C13.8893 19.1897 13.8527 19.2781 13.7876 19.3432C13.7225 19.4083 13.6342 19.4449 13.5421 19.4449H11.4588C11.3667 19.4449 11.2784 19.4083 11.2132 19.3432C11.1481 19.2781 11.1115 19.1897 11.1115 19.0977V16.6671H8.68099C8.5889 16.6671 8.50058 16.6305 8.43546 16.5654C8.37035 16.5003 8.33377 16.412 8.33377 16.3199V14.2365C8.33377 14.1445 8.37035 14.0561 8.43546 13.991C8.50058 13.9259 8.5889 13.8893 8.68099 13.8893H11.1115V11.4588C11.1115 11.3667 11.1481 11.2784 11.2132 11.2132C11.2784 11.1481 11.3667 11.1115 11.4588 11.1115H13.5421C13.6342 11.1115 13.7225 11.1481 13.7876 11.2132C13.8527 11.2784 13.8893 11.3667 13.8893 11.4588V13.8893H16.3199C16.412 13.8893 16.5003 13.9259 16.5654 13.991C16.6305 14.0561 16.6671 14.1445 16.6671 14.2365V16.3199ZM24.77 10.2556L13.6615 0.446612C13.3435 0.159156 12.9301 0 12.5015 0C12.0729 0 11.6595 0.159156 11.3416 0.446612L0.230466 10.2556C0.162594 10.3166 0.107394 10.3903 0.0680198 10.4726C0.0286461 10.5549 0.00587021 10.6441 0.000993219 10.7352C-0.00388377 10.8263 0.00923373 10.9175 0.0395964 11.0035C0.069959 11.0895 0.116972 11.1687 0.177949 11.2365L1.1072 12.2704C1.16815 12.3383 1.24187 12.3935 1.32416 12.4328C1.40645 12.4722 1.49568 12.495 1.58677 12.4999C1.67786 12.5047 1.76902 12.4916 1.85504 12.4613C1.94106 12.4309 2.02026 12.3839 2.08811 12.3229L12.0412 3.5434C12.1681 3.43147 12.3315 3.36971 12.5006 3.36971C12.6698 3.36971 12.8332 3.43147 12.9601 3.5434L22.9132 12.3225C22.981 12.3835 23.0602 12.4305 23.1463 12.4608C23.2323 12.4912 23.3234 12.5043 23.4145 12.4994C23.5056 12.4946 23.5949 12.4718 23.6771 12.4324C23.7594 12.393 23.8331 12.3378 23.8941 12.27L24.8229 11.2361C24.9459 11.0991 25.0094 10.9188 24.9994 10.7349C24.9895 10.551 24.907 10.3787 24.77 10.2556Z" fill="#392CFE"/>
</svg>
