<svg width="53" height="55" viewBox="0 0 53 55" fill="none" xmlns="http://www.w3.org/2000/svg">
<path d="M15.9 5.15625C15.9 2.3085 17.6805 0 19.875 0H33.125C35.3195 0 37.1 2.3085 37.1 5.15625V55H30.475V46.4062C30.475 43.5596 28.6945 41.25 26.5 41.25C24.3055 41.25 22.525 43.5596 22.525 46.4062V55H15.9V5.15625ZM25.8375 6.875C25.1088 6.875 24.5125 7.64414 24.5125 8.59375V11.1719H22.525C21.7963 11.1719 21.2 11.9453 21.2 12.8906V14.6094C21.2 15.5547 21.7963 16.3281 22.525 16.3281H24.5125V18.9062C24.5125 19.8516 25.1088 20.625 25.8375 20.625H27.1625C27.8913 20.625 28.4875 19.8516 28.4875 18.9062V16.3281H30.475C31.2038 16.3281 31.8 15.5547 31.8 14.6094V12.8906C31.8 11.9453 31.2038 11.1719 30.475 11.1719H28.4875V8.59375C28.4875 7.64414 27.8913 6.875 27.1625 6.875H25.8375ZM13.25 10.3125V55H3.975C1.77964 55 0 52.6904 0 49.8438V34.375H6.625C7.35706 34.375 7.95 33.6016 7.95 32.6562C7.95 31.7109 7.35706 30.9375 6.625 30.9375H0V24.0625H6.625C7.35706 24.0625 7.95 23.2891 7.95 22.3438C7.95 21.3984 7.35706 20.625 6.625 20.625H0V15.4688C0 12.6221 1.77964 10.3125 3.975 10.3125H13.25ZM49.025 10.3125C51.2195 10.3125 53 12.6221 53 15.4688V20.625H46.375C45.6463 20.625 45.05 21.3984 45.05 22.3438C45.05 23.2891 45.6463 24.0625 46.375 24.0625H53V30.9375H46.375C45.6463 30.9375 45.05 31.7109 45.05 32.6562C45.05 33.6016 45.6463 34.375 46.375 34.375H53V49.8438C53 52.6904 51.2195 55 49.025 55H39.75V10.3125H49.025Z" fill="#392CFE"/>
</svg>
