<svg width="325" height="231" viewBox="0 0 325 231" fill="none" xmlns="http://www.w3.org/2000/svg">

    <defs>
        <linearGradient id="paint0_linear_29_306" x1="104.799" y1="227.894" x2="104.799" y2="46.9188" gradientUnits="userSpaceOnUse">
            <stop stop-color="#808080" stop-opacity="0.25"/>
            <stop offset="0.54" stop-color="#808080" stop-opacity="0.12"/>
            <stop offset="1" stop-color="#808080" stop-opacity="0.1"/>
        </linearGradient>
        <linearGradient id="paint1_linear_29_306" x1="262.764" y1="225.606" x2="262.764" y2="60.3181" gradientUnits="userSpaceOnUse">
            <stop stop-color="#808080" stop-opacity="0.25"/>
            <stop offset="0.54" stop-color="#808080" stop-opacity="0.12"/>
            <stop offset="1" stop-color="#808080" stop-opacity="0.1"/>
        </linearGradient>
        <clipPath id="clip0_29_306">
            <rect width="325" height="230.208" fill="white"/>
        </clipPath>
    </defs>
<g clip-path="url(#clip0_29_306)">
<path opacity="0.1" d="M108.049 230.079C123.876 230.079 136.707 228.018 136.707 225.476C136.707 222.934 123.876 220.873 108.049 220.873C92.2218 220.873 79.3913 222.934 79.3913 225.476C79.3913 228.018 92.2218 230.079 108.049 230.079Z" fill="#6C63FF"/>
<path opacity="0.1" d="M263.829 230.208C283.579 230.208 299.589 228.148 299.589 225.606C299.589 223.064 283.579 221.003 263.829 221.003C244.079 221.003 228.068 223.064 228.068 225.606C228.068 228.148 244.079 230.208 263.829 230.208Z" fill="#6C63FF"/>
<path opacity="0.1" d="M4.07045 99.4666H33.9194V140.15H6.25567C6.18214 140.568 6.11155 140.988 6.03509 141.409H33.9194V174.219C33.8694 174.205 33.8252 174.187 33.7782 174.169C32.99 173.858 32.2077 173.528 31.4253 173.175L30.9254 172.949C30.1411 172.578 29.3568 172.186 28.5725 171.772C28.299 171.628 28.0255 171.478 27.7549 171.325C23.4009 168.886 19.4455 165.796 16.0259 162.161C15.9259 162.064 15.8318 161.961 15.7318 161.867C15.2553 161.349 14.7877 160.826 14.3348 160.291L13.8348 159.702C13.2995 159.047 12.7819 158.373 12.279 157.691C12.2054 157.591 12.1349 157.491 12.0584 157.397C10.013 154.561 8.31471 151.49 6.99976 148.25C6.95858 148.153 6.92329 148.047 6.88506 147.956C6.48115 146.917 6.12332 145.868 5.81156 144.809C5.67628 144.365 5.54687 143.927 5.43511 143.465C5.39393 143.329 5.35864 143.197 5.32629 143.065C3.65576 136.544 3.45871 129.771 3.45871 123.045C3.45871 122.26 3.45871 121.472 3.45871 120.692C3.45871 117.972 3.49106 115.234 3.53812 112.498C3.53812 111.79 3.56753 111.084 3.58223 110.372C3.62341 108.566 3.68223 106.76 3.7587 104.955C3.77635 104.452 3.79987 103.952 3.82634 103.452C3.82634 103.163 3.84105 102.875 3.87046 102.587C3.94105 101.54 3.99987 100.502 4.07045 99.4666Z" fill="#6C63FF"/>
<path opacity="0.1" d="M33.9194 54.1684H17.5464C20.2079 50.0026 23.1159 45.9995 26.2549 42.1806C28.6872 39.1925 31.2547 36.2809 33.9194 33.4751V54.1684Z" fill="#6C63FF"/>
<path opacity="0.1" d="M33.9193 55.4272V98.2079H4.16454C4.16454 98.0843 4.18512 97.9579 4.19395 97.8344C4.22042 97.4961 4.24688 97.1579 4.2763 96.8226C4.30865 96.4285 4.34394 96.0315 4.38217 95.6462C4.42041 95.2609 4.46158 94.7904 4.5057 94.3639C4.54982 93.9375 4.59099 93.5051 4.64099 93.0787C4.69099 92.6522 4.7351 92.2258 4.78804 91.8022C4.84098 91.3787 4.88804 90.9493 4.94392 90.5258C4.98804 90.1729 5.03509 89.8229 5.08215 89.47C5.14979 88.9729 5.22038 88.473 5.29685 87.9789C5.29685 87.9053 5.31743 87.8289 5.3292 87.7583C5.866 84.1413 6.59743 80.5558 7.52029 77.0176C8.48632 73.3059 9.71989 69.6691 11.2113 66.1356C12.7965 62.4392 14.6524 58.865 16.7641 55.442L33.9193 55.4272Z" fill="#6C63FF"/>
<path opacity="0.1" d="M41.0456 99.4636V140.15H104.799V99.4636H41.0456ZM41.0456 141.406V176.346C41.4103 176.422 41.772 176.496 42.1308 176.558C42.6191 176.652 43.1043 176.737 43.6014 176.81C43.6955 176.825 43.7925 176.84 43.8955 176.849C44.0896 176.881 44.2896 176.907 44.4837 176.934C44.9748 177.002 45.4631 177.057 45.9542 177.102C46.1866 177.125 46.4219 177.146 46.6571 177.163L47.2248 177.207C47.5336 177.231 47.8394 177.249 48.1424 177.257C48.3306 177.257 48.5188 177.275 48.7129 177.281C48.86 177.281 49.0071 177.281 49.16 177.281C49.3129 177.281 49.5306 177.281 49.7159 177.281C49.9688 177.281 50.2217 177.281 50.4717 177.281H50.8099C51.0629 177.281 51.3158 177.281 51.5658 177.257H51.5834C51.757 177.257 51.9334 177.257 52.1099 177.234C52.1589 177.237 52.208 177.237 52.2569 177.234C52.404 177.234 52.551 177.234 52.6922 177.213H52.7952L53.7804 177.137C54.1039 177.107 54.4304 177.069 54.7598 177.034L55.4304 176.955C58.1584 176.572 60.8562 175.998 63.5036 175.237C69.4504 173.578 75.2679 171.258 81.2118 169.558C88.8968 167.367 97.3877 166.29 104.814 168.97V141.406H41.0456ZM104.799 54.1683V0.00285663C97.8192 -0.0727649 90.8582 0.743615 84.0852 2.43217C67.9417 6.48789 53.4569 15.2846 41.0456 26.5194V54.1654H44.2455V55.4212H41.0456V98.2077H104.799V55.4242H57.3832V54.1683H104.799ZM186.687 35.872C182.693 35.7308 178.723 34.4662 175.132 32.5133C168.265 28.7782 162.779 23.0108 156.65 18.1433C143.915 8.00548 128.122 1.88807 111.919 0.370489V54.1683H202.931L203.157 53.9301L186.687 35.872ZM194.978 34.4015L203.769 44.0481V31.8722C200.825 32.2369 198.246 33.1045 194.99 34.3897L194.978 34.4015ZM203.769 185.022V141.406H185.037C184.987 141.221 184.937 141.032 184.879 140.844C184.934 141.032 184.982 141.221 185.034 141.406H111.931V172.949C112.625 173.464 113.311 174.005 113.99 174.555C114.722 175.143 115.446 175.763 116.172 176.372L116.905 176.978C117.255 177.272 117.607 177.566 117.963 177.843C118.669 178.415 119.382 178.98 120.102 179.537C120.457 179.831 120.822 180.096 121.184 180.372C126.927 184.763 132.985 188.725 139.31 192.227C140.727 193.012 142.158 193.777 143.601 194.524C144.562 195.016 145.53 195.504 146.501 195.977C147.959 196.689 149.43 197.375 150.912 198.036C164.578 204.171 179.029 208.38 193.852 210.544C197.144 211.031 200.449 211.413 203.766 211.691V185.019H204.06L203.769 185.022ZM111.931 55.4242V98.2077H203.781V55.4242H111.931ZM111.931 99.4636V140.15H203.781V99.4636H111.931ZM210.91 31.8192V45.401L222.13 33.0898C218.413 32.4898 214.673 32.0614 210.91 31.8045V31.8192ZM210.91 99.4783V140.15H300.245V99.4636L210.91 99.4783ZM299.919 188.251L300.233 141.406H210.91V212.159C216.664 212.401 222.427 212.332 228.174 211.953H228.274C231.019 211.781 233.751 211.53 236.471 211.2H236.533C251.041 209.512 265.228 205.726 278.649 199.962M317.471 106.163C317.136 105.372 316.786 104.587 316.43 103.81C315.765 102.34 315.062 100.911 314.339 99.4812H307.368V140.15H324.991C324.982 128.633 322.068 116.869 317.48 106.149L317.471 106.163ZM289.816 223.509V263.801C294.781 259.042 298.975 253.599 301.995 247.375C305.627 239.881 307.289 231.767 307.424 223.503L289.816 223.509ZM289.816 169.711V180.299H296.133C304.402 166.501 309.677 151.118 311.614 135.149C313.551 119.18 312.107 102.983 307.377 87.6081L289.816 169.711ZM229.23 121.889C228.765 121.713 228.301 121.533 227.833 121.36C222.901 119.538 217.861 118.024 212.742 116.825L195.572 135.668L212.795 53.9301L213.016 54.1713H274.125C265.615 48.3128 256.439 43.4842 246.791 39.7865L229.23 121.889ZM258.364 137.527H212.163L210.91 138.674V98.2077H221.892H221.91H300.257V78.0468C293.169 69.4753 284.989 61.8697 275.925 55.4242L258.364 137.527Z" fill="#6C63FF"/>
<path opacity="0.1" d="M33.9193 77.0056V98.2077H4.16454C4.16454 98.0842 4.18512 97.9577 4.19395 97.8342C4.22042 97.496 4.24688 97.1577 4.2763 96.8225C4.30865 96.4284 4.34394 96.0313 4.38217 95.646C4.42041 95.2608 4.46158 94.7902 4.5057 94.3637C4.54982 93.9373 4.59099 93.5049 4.64099 93.0785C4.69099 92.652 4.7351 92.2256 4.78804 91.8021C4.84098 91.3786 4.88804 90.9492 4.94392 90.5257C4.98804 90.1727 5.03509 89.8227 5.08215 89.4698C5.14979 88.9728 5.22038 88.4728 5.29685 87.9787C5.29685 87.9052 5.31743 87.8287 5.3292 87.7581C5.866 84.1411 6.59743 80.5556 7.52029 77.0174L33.9193 77.0056Z" fill="#6C63FF"/>
<path opacity="0.1" d="M4.07045 99.4666H33.9194V140.15H6.25567C6.18214 140.568 6.11155 140.988 6.03509 141.409H33.9194V174.219C33.8694 174.205 33.8252 174.187 33.7782 174.169C32.99 173.858 32.2077 173.528 31.4253 173.175L30.9254 172.949C30.1411 172.578 29.3568 172.186 28.5725 171.772C28.299 171.628 28.0255 171.478 27.7549 171.325C23.4009 168.886 19.4455 165.796 16.0259 162.161C15.9259 162.064 15.8318 161.961 15.7318 161.867C15.2553 161.349 14.7877 160.826 14.3348 160.291L13.8348 159.702C13.2995 159.047 12.7819 158.373 12.279 157.691C12.2054 157.591 12.1349 157.491 12.0584 157.397C10.013 154.561 8.31471 151.49 6.99976 148.25C6.95858 148.153 6.92329 148.047 6.88506 147.956C6.48115 146.917 6.12332 145.868 5.81156 144.809C5.67628 144.365 5.54687 143.927 5.43511 143.465C5.39393 143.329 5.35864 143.197 5.32629 143.065C3.65576 136.544 3.45871 129.771 3.45871 123.045C3.45871 122.26 3.45871 121.472 3.45871 120.692C3.45871 117.972 3.49106 115.234 3.53812 112.498C3.53812 111.79 3.56753 111.084 3.58223 110.372C3.62341 108.566 3.68223 106.76 3.7587 104.955C3.77635 104.452 3.79987 103.952 3.82634 103.452C3.82634 103.163 3.84105 102.875 3.87046 102.587C3.94105 101.54 3.99987 100.502 4.07045 99.4666Z" fill="#6C63FF"/>
<path opacity="0.1" d="M63.4889 61.5504V98.2078H41.0456V61.5504H44.2455V49.1392H57.3803V61.5504H63.4889Z" fill="#6C63FF"/>
<path opacity="0.1" d="M63.4889 99.4636H41.0485V140.147H63.4889V99.4636Z" fill="#6C63FF"/>
<path opacity="0.1" d="M41.0456 141.409H63.4889V175.231C60.8415 175.992 58.1437 176.565 55.4156 176.946L54.7451 177.028C54.4157 177.066 54.0892 177.099 53.7657 177.131C53.4422 177.163 53.1069 177.187 52.7804 177.207H52.6775C52.5363 177.207 52.3834 177.225 52.2452 177.228H52.0952C51.9187 177.228 51.7422 177.246 51.5658 177.252C51.3158 177.266 51.0658 177.269 50.8099 177.272C50.7011 177.272 50.5982 177.272 50.4894 177.272C50.2364 177.272 49.9864 177.272 49.7335 177.272H49.1776C49.0276 177.272 48.8835 177.272 48.7276 177.272L48.16 177.252C47.8659 177.252 47.5483 177.219 47.2424 177.199L46.6777 177.157L45.9748 177.093C45.4807 177.049 44.9896 176.993 44.5043 176.925L43.9161 176.843L43.622 176.802C43.1308 176.725 42.6455 176.643 42.1514 176.549C41.7897 176.487 41.4309 176.41 41.0662 176.337L41.0456 141.409Z" fill="#6C63FF"/>
<path opacity="0.1" d="M203.781 57.2212H185.276V98.2048H203.781V57.2212Z" fill="#6C63FF"/>
<path opacity="0.1" d="M203.784 99.4636V140.15H111.931V122.601H160.856V132.953H185.276V99.4636H203.784Z" fill="#6C63FF"/>
<path opacity="0.1" d="M204.075 185.031H203.781V211.721C200.467 211.44 197.163 211.059 193.869 210.577C179.039 208.406 164.583 204.187 150.912 198.042C146.965 196.266 143.099 194.326 139.313 192.224C132.988 188.721 126.929 184.758 121.184 180.369C119.741 179.263 118.316 178.132 116.91 176.975C115.937 176.172 114.969 175.349 113.99 174.549C113.311 173.999 112.625 173.458 111.931 172.94V141.409H185.032C184.982 141.221 184.932 141.032 184.879 140.847C184.934 141.032 184.987 141.221 185.037 141.409H203.781V185.013C203.881 185.016 203.978 185.025 204.075 185.031Z" fill="#6C63FF"/>
<path opacity="0.1" d="M252.044 54.1685H239.985V50.4216H245.391V39.2603C245.86 39.4308 246.326 39.6063 246.791 39.7867V50.4216H252.044V54.1685Z" fill="#6C63FF"/>
<path opacity="0.1" d="M281.096 98.2079H221.898C221.898 98.2079 221.898 98.2079 221.918 98.2226L221.892 98.2079H210.91V57.2242H214.022V87.5171H228.242V69.5767H239.988V55.4272H252.047V69.5884H263.793V87.5289H281.096V98.2079Z" fill="#6C63FF"/>
<path opacity="0.1" d="M210.91 99.4636V140.15H281.096V99.4636H210.91ZM300.148 188.042L300.245 155.838H281.096V141.427H210.91V212.159C216.664 212.401 222.427 212.332 228.174 211.953H228.274C231.019 211.781 233.751 211.53 236.471 211.2H236.533C251.041 209.512 265.228 205.726 278.649 199.963" fill="#6C63FF"/>
<path opacity="0.1" d="M308.615 141.409H324.988C324.844 149.67 323.185 157.785 319.556 165.279C316.536 171.505 312.339 176.949 307.38 181.704V155.823H308.615V141.409Z" fill="#6C63FF"/>
<path opacity="0.1" d="M324.997 140.15H308.615V106.149H317.48C322.068 116.869 324.982 128.633 324.997 140.15Z" fill="#6C63FF"/>
<path opacity="0.1" d="M203.784 68.615H193.869V81.4645H203.784V68.615Z" fill="#6C63FF"/>
<path opacity="0.1" d="M203.784 95.249H193.869V98.2077H203.784V95.249Z" fill="#6C63FF"/>
<path opacity="0.1" d="M203.784 99.4636H193.869V108.096H203.784V99.4636Z" fill="#6C63FF"/>
<path opacity="0.1" d="M203.784 121.883H193.869V134.733H203.784V121.883Z" fill="#6C63FF"/>
<path opacity="0.1" d="M203.784 148.518H193.869V161.367H203.784V148.518Z" fill="#6C63FF"/>
<path opacity="0.1" d="M203.781 185.013C203.881 185.013 203.978 185.013 204.075 185.031H203.781V188.016H193.869V175.152H203.781V185.013Z" fill="#6C63FF"/>
<path opacity="0.1" d="M203.781 201.78V211.706C200.467 211.426 197.163 211.044 193.869 210.562V201.78H203.781Z" fill="#6C63FF"/>
<path opacity="0.1" d="M154.421 139.206H111.931V140.15H154.421V139.206Z" fill="#6C63FF"/>
<path opacity="0.1" d="M154.421 141.406H111.931V145.024H154.421V141.406Z" fill="#6C63FF"/>
<path opacity="0.1" d="M154.421 156.882H111.931V162.699H154.421V156.882Z" fill="#6C63FF"/>
<path opacity="0.1" d="M154.418 174.558V180.375H121.184C119.741 179.273 118.315 178.142 116.908 176.981C115.934 176.178 114.969 175.355 113.987 174.558H154.418Z" fill="#6C63FF"/>
<path opacity="0.1" d="M154.418 192.23V198.042H150.909C146.966 196.264 143.101 194.324 139.313 192.222L154.418 192.23Z" fill="#6C63FF"/>
<path opacity="0.1" d="M236.541 103.408H228.177V111.772H236.541V103.408Z" fill="#6C63FF"/>
<path opacity="0.1" d="M55.4362 64.4355H47.0718V72.7999H55.4362V64.4355Z" fill="#6C63FF"/>
<path opacity="0.1" d="M55.4362 83.8643H47.0718V92.2286H55.4362V83.8643Z" fill="#6C63FF"/>
<path opacity="0.1" d="M55.4362 103.293H47.0718V111.657H55.4362V103.293Z" fill="#6C63FF"/>
<path opacity="0.1" d="M55.4362 122.719H47.0718V131.083H55.4362V122.719Z" fill="#6C63FF"/>
<path opacity="0.1" d="M55.4362 142.147H47.0718V150.512H55.4362V142.147Z" fill="#6C63FF"/>
<path opacity="0.1" d="M55.4362 161.576H47.0718V169.94H55.4362V161.576Z" fill="#6C63FF"/>
<path opacity="0.1" d="M268.473 103.408H260.108V111.772H268.473V103.408Z" fill="#6C63FF"/>
<path opacity="0.1" d="M236.541 124.039H228.177V132.403H236.541V124.039Z" fill="#6C63FF"/>
<path opacity="0.1" d="M268.473 124.039H260.108V132.403H268.473V124.039Z" fill="#6C63FF"/>
<path opacity="0.1" d="M236.541 144.668H228.177V153.032H236.541V144.668Z" fill="#6C63FF"/>
<path opacity="0.1" d="M268.473 144.668H260.108V153.032H268.473V144.668Z" fill="#6C63FF"/>
<path opacity="0.1" d="M236.541 165.299H228.177V173.664H236.541V165.299Z" fill="#6C63FF"/>
<path opacity="0.1" d="M268.473 165.299H260.108V173.664H268.473V165.299Z" fill="#6C63FF"/>
<path opacity="0.1" d="M236.541 185.931H228.177V194.295H236.541V185.931Z" fill="#6C63FF"/>
<path opacity="0.1" d="M268.473 185.931H260.108V194.295H268.473V185.931Z" fill="#6C63FF"/>
<path opacity="0.1" d="M228.177 211.953V206.559H236.538V211.186L228.177 211.953Z" fill="#6C63FF"/>
<path opacity="0.1" d="M5.29395 87.7524V92.5375H33.9194V87.7524H5.29395ZM8.14678 92.2376H5.81157V88.0465H8.16443L8.14678 92.2376ZM10.9967 92.2376H8.64382V88.0465H10.9967V92.2376ZM13.8407 92.2376H11.4878V88.0465H13.8407V92.2376ZM16.6906 92.2376H14.3407V88.0465H16.6935L16.6906 92.2376ZM19.5375 92.2376H17.1847V88.0465H19.5375V92.2376ZM22.3874 92.2376H20.0346V88.0465H22.3874V92.2376ZM25.2373 92.2376H22.8845V88.0465H25.2373V92.2376ZM28.0843 92.2376H25.7314V88.0465H28.0843V92.2376ZM30.9312 92.2376H28.5784V88.0465H30.9312V92.2376ZM33.7782 92.2376H31.4253V88.0465H33.7782V92.2376Z" fill="#6C63FF"/>
<path opacity="0.1" d="M5.29395 101.675V106.46H33.9194V101.675H5.29395ZM8.14678 106.157H5.81157V101.978H8.16443L8.14678 106.157ZM10.9967 106.157H8.64382V101.978H10.9967V106.157ZM13.8407 106.157H11.4878V101.978H13.8407V106.157ZM16.6906 106.157H14.3407V101.978H16.6935L16.6906 106.157ZM19.5375 106.157H17.1847V101.978H19.5375V106.157ZM22.3874 106.157H20.0346V101.978H22.3874V106.157ZM25.2373 106.157H22.8845V101.978H25.2373V106.157ZM28.0843 106.157H25.7314V101.978H28.0843V106.157ZM30.9312 106.157H28.5784V101.978H30.9312V106.157ZM33.7782 106.157H31.4253V101.978H33.7782V106.157Z" fill="#6C63FF"/>
<path opacity="0.1" d="M5.29395 115.604V120.398H33.9194V115.604H5.29395ZM8.14678 120.086H5.81157V115.904H8.16443L8.14678 120.086ZM10.9967 120.086H8.64382V115.904H10.9967V120.086ZM13.8407 120.086H11.4878V115.904H13.8407V120.086ZM16.6906 120.086H14.3407V115.904H16.6935L16.6906 120.086ZM19.5375 120.086H17.1847V115.904H19.5375V120.086ZM22.3874 120.086H20.0346V115.904H22.3874V120.086ZM25.2373 120.086H22.8845V115.904H25.2373V120.086ZM28.0843 120.086H25.7314V115.904H28.0843V120.086ZM30.9312 120.086H28.5784V115.904H30.9312V120.086ZM33.7782 120.086H31.4253V115.904H33.7782V120.086Z" fill="#6C63FF"/>
<path opacity="0.1" d="M5.29395 129.533V134.312H33.9194V129.533H5.29395ZM8.14678 134.015H5.81157V129.83H8.16443L8.14678 134.015ZM10.9967 134.015H8.64382V129.83H10.9967V134.015ZM13.8407 134.015H11.4878V129.83H13.8407V134.015ZM16.6906 134.015H14.3407V129.83H16.6935L16.6906 134.015ZM19.5375 134.015H17.1847V129.83H19.5375V134.015ZM22.3874 134.015H20.0346V129.83H22.3874V134.015ZM25.2373 134.015H22.8845V129.83H25.2373V134.015ZM28.0843 134.015H25.7314V129.83H28.0843V134.015ZM30.9312 134.015H28.5784V129.83H30.9312V134.015ZM33.7782 134.015H31.4253V129.83H33.7782V134.015Z" fill="#6C63FF"/>
<path opacity="0.1" d="M5.41745 143.459C5.53215 143.909 5.66156 144.359 5.79685 144.803V143.759H8.1497V147.941H6.89092C6.92916 148.038 6.96739 148.144 7.00563 148.235H33.9194V143.459H5.41745ZM11.0055 147.941H8.65263V143.759H11.0055V147.941ZM13.8495 147.941H11.4966V143.759H13.8495V147.941ZM16.6994 147.941H14.3407V143.759H16.6935L16.6994 147.941ZM19.5463 147.941H17.1935V143.759H19.5463V147.941ZM22.3962 147.941H20.0434V143.759H22.3962V147.941ZM25.2461 147.941H22.8933V143.759H25.2461V147.941ZM28.0931 147.941H25.7402V143.759H28.0931V147.941ZM30.9401 147.941H28.5872V143.759H30.9401V147.941ZM33.787 147.941H31.4341V143.759H33.787V147.941Z" fill="#6C63FF"/>
<path opacity="0.1" d="M12.0643 157.388C12.1378 157.482 12.2084 157.588 12.2849 157.682H13.8407V159.691C14.0083 159.891 14.173 160.091 14.3436 160.279V157.67H16.6965V161.867H15.7436C15.8377 161.964 15.9288 162.067 16.0377 162.161H33.9282V157.388H12.0643ZM19.5375 161.867H17.1847V157.688H19.5375V161.867ZM22.3874 161.867H20.0346V157.688H22.3874V161.867ZM25.2373 161.867H22.8845V157.688H25.2373V161.867ZM28.0843 161.867H25.7314V157.688H28.0843V161.867ZM30.9313 161.867H28.5784V157.688H30.9313V161.867ZM33.7782 161.867H31.4253V157.688H33.7782V161.867Z" fill="#6C63FF"/>
<path opacity="0.1" d="M27.7666 171.314C28.0343 171.467 28.3078 171.608 28.5843 171.761V171.614H30.9371V172.937L31.4371 173.17V171.614H33.79V174.158C33.8351 174.18 33.8824 174.198 33.9311 174.211V171.314H27.7666Z" fill="#6C63FF"/>
<path opacity="0.1" d="M221.898 98.2079H221.915H221.898ZM203.781 185.01H204.075H203.781ZM184.879 140.844C184.934 141.033 184.982 141.221 185.034 141.406C184.987 141.221 184.937 141.033 184.879 140.844ZM221.898 98.1991H221.915H221.898ZM44.2572 54.1597V55.4155H57.395V54.1597H44.2572ZM203.781 185.01H204.075H203.781ZM184.879 140.844C184.934 141.033 184.982 141.221 185.034 141.406C184.987 141.221 184.937 141.033 184.879 140.844ZM221.898 98.1991H221.915H221.898ZM203.781 185.001H204.075H203.781ZM184.879 140.844C184.934 141.033 184.982 141.221 185.034 141.406C184.987 141.221 184.937 141.033 184.879 140.844Z" fill="#6C63FF"/>
<path d="M135.76 111.663C135.76 111.663 134.601 111.501 134.601 109.813C134.601 108.125 133.772 104.972 133.772 104.972C133.772 104.958 133.054 99.4814 132.063 98.6108C131.072 97.7403 129.798 92.6287 129.798 92.6287C129.798 92.6287 129.581 89.8553 129.137 89.2582C128.692 88.6612 128.092 87.1995 127.207 85.1143C126.322 83.0291 122.631 81.585 122.631 81.585C122.631 81.585 115.958 77.7146 114.066 76.4529C113.895 76.3492 113.734 76.228 113.587 76.0911C113.258 75.6588 111.822 75.65 111.822 75.65C111.672 74.703 111.528 73.6148 111.481 72.6295C111.481 72.5236 111.481 72.4178 111.467 72.3119C113.575 71.0654 115.164 69.1001 115.94 66.7768C115.975 66.665 116.005 66.5474 116.037 66.4356C116.163 66.394 116.28 66.3265 116.378 66.2374C116.477 66.1482 116.556 66.0395 116.61 65.918C116.781 65.5386 116.784 65.0945 116.996 64.7416C117.243 64.324 117.713 64.1004 118.084 63.7857C119.019 62.9917 119.26 61.6535 119.216 60.4359C119.187 59.4506 119.028 58.4565 119.09 57.4772L119.107 57.2301C119.125 57.0831 119.146 56.936 119.172 56.7949C119.316 56.0655 119.631 55.3773 119.807 54.6538C119.984 53.9303 120.002 53.1156 119.59 52.4921C118.987 51.5774 117.731 51.3951 116.628 51.301C115.378 51.1951 114.261 51.3333 113.461 50.2951C113.086 49.7525 112.665 49.2437 112.202 48.7746C112.037 48.6217 110.437 47.6452 110.437 47.5805C108.876 46.8573 107.106 46.7215 105.452 47.1982C104.623 47.4393 103.84 47.8335 102.999 48.0305C101.185 48.4599 99.0964 47.9952 97.5553 49.0334C96.6965 49.6216 96.1818 50.5569 95.6995 51.4686C95.3073 52.2195 94.9093 52.9695 94.5054 53.7185C93.8554 54.9508 93.1937 56.2037 92.9202 57.5683C92.8626 57.8653 92.8273 58.1661 92.8143 58.4683V58.483C92.8143 58.5918 92.8143 58.7007 92.8143 58.8095V58.9477C92.8143 59.0506 92.8143 59.1506 92.8319 59.2418C92.8496 59.333 92.8466 59.3624 92.8555 59.4242C92.8643 59.4859 92.879 59.6241 92.8966 59.7183C92.9143 59.8124 92.9496 59.9771 92.9849 60.1065C92.9996 60.1624 93.0202 60.2153 93.0378 60.2682C93.0672 60.3682 93.1025 60.4653 93.1407 60.5623C93.1613 60.6123 93.1819 60.6653 93.2054 60.7153C93.2496 60.8182 93.3025 60.9182 93.3554 61.0094C93.379 61.0506 93.3966 61.0888 93.4201 61.127C93.5022 61.2638 93.5926 61.3954 93.6907 61.5211C94.3201 62.3064 95.2466 62.8064 95.9318 63.5416C95.9318 63.571 95.9318 63.6005 95.9318 63.6269C95.9318 63.7093 95.9318 63.7887 95.9318 63.871C95.9682 65.5108 96.4046 67.1169 97.2032 68.5496C98.0018 69.9822 99.1384 71.198 100.514 72.0913C100.514 72.2031 100.529 72.3178 100.535 72.4295C100.592 73.3025 100.581 74.1787 100.502 75.05C100.382 74.9089 100.233 74.7966 100.064 74.7213C99.8945 74.6459 99.7108 74.6095 99.5258 74.6147C99.3994 74.6085 99.2728 74.6194 99.1493 74.6471L99.1229 74.6265V74.653C98.4758 74.8118 97.6788 75.4853 96.9171 77.3999C96.9171 77.3999 94.5995 80.0116 92.8349 79.9027C91.0702 79.7939 86.6027 82.6203 86.6027 82.6203C86.6027 82.6203 82.2441 85.4496 81.3088 88.3318C80.7861 89.9662 80.1593 91.5655 79.4324 93.1199L74.0444 104.222L73.0503 113.031C73.0503 113.031 73.6003 116.948 73.4915 117.545C73.3826 118.142 75.7531 123.527 75.7531 123.527C75.7531 123.527 83.5852 137.289 86.7851 137.995L87.0145 137.833C87.1514 137.904 87.2966 137.959 87.4468 137.995L88.1056 137.53C88.1452 138.048 88.1284 138.568 88.0556 139.083C87.6145 140.441 88.2203 149.309 88.9909 151.047C89.7615 152.785 89.4879 175.575 89.4879 175.575L89.3791 177.587C89.3791 177.587 89.3791 177.652 89.4056 177.763L89.3791 178.24L89.4585 178.281C89.541 178.919 89.5141 179.567 89.3791 180.196C89.1027 181.078 88.9909 183.572 88.9909 183.572C88.9909 183.572 86.788 197.654 87.8321 200.483C88.8762 203.312 89.7644 206.412 89.7644 206.412C89.7644 206.412 90.8673 209.942 89.8173 210.545C88.7674 211.147 85.7822 212.159 86.3969 213.63C86.9557 214.988 89.0762 218.629 89.3909 219.162L89.3644 219.441L88.9321 224.126C89.0021 224.745 89.1698 225.348 89.4291 225.914C89.9026 226.935 90.8232 227.994 92.5731 227.879C92.8672 227.859 93.2084 227.823 93.5378 227.779C96.7406 227.35 100.685 225.92 100.685 225.92C100.48 225.79 100.292 225.635 100.126 225.459C99.9684 225.306 99.8436 225.123 99.7592 224.921C99.6747 224.719 99.6324 224.501 99.6346 224.282C99.6817 223.429 98.0847 219.365 97.6876 218.365C97.6259 218.221 97.5935 218.138 97.5935 218.138C97.5935 218.138 101.235 214.333 100.629 210.959C100.629 210.959 96.5994 208.606 97.9259 207.315C99.2523 206.024 101.623 202.315 101.623 202.315C101.623 202.315 101.732 188.448 101.623 186.378C101.509 184.941 101.577 183.495 101.826 182.075C101.87 181.86 101.923 181.652 101.979 181.446C103.813 181.72 105.665 181.86 107.52 181.866C108.196 181.866 108.884 181.866 109.578 181.825C109.578 182.021 109.587 182.233 109.605 182.46C109.758 185.896 110.043 191.919 110.275 194.157C110.605 197.366 112.425 206.012 112.425 206.012C112.425 206.012 108.952 208.242 113.031 213.736C113.031 213.736 113.031 215.727 112.761 216.015C112.472 216.957 112.239 217.916 112.064 218.885C111.893 219.921 111.822 220.968 112.099 221.512C112.761 222.812 116.731 222.706 116.731 222.706L116.828 222.688C117.578 222.611 118.335 222.683 119.057 222.9C119.778 223.118 120.449 223.477 121.031 223.956C122.54 225.167 128.266 224.635 131.366 224.25C132.58 224.097 133.392 223.956 133.392 223.956C133.432 223.818 133.446 223.675 133.433 223.532C133.401 222.77 132.804 221.1 128.757 219.609C128.757 219.609 124.951 217.05 125.004 214.821H124.925H124.484C124.804 214.803 125.01 214.821 125.01 214.821C125.01 214.821 123.519 209.38 124.128 208.939C124.737 208.498 122.913 202.468 122.913 202.468C122.913 202.468 121.869 192.351 121.813 191.642C121.816 191.034 121.908 190.43 122.087 189.848L121.813 184.301C121.813 184.301 121.76 182.457 121.813 181.857C121.804 181.337 121.762 180.817 121.687 180.302C121.66 180.096 121.634 179.881 121.604 179.669C123.031 179.308 123.957 178.972 123.957 178.972L123.793 159.664C125.004 157.311 125.228 152.15 125.222 148.488C125.222 146.135 125.116 144.394 125.116 144.394L126.772 141.691C126.772 141.691 127.154 138.456 126.548 137.747C126.281 137.427 126.401 137.095 126.622 136.821C126.736 136.73 126.857 136.648 126.984 136.574C126.984 136.574 126.966 136.548 126.945 136.509C127.061 136.413 127.184 136.325 127.313 136.248C127.313 136.248 126.725 135.336 127.251 134.951C127.745 135.286 128.187 135.539 128.522 135.745C128.498 135.959 128.475 136.083 128.475 136.083L128.616 135.789C128.939 135.971 129.137 136.083 129.137 136.083C129.137 136.083 131.731 130.915 131.675 130.154C131.619 129.392 133.439 126.183 133.439 126.183C133.439 126.183 133.66 124.498 134.654 123.792C135.648 123.086 135.425 117.972 135.425 117.972C135.425 117.972 135.701 115.307 136.363 114.219C137.024 113.131 135.76 111.663 135.76 111.663ZM86.1263 109.396L86.1763 110.628C85.8822 110.154 85.6704 109.813 85.6704 109.813L86.1263 109.396Z" fill="url(#paint0_linear_29_306)"/>
<path d="M129.278 133.85L128.642 136.556C128.642 136.556 123.554 133.959 122.637 130.659C121.719 127.36 124.172 126.107 124.172 126.107L128.913 128.115L129.278 133.85Z" fill="white"/>
<path opacity="0.1" d="M129.278 133.85L128.642 136.556C128.642 136.556 123.554 133.959 122.637 130.659C121.719 127.36 124.172 126.107 124.172 126.107L128.913 128.115L129.278 133.85Z" fill="black"/>
<path d="M100.723 225.938C100.723 225.938 96.0171 227.667 92.7819 227.885C91.0643 228 90.1614 226.947 89.6967 225.932C89.4429 225.368 89.2791 224.768 89.2115 224.153L89.632 219.491L89.8556 217.009L96.7288 215.224L97.7023 218.2L97.7935 218.426C98.1847 219.421 99.7523 223.464 99.7052 224.309C99.7033 224.525 99.745 224.739 99.8279 224.939C99.9108 225.138 100.033 225.319 100.188 225.47C100.345 225.648 100.525 225.805 100.723 225.938Z" fill="white"/>
<path d="M132.866 223.567C132.878 223.709 132.864 223.851 132.825 223.988C132.825 223.988 122.76 225.667 120.701 223.988C120.121 223.497 119.444 223.134 118.715 222.92C117.986 222.706 117.22 222.647 116.466 222.747C116.466 222.747 112.572 222.853 111.922 221.57C111.652 221.032 111.722 219.988 111.89 218.959C112.061 217.994 112.289 217.041 112.572 216.103L112.728 215.979L113.655 215.235L124.501 214.915H124.584C124.531 217.132 128.266 219.676 128.266 219.676C132.233 221.147 132.819 222.809 132.866 223.567Z" fill="white"/>
<path opacity="0.1" d="M132.866 223.567C132.876 223.709 132.861 223.852 132.822 223.988C132.822 223.988 122.76 225.667 120.702 223.988C120.121 223.498 119.445 223.134 118.716 222.921C117.988 222.707 117.222 222.648 116.469 222.747C116.469 222.747 112.572 222.853 111.925 221.571C111.655 221.029 111.722 219.988 111.89 218.959C113.39 219.109 115.758 219.482 116.687 220.374C118.093 221.729 120.475 223.082 121.937 223.188C123.081 223.262 129.925 223.479 132.866 223.567Z" fill="black"/>
<path opacity="0.1" d="M100.723 225.938C100.723 225.938 96.0171 227.667 92.7819 227.885C91.0644 228 90.1615 226.947 89.6997 225.929C90.8967 226.332 92.5584 226.756 93.4319 226.367C94.4672 225.908 98.1376 225.611 100.196 225.485C100.353 225.657 100.53 225.809 100.723 225.938Z" fill="black"/>
<path d="M107.705 86.576C103.823 85.0673 98.8288 80.0822 100.076 77.7529C100.353 77.1651 100.517 76.5307 100.561 75.8824C100.641 75.0023 100.653 74.1173 100.596 73.2354C100.509 71.7911 100.335 70.3532 100.076 68.9297C100.076 68.9297 112.196 69.2032 111.49 70.9884C111.284 71.5119 111.252 72.4207 111.308 73.4383C111.364 74.4559 111.511 75.6059 111.664 76.5794C111.875 77.9146 112.087 78.9322 112.087 78.9322C112.087 78.9322 111.346 79.9704 110.911 80.0263C110.475 80.0822 113.275 88.7259 107.705 86.576Z" fill="#CF6F80"/>
<path opacity="0.1" d="M97.7847 218.426L97.6935 218.526C94.0701 214.144 89.6879 219.606 89.6879 219.606L89.6232 219.491L89.8468 217.009L96.72 215.224L97.6935 218.2L97.7847 218.426Z" fill="black"/>
<path opacity="0.1" d="M124.587 215.224C124.587 215.224 121.94 215.168 120.528 216.415C119.116 217.662 112.293 216.685 112.587 216.415C112.674 216.281 112.727 216.127 112.74 215.968L113.666 215.224L124.513 214.903C124.554 215.1 124.587 215.224 124.587 215.224Z" fill="black"/>
<path d="M102.293 180.81C102.096 181.298 101.947 181.803 101.846 182.319C101.601 183.732 101.533 185.171 101.643 186.601C101.752 188.66 101.643 202.456 101.643 202.456C101.643 202.456 99.317 206.136 98.02 207.433C96.723 208.73 100.667 211.059 100.667 211.059C101.255 214.412 97.6906 218.2 97.6906 218.2C94.0672 213.818 89.685 219.282 89.685 219.282C89.685 219.282 87.3027 215.165 86.7086 213.694C86.1145 212.224 89.035 211.206 90.0614 210.609C91.0879 210.012 90.0114 206.492 90.0114 206.492C90.0114 206.492 89.1438 203.406 88.1145 200.592C87.0851 197.777 89.2497 183.766 89.2497 183.766C89.2497 183.766 89.3615 181.278 89.6291 180.41C89.7641 179.784 89.791 179.14 89.7085 178.505C89.6909 178.29 89.6703 178.11 89.6556 177.99C89.6409 177.869 89.6291 177.813 89.6291 177.813L89.6703 177.743L91.1408 175.002C91.1408 175.002 102.999 179.084 102.293 180.81Z" fill="#6C63FF"/>
<path d="M124.587 214.9C124.587 214.9 121.94 214.844 120.528 216.077C119.116 217.309 112.293 216.347 112.587 216.077C112.881 215.806 112.858 213.803 112.858 213.803C108.855 208.339 112.269 206.121 112.269 206.121C112.269 206.121 110.481 197.519 110.158 194.328C109.931 192.098 109.652 186.107 109.502 182.687C109.437 181.216 109.399 180.205 109.399 180.205L112.669 179.546L113.09 179.46L120.978 177.878C120.978 177.878 121.196 179.349 121.343 180.552C121.416 181.065 121.457 181.583 121.466 182.102C121.413 182.69 121.466 184.531 121.466 184.531L121.734 190.051C121.559 190.63 121.469 191.232 121.466 191.836C121.519 192.539 122.546 202.604 122.546 202.604C122.546 202.604 124.331 208.609 123.722 209.042C123.113 209.474 124.587 214.9 124.587 214.9Z" fill="#6C63FF"/>
<path opacity="0.1" d="M111.49 70.9884C111.284 71.5119 111.252 72.4207 111.308 73.4383C109.684 74.4159 107.818 74.9158 105.923 74.8804C104.029 74.845 102.182 74.2759 100.596 73.2383C100.509 71.793 100.335 70.3542 100.076 68.9297C100.076 68.9297 112.196 69.1973 111.49 70.9884Z" fill="black"/>
<path d="M116.175 64.4885C116.178 65.5483 116.011 66.6018 115.681 67.609C114.944 69.8659 113.433 71.7896 111.415 73.0402C109.397 74.2907 107.002 74.7877 104.653 74.4431C102.304 74.0985 100.153 72.9347 98.5787 71.1572C97.0048 69.3797 96.11 67.1031 96.0524 64.7297C96.0524 64.6474 96.0524 64.5709 96.0524 64.4885C96.0295 63.1526 96.2729 61.8255 96.7684 60.5846C97.2639 59.3437 98.0014 58.2139 98.9381 57.261C99.8748 56.3082 100.992 55.5514 102.224 55.0348C103.456 54.5182 104.779 54.2522 106.115 54.2522C107.451 54.2522 108.774 54.5182 110.006 55.0348C111.239 55.5514 112.356 56.3082 113.292 57.261C114.229 58.2139 114.967 59.3437 115.462 60.5846C115.958 61.8255 116.201 63.1526 116.178 64.4885H116.175Z" fill="#CF6F80"/>
<path opacity="0.1" d="M107.705 86.576C103.823 85.0672 98.8288 80.0822 100.076 77.7528C100.353 77.165 100.517 76.5306 100.561 75.8823L105.876 80.2498L109.164 82.9467L111.664 76.5823C111.875 77.9175 112.087 78.9351 112.087 78.9351C112.087 78.9351 111.346 79.9733 110.911 80.0292C110.475 80.0851 113.275 88.7259 107.705 86.576Z" fill="black"/>
<path d="M121.449 105.878L117.01 180.434L111.222 180.813L96.2347 137.583L98.6935 86.2582L99.2111 75.4146L105.876 80.8879L109.167 83.5848L111.74 77.0351L116.525 81.2055L121.449 105.878Z" fill="#6C63FF"/>
<path opacity="0.1" d="M102.293 180.81C102.096 181.298 101.947 181.803 101.846 182.319C97.6347 181.669 93.5443 180.391 89.7115 178.528L89.632 178.487L89.6585 178.014L89.6732 177.766L91.1438 175.025C91.1438 175.025 102.999 179.084 102.293 180.81Z" fill="black"/>
<path opacity="0.1" d="M112.737 182.331C111.66 182.514 110.575 182.638 109.484 182.701C109.42 181.231 109.381 180.219 109.381 180.219L112.652 179.56L112.737 182.331Z" fill="black"/>
<path opacity="0.1" d="M121.325 180.566C119.234 181.11 116.005 181.722 113.114 181.34L113.072 179.475L120.96 177.893C120.96 177.893 121.178 179.349 121.325 180.566Z" fill="black"/>
<path opacity="0.1" d="M113.061 181.681C101.002 183.74 89.9585 177.837 89.9585 177.837L90.0644 175.837C90.0644 175.837 90.3379 153.164 89.5791 151.426C88.8203 149.688 88.2292 140.874 88.6586 139.521C89.0879 138.168 87.091 117.88 87.091 117.88L86.7674 109.645L74.9267 104.849L80.2206 93.8137C80.9357 92.2666 81.5506 90.6752 82.0617 89.0492C82.9823 86.1846 87.2557 83.37 87.2557 83.37C87.2557 83.37 91.6379 80.5584 93.3701 80.6643C95.1024 80.7701 97.3729 78.1761 97.3729 78.1761C99.0494 73.9028 100.567 75.838 100.567 75.838C100.567 76.0409 100.567 75.838 100.485 76.4703C99.8964 81.1613 109.996 95.9842 110.14 96.246L111.102 119.674L112.075 149.323L113.061 181.681Z" fill="black"/>
<path d="M112.737 181.681C100.679 183.74 89.632 177.837 89.632 177.837L89.7409 175.837C89.7409 175.837 90.0144 153.164 89.2526 151.426C88.4909 149.688 87.9027 140.874 88.335 139.521C88.7674 138.168 86.7675 117.88 86.7675 117.88L86.441 109.646L74.5944 104.831L79.8883 93.7962C80.6018 92.2484 81.2167 90.657 81.7294 89.0316C82.647 86.1671 86.9233 83.3525 86.9233 83.3525C86.9233 83.3525 91.3055 80.5408 93.0349 80.6467C94.7642 80.7526 97.0377 78.1586 97.0377 78.1586C98.717 73.8852 100.567 75.8204 100.567 75.8204C100.567 76.0233 100.39 76.1145 100.485 76.4527C101.779 81.0026 109.672 95.9667 109.817 96.2284L110.79 119.657L111.764 149.306L112.737 181.681Z" fill="white"/>
<path opacity="0.1" d="M109.487 96.8962C108.19 96.355 101.32 88.5112 101.32 88.5112V86.726C101.07 86.1378 99.5846 86.4966 98.3788 86.9084L98.8964 76.0647L99.4846 76.5529C100.773 81.0998 109.337 96.6344 109.487 96.8962Z" fill="black"/>
<path d="M109.814 96.2461C108.514 95.7049 101.643 87.8611 101.643 87.8611V86.0759C101.393 85.4877 99.9081 85.8465 98.7023 86.2582L99.2229 75.4146L99.8111 75.9028C101.102 80.4496 109.67 95.9873 109.814 96.2461Z" fill="white"/>
<path opacity="0.1" d="M89.9585 135.365C90.1203 135.365 98.3435 134.5 98.3435 134.5C98.3435 134.5 103.323 144.291 102.996 146.674C102.67 149.056 102.079 151.165 100.076 150.791C98.0729 150.417 89.2968 151.085 89.2968 151.085L89.9585 135.365Z" fill="black"/>
<path d="M89.632 134.715C89.7938 134.715 98.017 133.851 98.017 133.851C98.017 133.851 102.993 143.644 102.67 146.024C102.346 148.403 101.749 150.515 99.7493 150.141C97.7494 149.768 88.9703 150.435 88.9703 150.435L89.632 134.715Z" fill="white"/>
<path d="M95.8289 130.118C95.8289 130.118 103.376 134.174 103.537 135.412C103.699 136.65 99.6964 134.871 98.8317 134.656C98.2626 134.519 97.6833 134.429 97.0994 134.386L91.332 134.542L95.8289 130.118Z" fill="#CF6F80"/>
<path opacity="0.1" d="M107.381 97.4019C107.82 97.4019 108.175 97.0464 108.175 96.6078C108.175 96.1692 107.82 95.8137 107.381 95.8137C106.943 95.8137 106.587 96.1692 106.587 96.6078C106.587 97.0464 106.943 97.4019 107.381 97.4019Z" fill="black"/>
<path d="M107.381 97.0784C107.82 97.0784 108.175 96.7229 108.175 96.2843C108.175 95.8458 107.82 95.4902 107.381 95.4902C106.943 95.4902 106.587 95.8458 106.587 96.2843C106.587 96.7229 106.943 97.0784 107.381 97.0784Z" fill="#3F3D56"/>
<path opacity="0.1" d="M108.843 131.777C109.282 131.777 109.637 131.422 109.637 130.983C109.637 130.544 109.282 130.189 108.843 130.189C108.405 130.189 108.049 130.544 108.049 130.983C108.049 131.422 108.405 131.777 108.843 131.777Z" fill="black"/>
<path d="M108.843 131.45C109.282 131.45 109.637 131.095 109.637 130.656C109.637 130.218 109.282 129.862 108.843 129.862C108.405 129.862 108.049 130.218 108.049 130.656C108.049 131.095 108.405 131.45 108.843 131.45Z" fill="#3F3D56"/>
<path opacity="0.1" d="M108.173 114.589C108.611 114.589 108.967 114.234 108.967 113.795C108.967 113.357 108.611 113.001 108.173 113.001C107.734 113.001 107.378 113.357 107.378 113.795C107.378 114.234 107.734 114.589 108.173 114.589Z" fill="black"/>
<path d="M108.173 114.266C108.611 114.266 108.967 113.91 108.967 113.472C108.967 113.033 108.611 112.678 108.173 112.678C107.734 112.678 107.378 113.033 107.378 113.472C107.378 113.91 107.734 114.266 108.173 114.266Z" fill="#3F3D56"/>
<path d="M126.478 134.221C126.478 134.221 127.019 135.033 126.478 135.412C125.937 135.792 126.531 136.709 126.531 136.709C126.531 136.709 125.181 137.5 125.775 138.212C126.369 138.924 125.992 142.138 125.992 142.138L124.369 144.826C124.369 144.826 124.466 146.559 124.472 148.9C124.472 152.553 124.257 157.688 123.069 160.029L123.234 179.237C123.234 179.237 117.549 181.313 112.79 180.681L112.084 149.859C112.084 149.859 113.114 132.38 113.493 129.027C113.715 127.286 113.805 125.532 113.764 123.777C113.764 123.777 113.602 118.53 113.058 116.095C113.058 116.095 112.469 105.546 112.411 102.625C112.384 101.228 112.458 97.1519 112.54 93.2756C112.631 89.0375 112.734 85.0406 112.734 85.0406L111.661 76.5469C111.661 76.5469 112.734 76.4381 113.058 76.8704C113.203 77.0058 113.36 77.1269 113.528 77.2321C115.381 78.485 121.928 82.3378 121.928 82.3378C121.928 82.3378 125.551 83.7789 126.419 85.8436C127.287 87.9082 127.889 89.3728 128.31 89.961C128.731 90.5492 128.96 93.3138 128.96 93.3138C128.96 93.3138 130.207 98.4019 131.181 99.2636C132.154 100.125 132.866 105.607 132.866 105.607L124.263 112.372C124.263 112.372 123.507 123.624 123.346 124.06C123.184 124.495 126.478 134.221 126.478 134.221Z" fill="white"/>
<path d="M126.804 134.221C126.804 134.221 127.342 135.033 126.804 135.412C126.266 135.791 126.854 136.709 126.854 136.709C126.854 136.709 125.513 137.509 126.101 138.221C126.69 138.933 126.319 142.147 126.319 142.147L124.695 144.835C124.695 144.835 124.793 146.567 124.801 148.909C124.801 152.561 124.587 157.696 123.398 160.038L123.56 179.246C123.56 179.246 117.866 181.322 113.114 180.69L112.411 149.867C112.411 149.867 113.44 132.389 113.819 129.036C114.042 127.295 114.131 125.54 114.087 123.786C114.087 123.786 113.925 118.539 113.384 116.104C113.384 116.104 112.796 105.554 112.734 102.634C112.708 101.237 112.784 97.1607 112.864 93.2844C112.955 89.0463 113.058 85.0494 113.058 85.0494L111.64 76.4409C111.64 76.4409 113.058 76.4409 113.384 76.8791C113.528 77.0161 113.685 77.1374 113.855 77.2409C115.708 78.4938 122.257 82.3466 122.257 82.3466C122.257 82.3466 125.878 83.7877 126.745 85.8523C127.613 87.9169 128.216 89.3816 128.639 89.9698C129.063 90.558 129.286 93.3226 129.286 93.3226C129.286 93.3226 130.533 98.4106 131.507 99.2724C132.48 100.134 133.183 105.604 133.183 105.604L124.581 112.369C124.581 112.369 123.825 123.621 123.66 124.057C123.496 124.492 126.804 134.221 126.804 134.221Z" fill="white"/>
<path opacity="0.1" d="M116.502 87.5465L117.278 89.8112L113.19 93.9286C113.281 89.6935 113.384 85.6937 113.384 85.6937L111.967 77.0852C111.967 77.0852 113.384 77.0852 113.711 77.5234C113.854 77.66 114.012 77.7803 114.181 77.8822L117.657 87.9112L116.502 87.5465Z" fill="black"/>
<path d="M116.175 86.8964L116.955 89.161L112.866 93.2785C112.958 89.0404 113.061 85.0435 113.061 85.0435L111.64 76.4351C111.64 76.4351 113.061 76.4351 113.384 76.8733C113.528 77.0094 113.686 77.1306 113.855 77.235L117.334 87.2611L116.175 86.8964Z" fill="white"/>
<path opacity="0.1" d="M116.175 64.4885C116.178 65.5483 116.011 66.6018 115.681 67.609C115.626 67.6177 115.569 67.6151 115.514 67.6015C115.46 67.5878 115.408 67.5634 115.363 67.5296C115.287 64.8826 113.984 62.3974 112.381 60.2828C111.931 59.6444 111.386 59.0789 110.764 58.6064C110.135 58.1341 109.353 57.9129 108.57 57.9859C107.687 58.1064 106.908 58.7064 106.017 58.7829C104.84 58.8799 103.787 58.0653 102.62 58.0241C102.145 58.0286 101.677 58.1343 101.246 58.3341C100.816 58.5339 100.433 58.8233 100.123 59.1829C99.5094 59.9085 99.0537 60.7538 98.7846 61.6651C98.3222 63.0469 98.0704 64.4905 98.0376 65.9473C98.0229 66.7708 97.9435 67.8031 97.1788 68.1031C97.2364 67.4975 97.1675 66.8865 96.9767 66.3088C96.7858 65.7312 96.4771 65.1995 96.07 64.7473L96.0524 64.7297C96.0524 64.6474 96.0524 64.5709 96.0524 64.4885C96.0295 63.1526 96.2729 61.8255 96.7684 60.5846C97.2639 59.3437 98.0014 58.2139 98.9381 57.261C99.8748 56.3082 100.992 55.5514 102.224 55.0348C103.456 54.5182 104.779 54.2522 106.115 54.2522C107.451 54.2522 108.774 54.5182 110.006 55.0348C111.239 55.5514 112.356 56.3082 113.292 57.261C114.229 58.2139 114.967 59.3437 115.462 60.5846C115.958 61.8255 116.201 63.1526 116.178 64.4885H116.175Z" fill="black"/>
<path d="M110.281 48.5099C108.753 47.791 107.015 47.655 105.393 48.1276C104.579 48.3687 103.811 48.7599 102.984 48.9569C101.22 49.3834 99.1611 48.9216 97.6465 49.9539C96.8053 50.5422 96.2994 51.4715 95.8289 52.3744L94.6524 54.6155C94.0113 55.8419 93.3643 57.089 93.0966 58.4389C92.829 59.7888 92.9907 61.3005 93.8466 62.3858C94.4701 63.1769 95.3907 63.674 96.0671 64.4181C96.4723 64.8707 96.7797 65.4021 96.97 65.979C97.1603 66.556 97.2294 67.166 97.1729 67.7709C97.9406 67.4768 98.0141 66.4415 98.0317 65.618C98.0645 64.1612 98.3163 62.7177 98.7788 61.3358C99.0472 60.4243 99.503 59.5788 100.117 58.8536C100.427 58.4943 100.81 58.2051 101.241 58.0054C101.671 57.8056 102.139 57.6997 102.614 57.6948C103.79 57.736 104.846 58.5477 106.011 58.4507C106.893 58.3771 107.675 57.7742 108.564 57.6566C109.347 57.5825 110.129 57.8038 110.758 58.2771C111.38 58.7489 111.924 59.3145 112.372 59.9535C113.978 62.0682 115.281 64.5475 115.358 67.2003C115.69 67.4444 116.169 67.1268 116.334 66.7503C116.499 66.3739 116.505 65.9327 116.713 65.5739C116.955 65.1592 117.416 64.9386 117.778 64.6269C118.696 63.8357 118.925 62.5034 118.89 61.2947C118.855 60.0859 118.619 58.8595 118.849 57.6713C118.987 56.9419 119.299 56.2596 119.469 55.539C119.64 54.8185 119.66 54.0097 119.257 53.3891C118.669 52.4774 117.431 52.298 116.352 52.2127C115.125 52.1068 114.028 52.2421 113.246 51.2098C112.879 50.6711 112.465 50.1653 112.011 49.6981C111.855 49.5451 110.281 48.5746 110.281 48.5099Z" fill="#512E4E"/>
<path opacity="0.1" d="M78.3148 110.531L75.2414 104.849L74.2679 113.616C74.2679 113.616 74.8091 117.51 74.7002 118.107C74.5914 118.704 76.9178 124.057 76.9178 124.057C76.9178 124.057 84.6028 137.744 87.7409 138.45L98.3435 130.874L95.5318 127.304C95.5318 127.304 94.5583 126.924 94.3142 127.304C94.3142 127.304 89.0938 118.322 88.5527 117.672C88.0115 117.022 88.1174 115.725 88.1174 115.725C88.1174 115.725 87.3057 114.86 87.5762 114.048C87.8468 113.237 86.0086 110.422 86.0086 110.422L87.6851 108.854L78.3148 110.531Z" fill="black"/>
<path d="M75.4032 104.202L74.5914 104.849L73.6179 113.616C73.6179 113.616 74.1591 117.51 74.0503 118.107C73.9414 118.704 76.2708 124.057 76.2708 124.057C76.2708 124.057 83.9528 137.744 87.091 138.45L97.6965 130.874L94.8819 127.304C94.8819 127.304 93.9084 126.924 93.6643 127.304C93.6643 127.304 88.4439 118.322 87.9027 117.672C87.3615 117.022 87.4704 115.725 87.4704 115.725C87.4704 115.725 86.6586 114.86 86.9292 114.048C87.1998 113.237 85.3587 110.422 85.3587 110.422L87.0351 108.854L75.4032 104.202Z" fill="white"/>
<path opacity="0.1" d="M125.775 138.547C126.363 139.262 125.992 142.471 125.992 142.471L124.369 145.159C124.369 145.159 124.466 146.894 124.472 149.232L121.743 150.085C121.496 150.162 121.234 150.179 120.98 150.135C120.725 150.09 120.485 149.985 120.279 149.829C120.074 149.673 119.908 149.469 119.797 149.236C119.686 149.003 119.632 148.746 119.64 148.488L120.11 133.309L126.478 135.745C125.937 136.121 126.531 137.044 126.531 137.044C126.531 137.044 125.181 137.833 125.775 138.547Z" fill="black"/>
<path d="M126.101 138.221C126.69 138.936 126.319 142.147 126.319 142.147L124.695 144.835C124.695 144.835 124.793 146.568 124.801 148.909L122.022 149.776C121.78 149.851 121.524 149.868 121.275 149.824C121.026 149.78 120.791 149.677 120.59 149.524C120.388 149.371 120.226 149.172 120.117 148.944C120.009 148.716 119.956 148.465 119.963 148.212L120.437 132.986L126.807 135.421C126.263 135.797 126.857 136.718 126.857 136.718C126.857 136.718 125.513 137.509 126.101 138.221Z" fill="white"/>
<path d="M128.21 130.986C128.21 130.986 127.778 133.748 126.695 133.909C125.613 134.071 125.128 138.377 124.048 138.224C122.969 138.071 123.684 134.221 123.722 133.474C123.76 132.727 122.546 129.633 123.454 128.93C124.363 128.227 127.24 128.93 127.24 128.93L128.21 130.986Z" fill="#CF6F80"/>
<path opacity="0.1" d="M130.513 109.719L132.554 105.602C132.554 105.602 133.366 108.74 133.366 110.416C133.366 112.092 134.501 112.257 134.501 112.257C134.501 112.257 135.745 113.728 135.089 114.798C134.433 115.869 134.169 118.533 134.169 118.533C134.169 118.533 134.383 123.618 133.41 124.321C132.436 125.024 132.233 126.704 132.233 126.704C132.233 126.704 130.445 129.895 130.501 130.653C130.557 131.412 128.013 136.55 128.013 136.55C128.013 136.55 129.257 130.165 122.007 127.407C122.007 127.407 121.951 125.239 122.493 124.645C123.034 124.051 123.878 123.78 123.348 120.777C122.819 117.775 123.196 114.187 123.196 113.466C123.196 112.745 124.819 108.251 124.819 108.251L130.513 109.719Z" fill="black"/>
<path d="M131.395 105.013L133.178 105.602C133.178 105.602 133.992 108.74 133.992 110.416C133.992 112.093 135.127 112.257 135.127 112.257C135.127 112.257 136.372 113.728 135.716 114.798C135.06 115.869 134.798 118.533 134.798 118.533C134.798 118.533 135.013 123.619 134.039 124.321C133.066 125.024 132.848 126.704 132.848 126.704C132.848 126.704 131.063 129.895 131.119 130.654C131.175 131.412 128.628 136.55 128.628 136.55C128.628 136.55 129.875 130.165 122.622 127.407C122.622 127.407 122.569 125.239 123.11 124.645C123.651 124.051 124.495 123.78 123.966 120.777C123.437 117.775 123.813 114.187 123.813 113.466C123.813 112.745 125.437 108.252 125.437 108.252L131.395 105.013Z" fill="white"/>
<path opacity="0.1" d="M92.029 211.735C92.029 211.735 94.8701 209.95 96.7347 211.247C98.5994 212.544 92.029 211.735 92.029 211.735Z" fill="black"/>
<path opacity="0.1" d="M114.105 206.215C114.105 206.215 116.619 205.892 118.731 208.165C120.843 210.438 114.105 206.215 114.105 206.215Z" fill="black"/>
<g opacity="0.1">
<path d="M117.784 63.9828C117.422 64.2946 116.958 64.5181 116.716 64.9328C116.51 65.2886 116.505 65.7269 116.34 66.1092C116.175 66.4915 115.696 66.8033 115.363 66.5621C115.287 63.9152 113.981 61.43 112.378 59.3124C111.93 58.6734 111.385 58.1078 110.764 57.636C110.134 57.1628 109.351 56.9415 108.567 57.0155C107.684 57.136 106.908 57.736 106.017 57.8095C104.84 57.9095 103.784 57.0949 102.617 57.0537C102.142 57.0584 101.674 57.1645 101.244 57.3649C100.814 57.5652 100.432 57.8552 100.123 58.2154C99.5089 58.9396 99.0531 59.7841 98.7847 60.6947C98.3225 62.0766 98.0707 63.5201 98.0376 64.9769C98.02 65.7975 97.9435 66.8209 97.1847 67.1268C97.2024 67.3441 97.2024 67.5624 97.1847 67.7797C97.9494 67.4856 98.0259 66.4504 98.0435 65.6269C98.0763 64.1701 98.3281 62.7265 98.7906 61.3447C99.059 60.4331 99.5148 59.5877 100.129 58.8624C100.438 58.5032 100.821 58.2141 101.251 58.0143C101.681 57.8145 102.149 57.7086 102.623 57.7037C103.799 57.7448 104.858 58.5566 106.023 58.4595C106.905 58.386 107.687 57.7831 108.573 57.6654C109.357 57.5914 110.14 57.8127 110.77 58.286C111.391 58.7578 111.936 59.3233 112.384 59.9624C113.987 62.077 115.293 64.5563 115.369 67.2092C115.702 67.4533 116.181 67.1356 116.346 66.7592C116.51 66.3827 116.516 65.9416 116.722 65.5828C116.963 65.1681 117.428 64.9475 117.79 64.6357C118.707 63.8446 118.937 62.5123 118.902 61.3035C118.902 61.2653 118.902 61.227 118.902 61.1918C118.846 62.2388 118.566 63.3064 117.784 63.9828Z" fill="black"/>
<path d="M96.073 63.774C95.3966 63.0299 94.4731 62.5329 93.8525 61.7447C93.33 61.0469 93.0315 60.207 92.9966 59.3359C92.9041 60.4244 93.208 61.5096 93.8525 62.3917C94.4731 63.1828 95.3966 63.6799 96.073 64.424C96.7225 65.1518 97.1124 66.0744 97.1818 67.0474C97.2268 66.4552 97.1518 65.8601 96.9613 65.2976C96.7708 64.7351 96.4686 64.2169 96.073 63.774Z" fill="black"/>
<path d="M119.475 54.8948C119.302 55.6154 118.993 56.3007 118.852 57.0271C118.768 57.5125 118.737 58.0056 118.76 58.4976C118.77 58.2173 118.801 57.9382 118.852 57.6624C118.993 56.933 119.302 56.2507 119.475 55.5301C119.576 55.1327 119.609 54.7209 119.572 54.3125C119.554 54.5087 119.521 54.7033 119.475 54.8948Z" fill="black"/>
</g>
<path opacity="0.1" d="M39.0368 223.694C54.8641 223.694 67.6946 221.633 67.6946 219.091C67.6946 216.549 54.8641 214.488 39.0368 214.488C23.2096 214.488 10.379 216.549 10.379 219.091C10.379 221.633 23.2096 223.694 39.0368 223.694Z" fill="#6C63FF"/>
<path d="M39.9603 130.918H38.1163V172.437H39.9603V130.918Z" fill="#535461"/>
<path d="M51.5481 172.311L51.4334 174.181L51.2687 176.828L51.2011 177.928L51.0393 180.575L50.9687 181.675L50.804 184.322L48.9453 214.341C48.8645 215.633 48.2946 216.845 47.3515 217.731C46.4084 218.618 45.1631 219.111 43.869 219.112H34.2046C32.9108 219.111 31.6658 218.618 30.7232 217.731C29.7807 216.845 29.2114 215.633 29.1313 214.341L27.2814 184.301L27.1167 181.654L27.049 180.554L26.8843 177.908L26.8167 176.808L26.652 174.161L26.5343 172.29C26.5139 171.93 26.5672 171.57 26.6911 171.231C26.8149 170.892 27.0066 170.583 27.2545 170.321C27.5024 170.059 27.8011 169.85 28.1325 169.708C28.4638 169.566 28.8207 169.493 29.1813 169.493H48.9482C49.3075 169.496 49.6622 169.573 49.9907 169.718C50.3191 169.864 50.6143 170.075 50.8579 170.339C51.1015 170.603 51.2885 170.914 51.4072 171.254C51.5259 171.593 51.5739 171.952 51.5481 172.311Z" fill="#3F3D56"/>
<path d="M51.4334 174.181L51.2687 176.819H26.8049L26.6402 174.181H51.4334Z" fill="#9D9CB5"/>
<path d="M51.2011 177.919L51.0393 180.56H27.0372L26.8725 177.919H51.2011Z" fill="#9D9CB5"/>
<path d="M50.9687 181.663L50.807 184.301H27.2696L27.1049 181.663H50.9687Z" fill="#9D9CB5"/>
<path d="M23.8256 146.479C34.5635 154.25 39.0457 166.402 39.0457 166.402C39.0457 166.402 26.105 165.958 15.3642 158.188C4.62338 150.418 0.150009 138.268 0.150009 138.268C0.150009 138.268 13.0848 138.709 23.8256 146.479Z" fill="#6C63FF"/>
<path d="M0.141159 138.268C0.141159 138.268 13.576 145.724 17.8846 151.897C22.1933 158.07 39.0456 166.402 39.0456 166.402" stroke="#535461" stroke-width="0.700105" stroke-miterlimit="10"/>
<path d="M30.7577 130.827C36.6016 135.053 39.0456 141.668 39.0456 141.668C39.0456 141.668 32.0018 141.427 26.1549 137.2C20.3081 132.974 17.8699 126.357 17.8699 126.357C17.8699 126.357 24.9109 126.598 30.7577 130.827Z" fill="#6C63FF"/>
<path d="M17.8699 126.357C17.8699 126.357 25.1814 130.415 27.5255 133.774C29.8695 137.133 39.0456 141.668 39.0456 141.668" stroke="#535461" stroke-width="0.700105" stroke-miterlimit="10"/>
<path d="M47.5306 141.332C40.8162 148.712 39.3956 158.355 39.3956 158.355C39.3956 158.355 48.8629 156.032 55.5715 148.65C62.2801 141.268 63.7065 131.627 63.7065 131.627C63.7065 131.627 54.2451 133.953 47.5306 141.332Z" fill="#6C63FF"/>
<path d="M63.7124 131.63C63.7124 131.63 54.9657 139.194 52.7422 144.406C50.5188 149.617 39.3956 158.355 39.3956 158.355" stroke="#535461" stroke-width="0.700105" stroke-miterlimit="10"/>
<path d="M294.01 138.736C294.01 138.736 289.154 114.578 291.013 111.572C291.013 111.572 291.081 108.778 290.969 105.216C290.969 105.081 290.969 104.946 290.969 104.807C291.296 105.026 291.637 105.222 291.989 105.396C293.702 106.276 295.668 106.529 297.548 106.113L296.077 104.475C295.725 104.084 295.357 103.66 295.28 103.143C295.204 102.625 295.416 102.163 295.598 101.702C296.995 98.1724 297.069 93.7344 294.378 91.0404C292.104 88.7758 291.551 85.8524 289.084 83.7848C287.281 82.2702 286.29 80.0497 285.354 77.9027C284.563 76.0881 283.766 74.2587 283.313 72.3353C282.96 70.8324 282.819 69.2766 282.334 67.809C281.849 66.3414 280.94 64.915 279.519 64.2591C279.013 64.0268 278.452 63.8944 277.99 63.5856C277.384 63.1768 277.019 62.5121 276.581 61.9298C274.355 58.9887 266.899 60.721 263.37 61.9151C262.41 62.2158 261.522 62.7081 260.758 63.3621L260.791 63.3092C260.817 63.265 260.849 63.2209 260.879 63.1768C260.492 63.4892 260.159 63.8616 259.891 64.2797C259.376 65.0944 259.161 66.0443 258.732 66.9267C258.214 67.9707 255.335 70.8853 256.573 72.0588C256.66 72.1376 256.759 72.2012 256.867 72.247C257.332 72.4405 257.844 72.4917 258.338 72.3941L258.285 72.5205C257.862 73.5559 257.645 74.6638 257.647 75.7822C257.647 80.6143 261.632 84.5318 266.552 84.5318C267.477 84.5327 268.397 84.3909 269.278 84.1113C269.299 84.223 269.317 84.3348 269.337 84.4465C269.337 84.4907 269.352 84.5348 269.358 84.5789L269.202 84.7965C269.194 84.7831 269.185 84.7703 269.176 84.7583L264.558 91.211C263.852 91.708 259.788 94.6491 259.558 96.8549C259.317 99.2695 259.076 102.096 259.076 102.096L259.044 102.702C258.842 102.87 258.606 102.993 258.352 103.062C258.098 103.13 257.832 103.143 257.573 103.099C256.132 102.863 256.132 108.393 256.132 108.393C256.132 108.393 255.173 109.275 254.514 108.51C253.855 107.746 252.114 110.337 252.114 110.337L241.203 110.807L240.953 110.822L240.365 109.001C240.301 108.809 240.165 108.65 239.985 108.558C239.805 108.466 239.596 108.449 239.403 108.51C239.358 108.525 239.313 108.544 239.271 108.566L239.23 108.59L239.153 108.643L239.115 108.678C239.094 108.697 239.074 108.718 239.056 108.74L239.021 108.781L239.003 108.798C238.935 108.892 238.89 109.001 238.872 109.115C238.853 109.23 238.862 109.347 238.897 109.457L239.403 111.019C237.297 111.442 235.144 112.637 236.9 115.925L228.001 114.281L230.88 116.698L245.744 119.766C245.547 120.119 245.676 120.63 246.291 121.351C248.938 124.46 253.761 125.304 255.702 125.521C256.215 126.668 256.855 127.753 257.611 128.757L257.444 131.853C257.444 131.853 252.529 155.458 251.629 156.655C252.083 156.141 252.499 155.593 252.873 155.017C251.447 159.867 249.453 166.505 248.929 167.499C248.088 169.087 247.309 175.513 248.267 175.925C248.562 176.052 249.403 175.99 250.603 175.899V176.431L250.55 196.604C250.55 196.604 250.791 208.977 250.129 210.156C249.467 211.336 249.291 213.809 249.291 213.809C249.291 213.809 246.644 218.688 244.547 220.65C244.533 220.665 244.517 220.679 244.5 220.691L244.435 220.232C244.435 220.232 241.915 223.414 236.338 223.235C236.338 223.235 232.983 225.417 237.959 225.535C242.935 225.653 249.291 225.358 249.291 225.358C249.291 225.358 253.729 218.594 257.447 219.476V224.603H258.585V219.394C259.113 219.047 259.564 218.595 259.913 218.068C260.261 217.541 260.499 216.948 260.611 216.326C260.709 215.686 260.637 215.03 260.404 214.425C260.171 213.82 259.784 213.286 259.282 212.877C259.056 212.673 258.875 212.424 258.75 212.147C258.625 211.869 258.559 211.569 258.555 211.265L258.514 211.3C258.514 211.197 258.488 211.091 258.476 210.983C258.149 208.336 257.741 202.874 259.185 198.833C261.164 193.292 261.764 185.575 260.323 180.981C259.858 179.512 259.476 178.019 259.179 176.508C259.144 176.316 259.111 176.134 259.082 175.963C260.067 176.097 261.042 176.293 262.002 176.552C265.34 177.472 272.643 177.643 278.878 177.593C278.893 177.763 278.91 177.943 278.931 178.122C279.042 179.369 279.275 180.602 279.625 181.804C280.407 184.157 280.766 194.53 280.766 194.53C280.766 194.53 281.775 203.059 281.225 206.53C280.931 208.459 280.637 210.397 280.469 212.344V212.383C280.469 212.383 278.816 217.088 277.608 219.644C277.578 219.709 277.546 219.773 277.516 219.835C277.194 219.865 276.877 219.935 276.572 220.044C276.572 220.044 274.952 223.279 273.337 223.814C271.722 224.35 272.258 226.111 275.914 225.464C279.569 224.817 285.09 224.288 285.09 224.288L285.328 220.988L286.451 219.582L286.157 222.873L287.354 222.638L287.195 218.635L289.034 216.335C289.034 216.335 291.254 214.359 287.954 210.471V210.556C287.919 210.5 287.887 210.441 287.848 210.386V210.368C287.301 209.521 286.866 207.942 287.663 205.139C289.104 200.074 289.942 195.477 289.942 195.477C289.942 195.477 293.16 183.163 289.292 177.337H289.463C289.067 176.517 288.787 175.646 288.631 174.749C288.611 174.643 288.593 174.534 288.578 174.422C291.439 174.258 294.248 173.74 296.539 172.622C296.53 172.611 295.151 143.388 294.01 138.736ZM257.679 118.354V118.413L257.091 118.442L257.679 118.354ZM255.661 118.633C255.565 118.655 255.474 118.698 255.397 118.76C255.144 119.118 254.985 119.533 254.935 119.969L254.017 119.763C254.017 119.763 253.373 119.625 252.447 119.469L252.008 119.027C253.214 118.927 254.467 118.78 255.661 118.633Z" fill="url(#paint1_linear_29_306)"/>
<path d="M286.022 218.676L285.672 222.844L286.845 222.609L286.669 218.088L286.022 218.676Z" fill="#1D2366"/>
<path d="M259.249 198.889C257.835 202.918 258.235 208.356 258.552 210.997C258.67 211.974 258.779 212.568 258.779 212.568C258.779 212.568 256.664 217.385 256.488 217.568C256.311 217.75 250.264 221.441 250.264 221.441L246.038 223.909C246.038 223.909 241.75 222.029 243.806 221.382C244.226 221.214 244.604 220.956 244.915 220.626C246.973 218.67 249.559 213.809 249.559 213.809C249.559 213.809 249.735 211.341 250.382 210.168C251.029 208.994 250.794 196.663 250.794 196.663L250.844 176.56V173.94L258.888 173.999C258.938 174.888 259.054 175.773 259.235 176.646C259.523 178.152 259.898 179.641 260.355 181.104C261.773 185.689 261.185 193.369 259.249 198.889Z" fill="#FFB0B1"/>
<path opacity="0.1" d="M258.779 212.568C258.779 212.568 256.664 217.385 256.488 217.568C256.311 217.75 250.264 221.441 250.264 221.441L246.038 223.909C246.038 223.909 241.75 222.029 243.806 221.382C244.226 221.214 244.604 220.956 244.915 220.626L245.097 221.912L246.506 221.853L258.564 211.003C258.67 211.974 258.779 212.568 258.779 212.568Z" fill="black"/>
<path d="M258.632 211.277L246.506 222.2L245.097 222.259L244.803 220.2C244.803 220.2 242.338 223.37 236.862 223.194C236.862 223.194 233.574 225.367 238.447 225.485C243.321 225.603 249.544 225.309 249.544 225.309C249.544 225.309 253.891 218.544 257.529 219.427V224.535H258.646V219.379C259.166 219.03 259.61 218.578 259.95 218.053C260.291 217.527 260.522 216.938 260.629 216.321C260.726 215.685 260.657 215.035 260.43 214.433C260.203 213.832 259.825 213.299 259.332 212.886C259.112 212.679 258.936 212.43 258.816 212.154C258.695 211.877 258.633 211.579 258.632 211.277Z" fill="#1D2366"/>
<path d="M287.14 205.171C286.357 207.965 286.784 209.539 287.319 210.383V210.4C288.006 211.443 288.483 212.608 288.725 213.833L288.772 214.097L283.254 222.141L280.26 223.317C280.26 223.317 275.446 221.673 276.325 221.203C276.546 221.088 276.89 220.476 277.284 219.632C278.46 217.088 280.084 212.394 280.084 212.394V212.356C280.255 210.418 280.525 208.486 280.825 206.562C281.363 203.101 280.375 194.604 280.375 194.604C280.375 194.604 280.022 184.272 279.257 181.922C278.912 180.727 278.683 179.502 278.572 178.263C278.413 176.793 278.378 175.581 278.378 175.581C278.378 175.581 281.549 171.17 287.36 175.934C287.825 176.314 288.234 176.758 288.575 177.252C292.589 182.963 289.357 195.545 289.357 195.545C289.357 195.545 288.548 200.121 287.14 205.171Z" fill="#FFB0B1"/>
<path opacity="0.1" d="M288.781 214.097L283.263 222.141L280.269 223.317C280.269 223.317 275.455 221.673 276.334 221.203C276.555 221.088 276.899 220.476 277.293 219.632C279.331 219.615 280.387 221.556 280.387 221.556L282.969 221.144C282.969 221.144 286.375 214.45 287.14 214.041C287.904 213.632 287.257 210.986 287.257 210.986V210.312C287.278 210.336 287.295 210.362 287.319 210.386V210.403C288.006 211.445 288.483 212.611 288.725 213.835L288.781 214.097Z" fill="black"/>
<path d="M280.563 221.729C280.563 221.729 279.093 219.029 276.275 220.026C276.275 220.026 274.69 223.262 273.105 223.785C271.52 224.309 272.049 226.073 275.631 225.429C279.213 224.785 284.613 224.253 284.613 224.253L284.848 220.962L288.49 216.324C288.49 216.324 290.66 214.356 287.431 210.483V211.156C287.431 211.156 288.078 213.803 287.313 214.212C286.548 214.621 283.154 221.318 283.154 221.318L280.563 221.729Z" fill="#1D2366"/>
<path opacity="0.1" d="M258.896 173.993C258.947 174.883 259.063 175.767 259.244 176.64C255.932 176.155 252.858 176.396 250.844 176.555V173.934L258.896 173.993Z" fill="black"/>
<path opacity="0.1" d="M288.901 177.984C288.901 177.984 284.196 178.213 278.584 178.26C278.425 176.79 278.39 175.578 278.39 175.578C278.39 175.578 281.56 171.167 287.372 175.931C287.837 176.311 288.246 176.755 288.587 177.249C288.678 177.499 288.783 177.745 288.901 177.984Z" fill="black"/>
<path d="M288.901 177.455C288.901 177.455 268.29 178.452 262.008 176.69C255.726 174.928 249.5 176.455 248.562 176.046C247.623 175.637 248.385 169.234 249.209 167.649C250.032 166.064 254.55 150.032 254.55 150.032L258.897 127.368L263.476 126.107L263.799 126.015L271.778 123.816L277.625 122.201C277.625 122.201 289.251 167.59 288.254 170.937C287.892 172.219 287.834 173.567 288.084 174.875C288.236 175.769 288.511 176.637 288.901 177.455Z" fill="#1D2366"/>
<path d="M243.744 111.869C243.744 111.869 239.627 116.28 242.744 118.739C245.862 121.198 247.912 118.974 247.912 118.974L243.744 111.869Z" fill="#C7DAF5"/>
<path opacity="0.1" d="M243.744 111.869C243.744 111.869 239.627 116.28 242.744 118.739C245.862 121.198 247.912 118.974 247.912 118.974L243.744 111.869Z" fill="black"/>
<path d="M277.011 82.8644C277.011 82.8644 276.528 83.3232 275.802 83.9996C274.766 84.9673 273.234 86.3819 271.875 87.5671C269.993 89.2053 268.44 90.4082 268.996 89.3818C269.552 88.3554 269.446 86.5672 269.17 84.8937C269.149 84.782 269.131 84.6702 269.111 84.5614C268.882 83.3324 268.578 82.1184 268.202 80.9262C268.202 80.9262 271.243 76.997 272.925 75.4471C273.552 74.8588 273.99 74.6177 274.016 75.0265C274.046 75.5765 274.458 76.7911 274.969 78.0793C274.984 78.1205 274.999 78.1587 275.016 78.1999C275.358 79.0822 275.743 79.988 276.081 80.7704C276.599 81.9703 277.011 82.8644 277.011 82.8644Z" fill="#FFB0B1"/>
<path opacity="0.1" d="M275.016 78.1998C274.731 79.7369 274.037 81.1691 273.009 82.3466C271.98 83.5241 270.654 84.4038 269.17 84.8937C268.936 83.5511 268.612 82.2257 268.202 80.9262C268.202 80.9262 273.928 73.5294 274.016 75.0264C274.037 75.5941 274.484 76.8528 275.016 78.1998Z" fill="black"/>
<path opacity="0.1" d="M268.599 86.87L269.34 85.8259C269.34 85.8259 269.831 88.8199 271.637 87.4994C273.443 86.1789 273.531 97.4372 273.531 97.4372L271.593 126.415L257.588 125.577L257.985 111.575L259.57 104.516L263.49 94.255L265.823 90.864L268.599 86.87Z" fill="black"/>
<path d="M273.531 97.6167L271.767 123.819L271.581 126.595L263.773 126.127L263.479 126.11L257.596 125.757L257.994 111.751L259.579 104.693L263.499 94.4316L265.831 91.0405L268.608 87.0319L269.349 85.9907C269.349 85.9907 269.84 88.9847 271.646 87.6642L271.684 87.6377C273.449 86.5201 273.531 97.6167 273.531 97.6167Z" fill="#1D2366"/>
<path d="M259.776 102.24C259.776 102.24 259.073 103.711 257.661 103.472C256.25 103.234 256.252 108.766 256.252 108.766C256.252 108.766 255.314 109.649 254.667 108.884C254.02 108.119 252.314 110.704 252.314 110.704L241.627 111.175C241.627 111.175 246.382 113.348 245.45 119.925C245.45 119.925 261.596 118.925 262.126 117.398C262.655 115.872 259.776 102.24 259.776 102.24Z" fill="white"/>
<path opacity="0.03" d="M259.776 102.24C259.776 102.24 259.073 103.711 257.661 103.472C256.25 103.234 256.252 108.766 256.252 108.766C256.252 108.766 255.314 109.649 254.667 108.884C254.02 108.119 252.314 110.704 252.314 110.704L241.627 111.175C241.627 111.175 246.382 113.348 245.45 119.925C245.45 119.925 261.596 118.925 262.126 117.398C262.655 115.872 259.776 102.24 259.776 102.24Z" fill="black"/>
<path d="M228.715 114.631L231.533 117.036L254.726 121.91L251.85 118.975L228.715 114.631Z" fill="white"/>
<path d="M268.643 87.7965C268.258 88.3847 267.155 91.3964 266.234 94.0257C265.467 96.2168 264.826 98.1432 264.826 98.1432C264.826 98.1432 263.329 107.89 262.564 109.652C261.799 111.413 262.214 118.284 262.214 118.284L259.364 135.25C259.364 135.25 258.073 144 256.079 149.226C254.111 154.37 251.92 156.782 251.853 156.858C252.735 155.664 257.544 132.154 257.544 132.154L259.132 102.502C259.132 102.502 259.364 99.6843 259.599 97.2756C259.835 94.8668 264.599 91.5787 264.599 91.5787L269.193 85.0466C269.655 85.6643 269.346 86.7407 268.643 87.7965Z" fill="white"/>
<path d="M256.664 125.904C256.664 125.904 249.9 125.61 246.623 121.674C243.347 117.739 254.197 120.104 254.197 120.104L257.017 120.751L256.664 125.904Z" fill="#FFB0B1"/>
<path opacity="0.1" d="M288.254 170.94C287.892 172.222 287.834 173.57 288.084 174.878C280.705 175.402 272.811 173.408 272.811 173.408C271.34 174.761 267.467 176.755 267.467 176.755L265.355 150.579C264.005 147.05 263.476 128.56 263.476 128.56C263.476 128.56 263.596 127.592 263.77 126.142C263.77 126.107 263.77 126.068 263.785 126.033C264.311 121.983 265.355 114.381 265.867 113.354C266.573 111.943 263.696 108.187 263.696 108.187L265.005 97.0255L265.164 95.6785C267.923 94.4462 270.037 90.5111 270.037 90.5111L271.661 87.6671C273.425 86.5347 273.517 97.6314 273.517 97.6314L271.752 123.833L277.599 122.219C277.599 122.219 289.251 167.593 288.254 170.94Z" fill="black"/>
<path d="M295.827 172.749C287.784 176.743 273.164 173.043 273.164 173.043C271.693 174.396 267.82 176.39 267.82 176.39L265.705 150.215C264.358 146.685 263.829 128.195 263.829 128.195C263.829 128.195 265.529 114.398 266.234 112.99C266.44 112.578 266.34 111.966 266.096 111.307C264.896 108.172 264.455 104.797 264.808 101.458L265.373 96.6608L265.529 95.3168C268.29 94.0815 270.405 90.1464 270.405 90.1464L271.875 87.57L274.581 82.8231L275.864 80.5762L276.081 80.7732L277.743 82.279C277.743 82.279 278.449 82.8673 279.507 83.7496C281.81 85.6907 285.79 89.1082 287.842 91.1993C289.648 93.0404 290.219 100.202 290.384 105.593C290.492 109.143 290.428 111.925 290.428 111.925C288.607 114.922 293.369 138.983 293.369 138.983C294.478 143.632 295.827 172.749 295.827 172.749Z" fill="white"/>
<path opacity="0.03" d="M280.387 90.0874C280.387 90.0874 274.867 100.596 275.508 104.59C276.149 108.584 277.972 113.104 277.093 114.16C276.791 114.56 276.4 114.885 275.952 115.109C275.503 115.333 275.009 115.45 274.508 115.451C273.625 115.51 271.273 117.154 271.273 117.33C271.273 117.507 269.099 117.507 267.155 118.33C265.211 119.154 262.34 119.622 262.34 119.622C262.34 119.622 256.752 119.445 256.232 119.974C255.711 120.504 255.176 123.671 256.291 126.198C257.405 128.724 258.644 130.609 259.579 130.953C260.514 131.298 266.449 129.309 271.264 128.839C276.078 128.368 281.305 124.554 281.305 124.554C281.305 124.554 287.06 122.495 288.069 119.033C289.078 115.572 286.837 96.546 286.837 96.546C286.837 96.546 285.143 87.6787 280.387 90.0874Z" fill="black"/>
<path opacity="0.03" d="M279.681 89.2053C279.681 89.2053 274.161 99.7166 274.808 103.708C275.455 107.699 277.272 112.222 276.39 113.281C276.089 113.681 275.699 114.006 275.251 114.23C274.803 114.454 274.309 114.571 273.808 114.572C272.925 114.631 270.573 116.275 270.573 116.451C270.573 116.628 268.399 116.628 266.455 117.448C264.511 118.269 261.64 118.739 261.64 118.739C261.64 118.739 256.052 118.563 255.535 119.092C255.017 119.622 254.476 122.792 255.594 125.316C256.711 127.839 257.947 129.727 258.882 130.071C259.817 130.415 265.752 128.427 270.567 127.96C275.381 127.492 280.607 123.672 280.607 123.672C280.607 123.672 286.36 121.613 287.357 118.154C288.354 114.695 286.125 95.6638 286.125 95.6638C286.125 95.6638 284.437 86.7995 279.681 89.2053Z" fill="black"/>
<path d="M280.213 89.5582C280.213 89.5582 274.693 100.07 275.34 104.061C275.987 108.052 277.805 112.575 276.925 113.631C276.624 114.032 276.234 114.358 275.785 114.583C275.337 114.807 274.842 114.924 274.34 114.925C273.458 114.984 271.105 116.628 271.105 116.801C271.105 116.975 268.934 116.978 266.987 117.801C265.04 118.625 262.173 119.092 262.173 119.092C262.173 119.092 256.585 118.916 256.064 119.445C255.544 119.975 255.008 123.145 256.123 125.669C257.238 128.192 258.476 130.08 259.411 130.424C260.346 130.768 266.282 128.78 271.096 128.31C275.911 127.839 281.137 124.024 281.137 124.024C281.137 124.024 286.893 121.966 287.901 118.504C288.91 115.042 286.684 96.0168 286.684 96.0168C286.684 96.0168 284.966 87.1642 280.213 89.5582Z" fill="white"/>
<path opacity="0.1" d="M280.093 117.751C280.093 117.751 275.681 116.869 277.216 118.339C278.752 119.81 278.743 121.098 280.622 121.039C282.501 120.98 280.093 117.751 280.093 117.751Z" fill="black"/>
<path opacity="0.1" d="M287.548 149.391C287.548 149.391 285.554 150.741 289.369 153.853C293.183 156.964 287.548 149.391 287.548 149.391Z" fill="black"/>
<path opacity="0.1" d="M283.743 160.488C283.743 160.664 283.037 166.958 285.678 168.531C288.319 170.105 283.743 160.488 283.743 160.488Z" fill="black"/>
<path d="M241.809 111.16C239.68 111.234 235.08 111.884 237.465 116.333C239.574 120.272 243.118 117.639 245.112 115.642C244.625 113.78 243.443 112.176 241.809 111.16Z" fill="#FFB0B1"/>
<path d="M245.138 115.608L245.227 115.516L245.138 115.608Z" fill="#FFB0B1"/>
<path opacity="0.1" d="M279.507 83.929C277.249 85.4731 275.355 86.776 274.984 87.0466C273.972 87.7965 272.043 92.1993 270.799 94.4463C269.808 96.255 266.587 96.7197 265.373 96.8344L265.529 95.4903C268.29 94.2551 270.405 90.32 270.405 90.32L275.864 80.7498L277.743 82.4585C277.743 82.4585 278.449 83.0467 279.507 83.929Z" fill="black"/>
<path d="M279.507 83.7525C277.249 85.2966 275.355 86.5995 274.984 86.873C273.972 87.62 272.043 92.0228 270.799 94.2697C269.808 96.0785 266.587 96.5432 265.373 96.6579L265.529 95.3138C268.29 94.0786 270.405 90.1434 270.405 90.1434L275.864 80.5732L277.743 82.2761C277.743 82.2761 278.449 82.8584 279.507 83.7525Z" fill="#DCE7FF"/>
<path d="M275.161 76.2588C275.162 78.0243 274.626 79.7485 273.625 81.2027C272.443 82.9221 270.684 84.1608 268.666 84.694C266.649 85.2271 264.507 85.0194 262.63 84.1085C260.752 83.1977 259.263 81.644 258.434 79.7294C257.604 77.8148 257.488 75.6662 258.107 73.6734C258.725 71.6805 260.038 69.9756 261.807 68.8678C263.575 67.7601 265.682 67.3229 267.745 67.6357C269.808 67.9485 271.691 68.9904 273.051 70.5725C274.412 72.1547 275.16 74.1721 275.161 76.2588Z" fill="#FFB0B1"/>
<path opacity="0.1" d="M290.384 105.596C289.189 104.861 288.216 103.816 287.569 102.572C287.078 101.602 286.751 100.481 285.913 99.7929C285.157 99.1753 284.149 99.0253 283.207 98.7488C280.113 97.8342 277.519 95.0108 277.422 91.7874C277.375 90.2698 277.849 88.7551 277.634 87.2522C277.512 86.4017 277.174 85.5966 276.652 84.9141C276.393 84.5877 276.108 84.2819 275.802 83.9994C275.39 83.6112 274.958 83.2348 274.581 82.823C274.344 82.5681 274.137 82.2868 273.964 81.9848C273.824 81.7377 273.71 81.4764 273.625 81.2054C273.037 79.4055 273.572 77.2703 272.925 75.4498L272.89 75.3498C272.646 74.7028 272.149 74.0557 271.458 74.0057C270.767 73.9557 270.176 74.5292 269.517 74.7851C268.137 75.3204 266.649 74.4086 265.499 73.4793C264.349 72.5499 263.052 71.4882 261.591 71.6941C260.623 71.8323 259.858 72.4911 258.967 72.8322C258.766 72.9101 258.558 72.9702 258.347 73.0116C259.101 71.1309 260.486 69.5714 262.265 68.6013C264.044 67.6311 266.106 67.3108 268.095 67.6953C270.085 68.0799 271.878 69.1453 273.168 70.7085C274.457 72.2717 275.162 74.2352 275.161 76.2615C275.162 76.8734 275.098 77.4837 274.969 78.082C274.984 78.1232 274.999 78.1614 275.017 78.2026C275.358 79.0849 275.743 79.9908 276.081 80.7731L277.743 82.2789C277.743 82.2789 278.449 82.8671 279.508 83.7495C281.81 85.6905 285.79 89.1081 287.842 91.1991C289.648 93.0461 290.213 100.205 290.384 105.596Z" fill="black"/>
<path d="M258.864 67.4591C259.285 66.6032 259.493 65.6444 259.996 64.8327C260.735 63.6563 262.023 62.9034 263.346 62.4475C266.802 61.2564 274.105 59.527 276.287 62.4475C276.716 63.0357 277.072 63.6886 277.666 64.0945C278.119 64.4033 278.666 64.5356 279.163 64.768C280.554 65.4209 281.443 66.8444 281.916 68.2973C282.39 69.7501 282.531 71.3089 282.878 72.8059C283.322 74.7264 284.101 76.5469 284.878 78.3557C285.793 80.4909 286.763 82.7055 288.528 84.2143C290.936 86.273 291.469 89.1876 293.704 91.4463C296.351 94.1286 296.266 98.5549 294.901 102.069C294.722 102.531 294.519 103.014 294.589 103.505C294.66 103.996 295.025 104.443 295.369 104.834L296.816 106.466C293.392 107.293 289.519 105.505 287.925 102.366C287.434 101.396 287.107 100.278 286.266 99.5872C285.513 98.9696 284.501 98.8225 283.563 98.546C280.469 97.6284 277.875 94.8021 277.778 91.5787C277.731 90.064 278.205 88.5494 277.99 87.0494C277.87 86.1932 277.531 85.3825 277.005 84.6966C276.196 83.6408 274.975 82.932 274.316 81.7555C273.202 79.788 274.049 77.2322 273.246 75.1205C272.999 74.4735 272.505 73.8265 271.814 73.7765C271.122 73.7265 270.531 74.3 269.87 74.5558C268.493 75.0911 267.005 74.1823 265.855 73.25C264.705 72.3177 263.408 71.2589 261.943 71.4677C260.976 71.603 260.214 72.2618 259.323 72.6059C258.664 72.8588 257.329 73.0853 256.752 72.5294C255.535 71.4089 258.355 68.5061 258.864 67.4591Z" fill="#591D4B"/>
<path opacity="0.1" d="M288.742 101.396C288.248 100.425 287.925 99.3078 287.084 98.6196C286.331 98.002 285.319 97.852 284.378 97.5755C281.287 96.6609 278.693 93.8345 278.593 90.6111C278.546 89.0965 279.019 87.5789 278.808 86.0789C278.684 85.2282 278.345 84.4232 277.822 83.7408C277.011 82.6849 275.79 81.9762 275.134 80.7997C274.019 78.8351 274.867 76.2793 274.061 74.1647C273.817 73.5206 273.319 72.8736 272.631 72.8206C271.943 72.7677 271.346 73.3471 270.687 73.603C269.311 74.1382 267.82 73.2265 266.673 72.2971C265.526 71.3678 264.223 70.306 262.761 70.5119C261.793 70.6501 261.029 71.3089 260.141 71.6501C259.482 71.903 258.144 72.1324 257.567 71.5766C256.355 70.4002 259.176 67.5032 259.682 66.4621C260.102 65.6033 260.311 64.6474 260.817 63.8357C260.843 63.7916 260.873 63.7475 260.902 63.7034C260.524 64.0168 260.197 64.3881 259.935 64.8033C259.432 65.6151 259.223 66.568 258.802 67.4297C258.294 68.4708 255.473 71.3766 256.688 72.5442C257.276 73.103 258.599 72.8736 259.258 72.6206C260.141 72.2765 260.911 71.6177 261.879 71.4825C263.349 71.2736 264.643 72.3354 265.79 73.2647C266.937 74.1941 268.437 75.1058 269.808 74.5706C270.467 74.3147 271.043 73.7383 271.749 73.7912C272.455 73.8441 272.925 74.4882 273.181 75.1353C273.984 77.2469 273.137 79.8027 274.252 81.7703C274.911 82.9261 276.131 83.6496 276.94 84.7113C277.466 85.3972 277.806 86.2079 277.925 87.0642C278.14 88.5641 277.666 90.0788 277.713 91.5934C277.811 94.8286 280.405 97.6432 283.499 98.5608C284.431 98.8372 285.448 98.9843 286.201 99.6019C287.045 100.293 287.378 101.411 287.86 102.381C289.454 105.519 293.328 107.307 296.751 106.481L296.069 105.71C293.101 105.755 290.098 104.066 288.742 101.396Z" fill="black"/>
<path opacity="0.1" d="M268.467 87.9729C268.081 88.5611 266.979 91.5728 266.058 94.2021C265.196 93.8668 264.414 91.7286 264.414 91.7286L269.008 85.1936C269.478 85.8406 269.17 86.9141 268.467 87.9729Z" fill="black"/>
<path d="M268.643 87.7964C268.258 88.3846 267.155 91.3962 266.234 94.0255C265.373 93.6932 264.59 91.5521 264.59 91.5521L269.184 85.02C269.655 85.6641 269.346 86.7405 268.643 87.7964Z" fill="#DCE7FF"/>
<path d="M241.932 117.842L239.385 109.81C239.355 109.716 239.344 109.617 239.352 109.519C239.36 109.42 239.388 109.325 239.433 109.237C239.479 109.149 239.541 109.071 239.617 109.008C239.692 108.944 239.779 108.896 239.874 108.866C240.063 108.807 240.268 108.825 240.445 108.917C240.621 109.008 240.754 109.165 240.815 109.354L243.362 117.378L243.109 119.057L241.932 117.842Z" fill="#BE8B87"/>
<path opacity="0.1" d="M239.627 109.104C239.817 109.044 240.023 109.062 240.199 109.154C240.376 109.245 240.51 109.403 240.571 109.593L243.118 117.616L242.926 118.875L243.112 119.069L243.365 117.389L240.803 109.366C240.742 109.177 240.609 109.02 240.433 108.928C240.257 108.837 240.051 108.819 239.862 108.878C239.702 108.93 239.565 109.033 239.471 109.172C239.521 109.145 239.573 109.123 239.627 109.104Z" fill="white"/>
<path d="M241.932 117.842L243.362 117.389L243.153 118.766L243.109 119.069L242.691 118.633L241.932 117.842Z" fill="#EFC8C4"/>
<path d="M242.691 118.633C242.716 118.602 242.747 118.576 242.782 118.557C242.803 118.544 242.827 118.537 242.852 118.537C242.876 118.537 242.9 118.544 242.921 118.557C242.941 118.581 242.957 118.608 242.971 118.636C242.99 118.669 243.017 118.696 243.048 118.717C243.08 118.738 243.115 118.752 243.153 118.757L243.109 119.051L242.691 118.633Z" fill="#727A9C"/>
<path d="M239.371 112.663C239.371 112.663 244.479 112.634 243.276 114.807C242.074 116.981 240.194 117.242 240.194 117.242L239.371 112.663Z" fill="#FFB0B1"/>
<path d="M207.598 15.1228H207.378C198.602 15.1228 190.84 19.7667 186.376 26.6194C181.911 19.7667 174.15 15.1228 165.373 15.1228H165.153C158.567 15.1856 152.271 17.845 147.635 22.5233C142.998 27.2016 140.396 33.5206 140.392 40.1071C140.392 48.2862 143.974 59.8916 150.959 69.4412C164.268 87.6375 186.376 103.557 186.376 103.557C186.376 103.557 208.484 87.6405 221.789 69.4412C228.777 59.8916 232.356 48.2862 232.356 40.1071C232.353 33.5211 229.75 27.2025 225.114 22.5243C220.479 17.8462 214.184 15.1863 207.598 15.1228ZM204.443 70.8411C203.443 70.8373 202.468 70.5314 201.646 69.9635C200.823 69.3956 200.192 68.5922 199.834 67.6589H194.587C194.242 67.6568 193.905 67.5468 193.625 67.3443C193.345 67.1418 193.136 66.857 193.025 66.5295L191.414 61.6739L186.314 79.4937C186.214 79.8368 186.007 80.1383 185.721 80.3531C185.436 80.5679 185.089 80.6843 184.732 80.6849H184.629C184.256 80.6668 183.901 80.5215 183.622 80.2731C183.344 80.0248 183.159 79.6884 183.099 79.3202L177.844 47.7097L174.002 66.4149C173.914 66.7702 173.71 67.0858 173.421 67.3113C173.133 67.5368 172.777 67.6591 172.411 67.6589H165.02C164.799 67.6683 164.578 67.6328 164.37 67.5544C164.163 67.4761 163.973 67.3566 163.813 67.2032C163.653 67.0497 163.526 66.8655 163.439 66.6615C163.352 66.4576 163.307 66.2381 163.307 66.0163C163.307 65.7946 163.352 65.5751 163.439 65.3712C163.526 65.1672 163.653 64.9829 163.813 64.8295C163.973 64.676 164.163 64.5566 164.37 64.4782C164.578 64.3999 164.799 64.3644 165.02 64.3738H171.117L176.558 39.2248C176.648 38.8529 176.863 38.5237 177.169 38.2933C177.474 38.0629 177.849 37.9457 178.232 37.9617C178.614 37.9776 178.978 38.1258 179.263 38.3809C179.548 38.636 179.735 38.9821 179.793 39.3601L185.161 71.6058L189.731 55.6623C189.826 55.3266 190.028 55.0306 190.305 54.8185C190.582 54.6065 190.921 54.4898 191.27 54.4859H191.302C191.648 54.486 191.984 54.5953 192.264 54.7981C192.544 55.0009 192.753 55.2869 192.861 55.6153L195.775 64.3826H199.769C200.053 63.5199 200.57 62.7524 201.263 62.1648C201.955 61.5773 202.797 61.1925 203.694 61.053C204.592 60.9135 205.51 61.0246 206.349 61.3742C207.187 61.7238 207.912 62.2982 208.445 63.034C208.977 63.7698 209.296 64.6384 209.366 65.5439C209.436 66.4495 209.254 67.3568 208.841 68.1657C208.428 68.9745 207.8 69.6535 207.025 70.1277C206.25 70.6019 205.36 70.8529 204.451 70.8529L204.443 70.8411Z" fill="#6C63FF"/>
</g>
</svg>
