<svg width="17" height="20" viewBox="0 0 17 20" fill="none" xmlns="http://www.w3.org/2000/svg">
<path d="M16.5446 6.25H0.455357C0.204911 6.25 0 6.03906 0 5.78125V4.375C0 3.33984 0.815848 2.5 1.82143 2.5H3.64286V0.46875C3.64286 0.210938 3.84777 0 4.09821 0H5.61607C5.86652 0 6.07143 0.210938 6.07143 0.46875V2.5H10.9286V0.46875C10.9286 0.210938 11.1335 0 11.3839 0H12.9018C13.1522 0 13.3571 0.210938 13.3571 0.46875V2.5H15.1786C16.1842 2.5 17 3.33984 17 4.375V5.78125C17 6.03906 16.7951 6.25 16.5446 6.25ZM0.455357 7.5H16.5446C16.7951 7.5 17 7.71094 17 7.96875V18.125C17 19.1602 16.1842 20 15.1786 20H1.82143C0.815848 20 0 19.1602 0 18.125V7.96875C0 7.71094 0.204911 7.5 0.455357 7.5ZM12.4464 12.9688C12.4464 12.7109 12.2415 12.5 11.9911 12.5H9.71429V10.1562C9.71429 9.89844 9.50938 9.6875 9.25893 9.6875H7.74107C7.49062 9.6875 7.28571 9.89844 7.28571 10.1562V12.5H5.00893C4.75848 12.5 4.55357 12.7109 4.55357 12.9688V14.5312C4.55357 14.7891 4.75848 15 5.00893 15H7.28571V17.3438C7.28571 17.6016 7.49062 17.8125 7.74107 17.8125H9.25893C9.50938 17.8125 9.71429 17.6016 9.71429 17.3438V15H11.9911C12.2415 15 12.4464 14.7891 12.4464 14.5312V12.9688Z" fill="#392CFE"/>
</svg>
