<svg width="54" height="59" viewBox="0 0 54 59" fill="none" xmlns="http://www.w3.org/2000/svg">
    <defs>
        <linearGradient id="paint0_linear_15_441" x1="12.3044" y1="46.8636" x2="29.0849" y2="0.631593" gradientUnits="userSpaceOnUse">
            <stop stop-color="#392CFE"/>
            <stop offset="1" stop-color="#6C63FF"/>
        </linearGradient>
        <linearGradient id="paint1_linear_15_441" x1="36.1273" y1="25.5911" x2="44.1446" y2="25.5911" gradientUnits="userSpaceOnUse">
            <stop stop-color="#392CFE"/>
            <stop offset="1" stop-color="#392CFE"/>
        </linearGradient>
        <linearGradient id="paint2_linear_15_441" x1="48.7566" y1="56.2425" x2="51.2049" y2="56.2425" gradientUnits="userSpaceOnUse">
            <stop stop-color="#392CFE"/>
            <stop offset="1" stop-color="#2980B9"/>
        </linearGradient>
    </defs>
<path d="M33.8226 8.17948V42.7844C33.7846 44.9667 32.8885 47.0468 31.3275 48.5767C29.7664 50.1066 27.6652 50.9639 25.4765 50.9639C23.2878 50.9639 21.1866 50.1066 19.6255 48.5767C18.0645 47.0468 17.1684 44.9667 17.1304 42.7844V34.0183H8.34482C6.13163 34.0183 4.0091 33.1415 2.44414 31.5809C0.879184 30.0204 0 27.9037 0 25.6967C0 23.4897 0.879184 21.3731 2.44414 19.8125C4.0091 18.2519 6.13163 17.3752 8.34482 17.3752H17.1279V8.17948C17.1659 5.99717 18.062 3.91706 19.623 2.38716C21.1841 0.857268 23.2852 0 25.474 0C27.6627 0 29.7639 0.857268 31.325 2.38716C32.886 3.91706 33.782 5.99717 33.8201 8.17948H33.8226Z" fill="url(#paint0_linear_15_441)"/>
<path d="M44.1446 17.051V34.1312C39.7166 34.1312 36.1273 30.3057 36.1273 25.5911C36.1273 20.8765 39.7166 17.051 44.1446 17.051Z" fill="url(#paint1_linear_15_441)"/>
<path d="M45.2429 17.051V34.1312C49.6709 34.1312 53.2602 30.3057 53.2602 25.5911C53.2602 20.8765 49.6709 17.051 45.2429 17.051Z" fill="#392CFE"/>
<path d="M2.96464 25.9202H15.264C15.2805 26.7359 15.1337 27.5468 14.8321 28.3053C14.5305 29.0638 14.0802 29.7547 13.5075 30.3374C12.9348 30.9202 12.2512 31.3832 11.4969 31.6992C10.7425 32.0153 9.93254 32.1781 9.11431 32.1781C8.29609 32.1781 7.48608 32.0153 6.73173 31.6992C5.97738 31.3832 5.29385 30.9202 4.72116 30.3374C4.14847 29.7547 3.69813 29.0638 3.39652 28.3053C3.09491 27.5468 2.94808 26.7359 2.96464 25.9202Z" fill="#ECF0F1"/>
<path d="M30.1325 4.91678L21.4351 13.59C20.3143 12.4332 19.694 10.8837 19.7078 9.2752C19.7217 7.66673 20.3686 6.12804 21.5091 4.99064C22.6497 3.85323 24.1927 3.20813 25.8057 3.19432C27.4187 3.1805 28.9725 3.79908 30.1325 4.91678Z" fill="#ECF0F1"/>
<path d="M30.1753 46.8812L21.4804 38.208C22.6338 37.0582 24.1979 36.4124 25.8288 36.4126C26.6363 36.4127 27.4359 36.5714 28.1819 36.8797C28.9279 37.188 29.6057 37.6398 30.1766 38.2092C30.7475 38.7787 31.2004 39.4548 31.5093 40.1988C31.8182 40.9428 31.9771 41.7402 31.977 42.5455C31.9769 43.3508 31.8177 44.1481 31.5086 44.892C31.1995 45.636 30.7464 46.3119 30.1753 46.8812Z" fill="#ECF0F1"/>
<path d="M7.53876 58.6815C7.5412 58.6964 7.54013 58.7117 7.53563 58.7262C7.53113 58.7407 7.52332 58.7539 7.51282 58.7649C7.50233 58.7758 7.48942 58.7842 7.47513 58.7893C7.46084 58.7945 7.44554 58.7963 7.43045 58.7945H6.1383C6.06778 58.7945 6.03251 58.7518 6.03251 58.6664C6.03251 58.4152 6.03251 58.0535 6.06022 57.5637C6.08793 57.0739 6.08793 56.7047 6.08793 56.4611C6.08793 56.3907 6.08793 56.3505 6.05518 56.348C5.86832 56.7123 5.7051 57.0882 5.56653 57.4733C5.38182 57.912 5.2055 58.3424 5.03758 58.7644C5.01239 58.8196 4.98217 58.8548 4.94691 58.8623C4.89825 58.8651 4.84947 58.8651 4.80081 58.8623C4.67236 58.8623 4.59679 58.8372 4.57412 58.7895C4.44314 58.5283 4.28194 58.1314 4.05777 57.629C3.83359 57.1267 3.65727 56.6997 3.554 56.4611C3.54713 56.4448 3.53577 56.4309 3.52126 56.4209C3.50224 56.4526 3.49345 56.4894 3.49607 56.5264C3.49607 56.7625 3.49607 57.1191 3.5137 57.5964C3.53133 58.0736 3.53385 58.4278 3.53385 58.6664C3.53385 58.7518 3.49859 58.7945 3.43058 58.7945H2.19888C2.14851 58.7945 2.1208 58.7945 2.10821 58.7694C2.09608 58.7444 2.09086 58.7167 2.09309 58.689C2.09309 58.4228 2.09309 58.0259 2.13088 57.4959C2.16866 56.9659 2.16866 56.5691 2.16866 56.3028C2.16866 56.0366 2.16866 55.494 2.13339 54.7179C2.13339 54.5169 2.11828 54.2155 2.10065 53.8186V53.7584C2.10065 53.7081 2.15103 53.6855 2.2543 53.6855C2.35757 53.6855 2.5893 53.6855 2.85629 53.673C3.12329 53.6604 3.32479 53.6604 3.46081 53.6604C3.486 53.6604 3.52378 53.7106 3.57415 53.8111L4.63961 56.1471C4.71518 56.3053 4.77815 56.3832 4.82852 56.3832C4.8789 56.3832 4.91416 56.2928 4.9998 56.1094C5.24664 55.607 5.61103 54.8393 6.09296 53.8061C6.13327 53.7106 6.1786 53.6629 6.22898 53.6629C6.29951 53.6629 6.4053 53.6629 6.54635 53.6629C6.6874 53.6629 6.79823 53.6755 6.87128 53.6755C6.94432 53.6755 7.02492 53.6755 7.15086 53.6554C7.2768 53.6353 7.36748 53.6378 7.43045 53.6378C7.49342 53.6378 7.53876 53.6679 7.53876 53.7257C7.53876 54.0121 7.53876 54.4391 7.50854 55.0092C7.47831 55.5794 7.47579 56.0139 7.47579 56.2928C7.47579 56.5716 7.48838 56.9559 7.50854 57.4833C7.52869 58.0108 7.53876 58.4202 7.53876 58.6815Z" fill="#2D3E50"/>
<path d="M11.9568 57.6617C11.9482 57.8546 11.9272 58.0468 11.8938 58.2369C11.8781 58.4219 11.8392 58.6042 11.7779 58.7795C11.7657 58.8007 11.7481 58.8183 11.7269 58.8307C11.7057 58.843 11.6816 58.8496 11.657 58.8498C11.6199 58.8478 11.5829 58.8436 11.5462 58.8373C11.3699 58.8155 10.8519 58.8038 9.99211 58.8021H9.15587H8.31206C8.23146 58.8021 8.19116 58.7669 8.19116 58.6966C8.19116 58.4253 8.20628 58.0159 8.2365 57.4708C8.26673 56.9258 8.28436 56.5164 8.28436 56.2451C8.28436 55.9738 8.26924 55.4539 8.23902 54.6978C8.23902 54.5044 8.21887 54.2131 8.19872 53.8262V53.776C8.19872 53.7207 8.22894 53.6931 8.2894 53.6931C8.47075 53.6931 8.74026 53.6931 9.10297 53.7082C9.46568 53.7233 9.73519 53.7082 9.91403 53.7082C10.0929 53.7082 10.3599 53.7082 10.7175 53.7082C11.0752 53.7082 11.3447 53.6931 11.521 53.6931C11.647 53.6931 11.72 53.7408 11.7402 53.8338C11.7603 53.9267 11.7704 54.0598 11.7981 54.3361C11.8258 54.6124 11.8359 54.7908 11.8359 54.8511C11.8375 54.8611 11.8368 54.8714 11.8338 54.8811C11.8307 54.8908 11.8254 54.8997 11.8183 54.907C11.8112 54.9144 11.8025 54.9199 11.7929 54.9233C11.7833 54.9266 11.773 54.9277 11.7628 54.9264H11.6848C11.0374 54.8711 10.4556 54.846 9.93922 54.846C9.81076 54.846 9.73267 54.8762 9.70245 54.9365C9.685 55.0291 9.67908 55.1236 9.68482 55.2178C9.67223 55.3317 9.69793 55.4465 9.75786 55.5443C9.79022 55.5719 9.828 55.5924 9.86878 55.6045C9.90956 55.6166 9.95243 55.62 9.99463 55.6146H10.1382H10.312C10.6193 55.6146 10.9291 55.6146 11.244 55.5895L11.4455 55.5719C11.5106 55.5632 11.5762 55.5582 11.6419 55.5569C11.6537 55.5553 11.6656 55.5564 11.6769 55.5601C11.6881 55.5637 11.6984 55.5699 11.7069 55.5782C11.7153 55.5864 11.7219 55.5964 11.7259 55.6075C11.7299 55.6187 11.7313 55.6305 11.7301 55.6423C11.6973 55.8258 11.6754 56.0112 11.6646 56.1974C11.6446 56.391 11.6345 56.5855 11.6344 56.7801C11.6344 56.8303 11.5991 56.8529 11.5286 56.8529L11.2011 56.8178C11.0626 56.8027 10.7452 56.7952 10.2515 56.7952H9.87121C9.77046 56.7952 9.71252 56.8203 9.69489 56.868C9.67726 56.9157 9.69489 56.9559 9.69489 57.0941C9.68759 57.2141 9.6995 57.3345 9.73016 57.4508C9.77298 57.5437 9.92914 57.599 10.1987 57.614H10.7301C10.8586 57.614 11.05 57.614 11.3044 57.5814C11.5588 57.5487 11.7502 57.5462 11.8762 57.5462C11.9291 57.5311 11.9568 57.5738 11.9568 57.6617Z" fill="#2D3E50"/>
<path d="M19.2563 56.1019C19.2563 56.3907 19.2563 56.8203 19.279 57.3955C19.3016 57.9707 19.2991 58.4002 19.2991 58.689C19.2991 58.7368 19.2991 58.7669 19.2664 58.7795L19.1732 58.7945C18.9615 58.8163 18.7487 58.8255 18.5359 58.8222C18.3097 58.8296 18.0832 58.8204 17.8584 58.7945C17.7878 58.7795 17.7526 58.7418 17.7526 58.6815C17.7526 58.7192 17.7526 58.5057 17.7853 58.041C17.829 57.0564 17.8508 56.41 17.8508 56.1019C17.8508 55.8507 17.8508 55.4538 17.8256 54.9339C17.8004 54.414 17.8004 54.0246 17.8004 53.7659C17.8004 53.7107 17.8281 53.6855 17.8835 53.6855C17.939 53.6855 18.0725 53.6855 18.2236 53.6855C18.3747 53.6855 18.4906 53.6855 18.5661 53.6855C18.6417 53.6855 18.7525 53.6855 18.9011 53.6855C19.0497 53.6855 19.153 53.6855 19.2336 53.6855C19.3142 53.6855 19.3394 53.7107 19.3394 53.7659C19.3394 54.0171 19.3394 54.414 19.2991 54.9339C19.2588 55.4538 19.2563 55.8432 19.2563 56.1019Z" fill="#2D3E50"/>
<path d="M24.2662 57.9708C24.258 58.0286 24.2316 58.0823 24.1906 58.124C23.9756 58.383 23.704 58.5896 23.3967 58.728C23.0894 58.8665 22.7545 58.9331 22.4174 58.9228C22.0712 58.935 21.7265 58.8719 21.4072 58.7379C21.0879 58.6039 20.8018 58.4021 20.5686 58.1466C20.1023 57.6276 19.8551 56.9491 19.8784 56.2527C19.8548 55.5627 20.0912 54.8888 20.5409 54.3639C20.7596 54.1033 21.0345 53.8953 21.345 53.7552C21.6555 53.6152 21.9936 53.5468 22.3343 53.5551C22.6766 53.5392 23.0185 53.5965 23.3368 53.723C23.6552 53.8495 23.9429 54.0423 24.1806 54.2885C24.22 54.327 24.2456 54.3773 24.2536 54.4317C24.1901 54.6086 24.1055 54.7772 24.0017 54.934C23.9135 55.1124 23.8062 55.2808 23.6818 55.4364C23.6725 55.4463 23.6612 55.4541 23.6486 55.4593C23.636 55.4645 23.6224 55.467 23.6088 55.4665C23.5429 55.4251 23.482 55.3762 23.4274 55.3209C23.3099 55.2141 23.1796 55.1221 23.0396 55.0471C22.8543 54.9512 22.6487 54.9013 22.4401 54.9014C22.2758 54.8958 22.1126 54.929 21.9638 54.9984C21.8149 55.0679 21.6846 55.1715 21.5837 55.3008C21.3903 55.5699 21.2863 55.8927 21.2863 56.2238C21.2863 56.555 21.3903 56.8778 21.5837 57.1469C21.683 57.2787 21.8127 57.3847 21.9617 57.4559C22.1108 57.5272 22.2749 57.5616 22.4401 57.5563C22.6486 57.5563 22.8545 57.5091 23.0421 57.4182C23.1793 57.3514 23.3072 57.267 23.4224 57.167C23.4769 57.1148 23.5369 57.0684 23.6012 57.0289C23.6157 57.0296 23.6297 57.0336 23.6424 57.0406C23.655 57.0476 23.6659 57.0573 23.6743 57.0691C23.7146 57.1118 23.8204 57.265 23.9917 57.5237C24.0973 57.6636 24.1893 57.8133 24.2662 57.9708Z" fill="#2D3E50"/>
<path d="M31.9889 58.6816C31.9889 58.757 31.9536 58.7946 31.8831 58.7946H30.5784C30.5078 58.7946 30.47 58.7519 30.47 58.6665C30.47 58.4154 30.47 58.0537 30.4978 57.5639C30.5255 57.0741 30.5255 56.7048 30.5255 56.4612C30.5255 56.3909 30.5255 56.3507 30.4927 56.3482C30.3085 56.7137 30.1454 57.0894 30.0041 57.4734C29.8277 57.9055 29.6539 58.335 29.4776 58.7645C29.4524 58.8198 29.4222 58.8549 29.387 58.8625C29.3383 58.8654 29.2895 58.8654 29.2409 58.8625C29.1149 58.8625 29.0394 58.8373 29.0142 58.7896C28.8832 58.5234 28.7102 58.1349 28.4953 57.6241C28.2669 57.0833 28.099 56.6939 27.9915 56.4562C27.9838 56.4405 27.9726 56.4267 27.9588 56.416C27.9386 56.4473 27.9297 56.4845 27.9336 56.5215C27.9336 56.7576 27.9336 57.1143 27.9512 57.5915C27.9689 58.0687 27.9689 58.4229 27.9689 58.6615C27.9689 58.7469 27.9336 58.7896 27.8656 58.7896H26.6465C26.5986 58.7896 26.5684 58.7896 26.5583 58.7645C26.5439 58.7403 26.5377 58.7121 26.5407 58.6841C26.5407 58.4179 26.5407 58.021 26.5785 57.491C26.6163 56.961 26.6188 56.5642 26.6188 56.2979C26.6188 56.0317 26.6188 55.4891 26.581 54.713C26.581 54.512 26.581 54.2106 26.5483 53.8138V53.7535C26.5483 53.7032 26.5961 53.6806 26.6994 53.6806C26.8027 53.6806 27.0344 53.6806 27.3039 53.6681C27.5734 53.6555 27.7724 53.6555 27.9059 53.6555C27.9336 53.6555 27.9689 53.7058 28.0192 53.8062L29.0847 56.1422C29.1603 56.3004 29.2232 56.3783 29.2761 56.3783C29.329 56.3783 29.3592 56.2879 29.4474 56.1045C29.6909 55.6022 30.0544 54.8344 30.5381 53.8012C30.58 53.7058 30.6254 53.658 30.6741 53.658C30.7446 53.658 30.8504 53.658 30.994 53.658C31.1375 53.658 31.2458 53.6706 31.3164 53.6706C31.3869 53.6706 31.47 53.6706 31.596 53.6505C31.7219 53.6304 31.8151 53.6329 31.8755 53.6329C31.936 53.6329 31.9838 53.6631 31.9838 53.7208C31.9838 54.0072 31.9838 54.4342 31.9536 55.0044C31.9234 55.5745 31.9234 56.0091 31.9234 56.2879C31.9234 56.5667 31.9234 56.951 31.9561 57.4785C31.9889 58.0059 31.9889 58.4204 31.9889 58.6816Z" fill="#2D3E50"/>
<path d="M37.4723 58.7041C37.4723 58.746 37.4421 58.7761 37.3816 58.7946C37.1561 58.8221 36.9286 58.8313 36.7016 58.8222C36.477 58.8293 36.2522 58.8201 36.029 58.7946C35.9895 58.7864 35.9533 58.7664 35.9254 58.7372C35.8975 58.708 35.8792 58.6711 35.8729 58.6313C35.8489 58.4322 35.7828 58.2404 35.6789 58.0686C35.3531 58.0418 35.0259 58.0334 34.6991 58.0435C34.4786 58.0303 34.2573 58.0413 34.0392 58.0762C33.9664 58.195 33.9193 58.3276 33.9006 58.4655C33.8553 58.669 33.7974 58.777 33.7319 58.7946C33.4558 58.8225 33.178 58.8317 32.9007 58.8222C32.5279 58.8222 32.3415 58.7895 32.3415 58.7167C32.3415 58.6438 32.616 57.8778 33.1677 56.3908C33.7621 54.7799 34.0853 53.8949 34.1374 53.7358C34.1676 53.6429 34.2004 53.5977 34.2407 53.5977C34.281 53.5977 34.4069 53.5977 34.5455 53.6152C34.684 53.6328 34.7847 53.6328 34.8527 53.6328C34.9208 53.6328 35.0165 53.6328 35.1449 53.6203C35.2734 53.6077 35.3666 53.6203 35.4296 53.6203C35.4925 53.6203 35.5202 53.6605 35.558 53.7408C35.6772 53.997 36.0257 54.8711 36.6033 56.3631C37.181 57.8551 37.4706 58.6355 37.4723 58.7041ZM34.883 55.3861C34.8326 55.4915 34.7444 55.7251 34.6311 56.0818C34.5454 56.2973 34.4796 56.5201 34.4346 56.7474C34.4346 56.7901 34.5077 56.8153 34.6538 56.8203C34.7293 56.8203 34.8527 56.8203 35.0265 56.8203C35.2003 56.8203 35.2784 56.8002 35.291 56.7625C35.2942 56.7451 35.2942 56.7272 35.291 56.7098C35.2566 56.4848 35.2009 56.2637 35.1248 56.0492C35.0592 55.823 34.9785 55.6014 34.883 55.3861Z" fill="#2D3E50"/>
<path d="M42.6611 58.7041C42.6611 58.7459 42.6308 58.7761 42.5704 58.7945C42.3448 58.822 42.1174 58.8313 41.8903 58.8221C41.6658 58.8292 41.441 58.82 41.2178 58.7945C41.1778 58.787 41.141 58.7677 41.1122 58.739C41.0834 58.7103 41.064 58.6736 41.0566 58.6337C40.9735 58.2821 40.9105 58.0962 40.8626 58.0711C40.5376 58.0442 40.2113 58.0359 39.8853 58.046C39.664 58.0326 39.4418 58.0435 39.2229 58.0786C39.1502 58.1974 39.103 58.33 39.0844 58.4679C39.039 58.6714 38.9836 58.7794 38.9156 58.797C38.6395 58.825 38.3618 58.8343 38.0844 58.8246C37.7116 58.8246 37.5252 58.792 37.5252 58.7191C37.5252 58.6463 37.7998 57.8802 38.3514 56.3932C38.9492 54.7823 39.2724 53.8973 39.3211 53.7382C39.3513 53.6453 39.3866 53.6001 39.4244 53.6001C39.4622 53.6001 39.5906 53.6001 39.7292 53.6177C39.8677 53.6353 39.9685 53.6353 40.039 53.6353C40.1095 53.6353 40.2002 53.6353 40.3286 53.6227C40.4571 53.6101 40.5503 53.6227 40.6158 53.6227C40.6813 53.6227 40.7039 53.6629 40.7417 53.7433C40.8626 53.9995 41.2111 54.8736 41.787 56.3656C42.363 57.8576 42.6543 58.6371 42.6611 58.7041ZM40.0717 55.386C40.0213 55.4915 39.9357 55.7251 39.8198 56.0817C39.7342 56.2972 39.6684 56.52 39.6234 56.7474C39.6234 56.7901 39.6964 56.8152 39.8425 56.8202C39.9181 56.8202 40.0415 56.8202 40.2153 56.8202C40.3891 56.8202 40.4672 56.8001 40.4823 56.7624C40.4855 56.745 40.4855 56.7271 40.4823 56.7097C40.4464 56.4848 40.3899 56.2637 40.3135 56.0491C40.248 55.8229 40.1672 55.6013 40.0717 55.386Z" fill="#2D3E50"/>
<path d="M48.4796 58.6816C48.4796 58.757 48.4443 58.7946 48.3738 58.7946H47.0791C47.0086 58.7946 46.9733 58.7519 46.9733 58.6665C46.9733 58.4154 46.9733 58.0537 47.001 57.5639C47.0287 57.0741 47.0287 56.7048 47.0287 56.4612C47.0287 56.3909 47.0287 56.3507 46.996 56.3482C46.8104 56.7131 46.6473 57.0888 46.5073 57.4734C46.331 57.9055 46.1572 58.335 45.9809 58.7645C45.9557 58.8198 45.9255 58.8549 45.8902 58.8625C45.8416 58.8654 45.7928 58.8654 45.7441 58.8625C45.6157 58.8625 45.5426 58.8373 45.5174 58.7896C45.3865 58.5234 45.2135 58.1349 44.9986 57.6241C44.7702 57.0833 44.6023 56.6939 44.4948 56.4562C44.4871 56.4405 44.4759 56.4267 44.4621 56.416C44.4408 56.4468 44.431 56.4842 44.4343 56.5215C44.4343 56.7576 44.4343 57.1143 44.4545 57.5915C44.4746 58.0687 44.4721 58.4229 44.4721 58.6615C44.4721 58.7469 44.4369 58.7896 44.3689 58.7896H43.1498C43.1019 58.7896 43.0717 58.7896 43.0591 58.7645C43.0469 58.7395 43.0417 58.7118 43.044 58.6841C43.044 58.4179 43.0566 58.021 43.0817 57.491C43.1069 56.961 43.1195 56.5642 43.1195 56.2979C43.1195 56.0317 43.1195 55.4891 43.0843 54.713C43.0843 54.512 43.0843 54.2106 43.0515 53.8138V53.7535C43.0515 53.7032 43.1019 53.6806 43.2052 53.6806C43.3084 53.6806 43.5402 53.6806 43.8097 53.6681C44.0792 53.6555 44.2782 53.6555 44.4117 53.6555C44.4369 53.6555 44.4746 53.7058 44.525 53.8062L45.5905 56.1422C45.666 56.3004 45.729 56.3783 45.7794 56.3783C45.8298 56.3783 45.865 56.2879 45.9532 56.1045C46.1967 55.6022 46.5602 54.8344 47.0438 53.8012C47.0867 53.7058 47.1295 53.658 47.1798 53.658C47.2302 53.658 47.3562 53.658 47.4997 53.658C47.6433 53.658 47.7516 53.6706 47.8221 53.6706C47.8927 53.6706 47.9758 53.6706 48.1017 53.6505C48.2277 53.6304 48.3209 53.6329 48.3813 53.6329C48.4418 53.6329 48.4896 53.6631 48.4896 53.7208C48.4896 54.0072 48.4896 54.4342 48.4594 55.0044C48.4292 55.5745 48.4292 56.0091 48.4292 56.2879C48.4292 56.5667 48.4292 56.951 48.4619 57.4785C48.4947 58.0059 48.4796 58.4204 48.4796 58.6816Z" fill="#2D3E50"/>
<path d="M51.2049 53.6353V58.8497C49.8523 58.8497 48.7566 57.6817 48.7566 56.2425C48.7566 54.8032 49.8523 53.6353 51.2049 53.6353Z" fill="url(#paint2_linear_15_441)"/>
<path d="M51.5399 53.6353V58.8497C52.89 58.8497 53.9857 57.6817 53.9857 56.2425C53.9857 54.8032 52.895 53.6353 51.5399 53.6353Z" fill="#392CFE"/>
<path d="M12.4605 53.6354V58.8498C14.4756 58.8498 17.2462 59.101 17.2462 56.2426C17.2462 53.5751 15.1128 53.6354 12.4605 53.6354Z" fill="#E84C3C"/>
<path d="M13.72 54.8912V57.5939C14.4756 57.5939 15.735 57.5939 15.735 56.2425C15.735 54.8309 14.4756 54.8309 13.72 54.8912Z" fill="#ECF0F1"/>

</svg>
