<svg width="92" height="100" viewBox="0 0 92 100" fill="none" xmlns="http://www.w3.org/2000/svg">
    <defs>
        <linearGradient id="paint0_linear_10_6" x1="21.2003" y1="78.9149" x2="49.3721" y2="1.29887" gradientUnits="userSpaceOnUse">
            <stop stop-color="#392CFE"/>
            <stop offset="1" stop-color="#6C63FF"/>
        </linearGradient>
        <linearGradient id="paint1_linear_10_6" x1="61.1951" y1="43.2019" x2="74.6549" y2="43.2019" gradientUnits="userSpaceOnUse">
            <stop stop-color="#392CFE"/>
            <stop offset="1" stop-color="#392CFE"/>
        </linearGradient>
        <linearGradient id="paint2_linear_10_6" x1="82.3977" y1="94.6608" x2="86.508" y2="94.6608" gradientUnits="userSpaceOnUse">
            <stop stop-color="#392CFE"/>
            <stop offset="1" stop-color="#2980B9"/>
        </linearGradient>
    </defs>
<path d="M57.3259 13.9706V72.0667C57.262 75.7304 55.7577 79.2226 53.137 81.791C50.5162 84.3595 46.9887 85.7987 43.3141 85.7987C39.6396 85.7987 36.1121 84.3595 33.4913 81.791C30.8706 79.2226 29.3663 75.7304 29.3024 72.0667V57.3497H14.5528C10.8372 57.3497 7.27384 55.8778 4.64653 53.2578C2.01922 50.6379 0.543213 47.0844 0.543213 43.3792C0.543213 39.6739 2.01922 36.1205 4.64653 33.5005C7.27384 30.8805 10.8372 29.4086 14.5528 29.4086H29.2982V13.9706C29.362 10.3068 30.8663 6.81464 33.4871 4.24619C36.1078 1.67774 39.6354 0.238525 43.3099 0.238525C46.9845 0.238525 50.512 1.67774 53.1328 4.24619C55.7535 6.81464 57.2578 10.3068 57.3216 13.9706H57.3259Z" fill="url(#paint0_linear_10_6)"/>
<path d="M74.6549 28.8645V57.5394C67.2209 57.5394 61.1951 51.117 61.1951 43.2019C61.1951 35.2868 67.2209 28.8645 74.6549 28.8645Z" fill="url(#paint1_linear_10_6)"/>
<path d="M76.4988 28.8645V57.5394C83.9328 57.5394 89.9587 51.117 89.9587 43.2019C89.9587 35.2868 83.9328 28.8645 76.4988 28.8645Z" fill="#392CFE"/>
<path d="M5.52043 43.7544H26.169C26.1968 45.124 25.9503 46.4853 25.444 47.7587C24.9376 49.032 24.1816 50.1919 23.2201 51.1703C22.2587 52.1486 21.1111 52.9259 19.8447 53.4565C18.5783 53.9871 17.2184 54.2604 15.8447 54.2604C14.4711 54.2604 13.1112 53.9871 11.8448 53.4565C10.5783 52.9259 9.4308 52.1486 8.46934 51.1703C7.50789 50.1919 6.75185 49.032 6.24549 47.7587C5.73913 46.4853 5.49263 45.124 5.52043 43.7544Z" fill="#ECF0F1"/>
<path d="M51.131 8.49294L36.5293 23.0539C34.6477 21.1118 33.6063 18.5104 33.6295 15.81C33.6528 13.1097 34.7388 10.5265 36.6537 8.61694C38.5685 6.70742 41.159 5.6244 43.8669 5.60121C46.5748 5.57802 49.1835 6.6165 51.131 8.49294Z" fill="#ECF0F1"/>
<path d="M51.2029 78.9445L36.6055 64.3836C38.5418 62.4532 41.1677 61.369 43.9057 61.3694C45.2613 61.3696 46.6037 61.6361 47.8561 62.1536C49.1086 62.6711 50.2465 63.4296 51.205 64.3857C52.1635 65.3418 52.9237 66.4767 53.4423 67.7258C53.9609 68.9749 54.2278 70.3136 54.2276 71.6655C54.2274 73.0174 53.9602 74.3561 53.4412 75.605C52.9222 76.8539 52.1616 77.9887 51.2029 78.9445Z" fill="#ECF0F1"/>
<path d="M13.1996 98.7553C13.2037 98.7804 13.2019 98.8061 13.1944 98.8304C13.1868 98.8547 13.1737 98.8769 13.1561 98.8953C13.1385 98.9137 13.1168 98.9278 13.0928 98.9364C13.0688 98.945 13.0431 98.948 13.0178 98.945H10.8485C10.7301 98.945 10.6709 98.8734 10.6709 98.73C10.6709 98.3083 10.6709 97.7011 10.7174 96.8788C10.7639 96.0565 10.7639 95.4366 10.7639 95.0276C10.7639 94.9095 10.7639 94.842 10.7089 94.8378C10.3952 95.4494 10.1212 96.0804 9.88859 96.727C9.57848 97.4635 9.28247 98.186 9.00056 98.8944C8.95828 98.9872 8.90753 99.0463 8.84833 99.0589C8.76665 99.0636 8.68475 99.0636 8.60307 99.0589C8.38741 99.0589 8.26055 99.0167 8.22249 98.9366C8.0026 98.4981 7.73196 97.8318 7.35561 96.9884C6.97926 96.145 6.68325 95.4282 6.50987 95.0276C6.49833 95.0003 6.47926 94.9769 6.4549 94.9601C6.42297 95.0134 6.40821 95.0752 6.41261 95.1372C6.41261 95.5336 6.41261 96.1324 6.44221 96.9336C6.47182 97.7348 6.47604 98.3294 6.47604 98.73C6.47604 98.8734 6.41684 98.945 6.30267 98.945H4.23485C4.15027 98.945 4.10376 98.945 4.08261 98.9029C4.06225 98.8609 4.05349 98.8144 4.05724 98.7679C4.05724 98.3209 4.05724 97.6547 4.12067 96.7649C4.1841 95.8751 4.1841 95.2089 4.1841 94.7619C4.1841 94.3149 4.1841 93.4041 4.1249 92.101C4.1249 91.7637 4.09953 91.2577 4.06993 90.5914V90.4902C4.06993 90.4058 4.1545 90.3679 4.32788 90.3679C4.50125 90.3679 4.89029 90.3679 5.33853 90.3468C5.78677 90.3257 6.12506 90.3257 6.35341 90.3257C6.3957 90.3257 6.45913 90.4101 6.5437 90.5787L8.33243 94.5004C8.45929 94.7661 8.56501 94.8968 8.64958 94.8968C8.73416 94.8968 8.79336 94.745 8.93713 94.4372C9.35154 93.5938 9.96329 92.3048 10.7724 90.5703C10.84 90.4101 10.9162 90.3299 11.0007 90.3299C11.1191 90.3299 11.2967 90.3299 11.5335 90.3299C11.7703 90.3299 11.9564 90.351 12.079 90.351C12.2017 90.351 12.337 90.351 12.5484 90.3173C12.7599 90.2835 12.9121 90.2878 13.0178 90.2878C13.1235 90.2878 13.1996 90.3384 13.1996 90.4354C13.1996 90.9161 13.1996 91.633 13.1489 92.5902C13.0981 93.5474 13.0939 94.2769 13.0939 94.745C13.0939 95.2131 13.1151 95.8583 13.1489 96.7438C13.1827 97.6294 13.1996 98.3167 13.1996 98.7553Z" fill="#2D3E50"/>
<path d="M20.6168 97.0433C20.6025 97.3671 20.5672 97.6897 20.5111 98.009C20.4847 98.3195 20.4194 98.6255 20.3166 98.9198C20.296 98.9554 20.2664 98.985 20.2308 99.0057C20.1952 99.0264 20.1548 99.0375 20.1136 99.0379C20.0512 99.0344 19.9891 99.0274 19.9275 99.0168C19.6315 98.9803 18.7618 98.9606 17.3184 98.9578H15.9145H14.4979C14.3626 98.9578 14.2949 98.8987 14.2949 98.7807C14.2949 98.3252 14.3203 97.6379 14.371 96.7228C14.4218 95.8078 14.4514 95.1204 14.4514 94.665C14.4514 94.2096 14.426 93.3367 14.3753 92.0674C14.3753 91.7427 14.3414 91.2535 14.3076 90.6041V90.5198C14.3076 90.427 14.3584 90.3806 14.4598 90.3806C14.7643 90.3806 15.2168 90.3806 15.8257 90.4059C16.4346 90.4312 16.8871 90.4059 17.1873 90.4059C17.4876 90.4059 17.9358 90.4059 18.5363 90.4059C19.1368 90.4059 19.5892 90.3806 19.8852 90.3806C20.0967 90.3806 20.2193 90.4607 20.2531 90.6168C20.287 90.7728 20.3039 90.9963 20.3504 91.4601C20.3969 91.924 20.4138 92.2234 20.4138 92.3246C20.4166 92.3415 20.4154 92.3588 20.4103 92.3751C20.4052 92.3914 20.3963 92.4063 20.3844 92.4186C20.3725 92.4309 20.3578 92.4402 20.3416 92.4459C20.3255 92.4515 20.3082 92.4533 20.2912 92.4511H20.1601C19.0733 92.3583 18.0965 92.3162 17.2296 92.3162C17.014 92.3162 16.8829 92.3668 16.8321 92.468C16.8028 92.6236 16.7929 92.7822 16.8025 92.9403C16.7814 93.1315 16.8245 93.3243 16.9252 93.4885C16.9795 93.5347 17.0429 93.5691 17.1114 93.5895C17.1798 93.6098 17.2518 93.6156 17.3227 93.6065H17.5637H17.8555C18.3714 93.6065 18.8915 93.6065 19.4201 93.5644L19.7584 93.5348C19.8677 93.5202 19.9779 93.5117 20.0882 93.5095C20.1079 93.5069 20.128 93.5087 20.1468 93.5149C20.1657 93.5211 20.1829 93.5315 20.1972 93.5453C20.2115 93.5591 20.2224 93.576 20.2291 93.5946C20.2359 93.6133 20.2383 93.6332 20.2362 93.6529C20.1811 93.9611 20.1444 94.2723 20.1263 94.5849C20.0926 94.9099 20.0757 95.2364 20.0755 95.5632C20.0755 95.6475 20.0163 95.6855 19.8979 95.6855L19.3482 95.6264C19.1156 95.6011 18.5828 95.5885 17.754 95.5885H17.1154C16.9463 95.5885 16.849 95.6306 16.8194 95.7108C16.7898 95.7909 16.8194 95.8584 16.8194 96.0903C16.8072 96.2918 16.8272 96.4939 16.8786 96.6891C16.9505 96.8451 17.2127 96.9379 17.6652 96.9632H18.5574C18.7731 96.9632 19.0945 96.9632 19.5216 96.9084C19.9487 96.8535 20.27 96.8493 20.4815 96.8493C20.5703 96.824 20.6168 96.8957 20.6168 97.0433Z" fill="#2D3E50"/>
<path d="M32.8714 94.4246C32.8714 94.9095 32.8714 95.6306 32.9095 96.5963C32.9476 97.5619 32.9433 98.283 32.9433 98.768C32.9433 98.8481 32.9433 98.8987 32.8884 98.9198L32.7319 98.9451C32.3765 98.9816 32.0193 98.9971 31.662 98.9915C31.2822 99.004 30.902 98.9885 30.5245 98.9451C30.4061 98.9198 30.3469 98.8565 30.3469 98.7553C30.3469 98.8186 30.3469 98.4601 30.4019 97.68C30.4752 96.027 30.5118 94.9418 30.5118 94.4246C30.5118 94.0029 30.5118 93.3366 30.4696 92.4637C30.4273 91.5908 30.4273 90.9372 30.4273 90.5029C30.4273 90.4101 30.4738 90.3679 30.5668 90.3679C30.6598 90.3679 30.884 90.3679 31.1377 90.3679C31.3914 90.3679 31.5859 90.3679 31.7128 90.3679C31.8396 90.3679 32.0257 90.3679 32.2752 90.3679C32.5247 90.3679 32.6981 90.3679 32.8334 90.3679C32.9687 90.3679 33.011 90.4101 33.011 90.5029C33.011 90.9245 33.011 91.5908 32.9433 92.4637C32.8757 93.3366 32.8714 93.9902 32.8714 94.4246Z" fill="#2D3E50"/>
<path d="M41.2824 97.5619C41.2687 97.6589 41.2242 97.7491 41.1555 97.8191C40.7945 98.254 40.3386 98.6008 39.8227 98.8332C39.3067 99.0656 38.7444 99.1774 38.1785 99.1601C37.5973 99.1807 37.0186 99.0748 36.4826 98.8498C35.9466 98.6247 35.4661 98.286 35.0747 97.8571C34.2919 96.9858 33.8768 95.8467 33.916 94.6775C33.8764 93.5191 34.2732 92.3878 35.0282 91.5064C35.3954 91.069 35.8568 90.7198 36.3781 90.4847C36.8994 90.2496 37.4671 90.1347 38.039 90.1486C38.6138 90.1221 39.1876 90.2182 39.7221 90.4305C40.2567 90.6429 40.7396 90.9665 41.1386 91.3799C41.2048 91.4445 41.2479 91.529 41.2612 91.6203C41.1546 91.9173 41.0126 92.2004 40.8384 92.4637C40.6902 92.7632 40.5101 93.0459 40.3013 93.3071C40.2857 93.3237 40.2667 93.3368 40.2455 93.3456C40.2244 93.3543 40.2016 93.3584 40.1787 93.3577C40.0681 93.2881 39.9659 93.2061 39.8742 93.1131C39.6769 92.9338 39.4582 92.7795 39.223 92.6534C38.9121 92.4925 38.5669 92.4086 38.2166 92.4089C37.9409 92.3994 37.6668 92.4553 37.4169 92.5718C37.167 92.6884 36.9484 92.8623 36.7789 93.0793C36.4542 93.5312 36.2796 94.0732 36.2796 94.6291C36.2796 95.1849 36.4542 95.7269 36.7789 96.1788C36.9456 96.4 37.1633 96.5779 37.4136 96.6975C37.6638 96.8171 37.9392 96.875 38.2166 96.8661C38.5667 96.8661 38.9123 96.7868 39.2273 96.6342C39.4577 96.5221 39.6724 96.3803 39.8658 96.2125C39.9573 96.1248 40.058 96.047 40.166 95.9806C40.1902 95.9819 40.2139 95.9886 40.2351 96.0003C40.2563 96.012 40.2746 96.0283 40.2887 96.048C40.3563 96.1197 40.5339 96.377 40.8215 96.8113C40.9989 97.0462 41.1532 97.2975 41.2824 97.5619Z" fill="#2D3E50"/>
<path d="M54.2474 98.7554C54.2474 98.8819 54.1882 98.9452 54.0698 98.9452H51.8794C51.761 98.9452 51.6976 98.8735 51.6976 98.7301C51.6976 98.3084 51.6976 97.7012 51.7441 96.8789C51.7906 96.0566 51.7906 95.4367 51.7906 95.0277C51.7906 94.9096 51.7906 94.8421 51.7356 94.8379C51.4264 95.4516 51.1525 96.0823 50.9152 96.7271C50.6192 97.4524 50.3275 98.1735 50.0315 98.8946C49.9892 98.9873 49.9384 99.0464 49.8792 99.059C49.7975 99.0639 49.7156 99.0639 49.634 99.059C49.4225 99.059 49.2957 99.0169 49.2534 98.9367C49.0335 98.4898 48.7431 97.8375 48.3823 96.9801C47.9989 96.0721 47.717 95.4185 47.5365 95.0193C47.5236 94.9929 47.5048 94.9698 47.4816 94.9518C47.4476 95.0043 47.4327 95.0668 47.4393 95.1289C47.4393 95.5253 47.4393 96.1241 47.4689 96.9253C47.4985 97.7265 47.4985 98.3211 47.4985 98.7217C47.4985 98.8651 47.4393 98.9367 47.3251 98.9367H45.2784C45.1981 98.9367 45.1473 98.9367 45.1304 98.8946C45.1062 98.854 45.0959 98.8066 45.1008 98.7596C45.1008 98.3126 45.1008 97.6464 45.1642 96.7566C45.2277 95.8668 45.2319 95.2006 45.2319 94.7536C45.2319 94.3066 45.2319 93.3957 45.1685 92.0927C45.1685 91.7554 45.1685 91.2494 45.1135 90.5831V90.4819C45.1135 90.3975 45.1939 90.3596 45.3672 90.3596C45.5406 90.3596 45.9296 90.3596 46.3821 90.3385C46.8346 90.3174 47.1686 90.3174 47.3928 90.3174C47.4393 90.3174 47.4985 90.4018 47.5831 90.5704L49.3718 94.4921C49.4986 94.7578 49.6044 94.8885 49.6932 94.8885C49.782 94.8885 49.8327 94.7367 49.9807 94.4289C50.3895 93.5855 50.9998 92.2965 51.8117 90.562C51.8822 90.4018 51.9583 90.3216 52.0401 90.3216C52.1585 90.3216 52.3361 90.3216 52.5771 90.3216C52.8182 90.3216 53 90.3427 53.1184 90.3427C53.2368 90.3427 53.3763 90.3427 53.5878 90.309C53.7992 90.2753 53.9557 90.2795 54.0572 90.2795C54.1586 90.2795 54.239 90.3301 54.239 90.4271C54.239 90.9078 54.239 91.6247 54.1882 92.5819C54.1375 93.5391 54.1375 94.2686 54.1375 94.7367C54.1375 95.2048 54.1375 95.85 54.1925 96.7355C54.2474 97.6211 54.2474 98.3169 54.2474 98.7554Z" fill="#2D3E50"/>
<path d="M63.4532 98.7934C63.4532 98.8637 63.4024 98.9143 63.3009 98.9452C62.9222 98.9915 62.5404 99.007 62.1592 98.9916C61.7822 99.0035 61.4049 98.988 61.0301 98.9452C60.9637 98.9315 60.903 98.8979 60.8562 98.8489C60.8093 98.8 60.7786 98.7379 60.768 98.6711C60.7277 98.3368 60.6167 98.0149 60.4424 97.7265C59.8953 97.6814 59.3461 97.6673 58.7974 97.6844C58.4272 97.6622 58.0557 97.6806 57.6895 97.7392C57.5674 97.9386 57.4882 98.1612 57.4569 98.3928C57.3808 98.7344 57.2835 98.9157 57.1736 98.9452C56.71 98.9922 56.2438 99.0076 55.7781 98.9916C55.1523 98.9916 54.8394 98.9368 54.8394 98.8145C54.8394 98.6922 55.3003 97.406 56.2264 94.9096C57.2243 92.2052 57.767 90.7195 57.8544 90.4524C57.9051 90.2964 57.9601 90.2205 58.0278 90.2205C58.0954 90.2205 58.3069 90.2205 58.5394 90.25C58.772 90.2795 58.9412 90.2795 59.0553 90.2795C59.1695 90.2795 59.3302 90.2795 59.5459 90.2584C59.7615 90.2373 59.918 90.2584 60.0237 90.2584C60.1294 90.2584 60.1759 90.3259 60.2394 90.4608C60.4395 90.8909 61.0245 92.3584 61.9943 94.8633C62.9641 97.3681 63.4504 98.6781 63.4532 98.7934ZM59.1061 93.2229C59.0215 93.4 58.8735 93.7922 58.6832 94.391C58.5394 94.7527 58.429 95.1267 58.3534 95.5084C58.3534 95.5801 58.476 95.6223 58.7213 95.6307C58.8481 95.6307 59.0553 95.6307 59.3471 95.6307C59.6389 95.6307 59.77 95.597 59.7911 95.5337C59.7965 95.5045 59.7965 95.4745 59.7911 95.4452C59.7333 95.0676 59.6398 94.6963 59.512 94.3361C59.402 93.9564 59.2664 93.5844 59.1061 93.2229Z" fill="#2D3E50"/>
<path d="M72.1643 98.7933C72.1643 98.8636 72.1135 98.9142 72.012 98.9451C71.6333 98.9914 71.2515 99.0069 70.8703 98.9915C70.4933 99.0035 70.116 98.988 69.7412 98.9451C69.6741 98.9327 69.6123 98.9002 69.564 98.852C69.5157 98.8039 69.4831 98.7422 69.4706 98.6753C69.3311 98.0849 69.2253 97.7728 69.145 97.7307C68.5993 97.6856 68.0515 97.6715 67.5043 97.6885C67.1327 97.666 66.7597 97.6844 66.3921 97.7433C66.27 97.9428 66.1908 98.1654 66.1595 98.3969C66.0834 98.7385 65.9904 98.9198 65.8762 98.9494C65.4127 98.9964 64.9464 99.0119 64.4808 98.9957C63.8549 98.9957 63.542 98.9409 63.542 98.8186C63.542 98.6963 64.0029 97.4102 64.929 94.9138C65.9326 92.2094 66.4753 90.7236 66.557 90.4565C66.6078 90.3005 66.667 90.2246 66.7304 90.2246C66.7938 90.2246 67.0095 90.2246 67.2421 90.2541C67.4747 90.2836 67.6438 90.2836 67.7622 90.2836C67.8806 90.2836 68.0328 90.2836 68.2485 90.2626C68.4642 90.2415 68.6206 90.2626 68.7306 90.2626C68.8405 90.2626 68.8786 90.33 68.942 90.465C69.145 90.8951 69.73 92.3626 70.6969 94.8674C71.6639 97.3722 72.153 98.6809 72.1643 98.7933ZM67.8172 93.2228C67.7326 93.3999 67.5888 93.7921 67.3943 94.3909C67.2505 94.7526 67.14 95.1266 67.0645 95.5084C67.0645 95.5801 67.1871 95.6222 67.4324 95.6307C67.5592 95.6307 67.7664 95.6307 68.0582 95.6307C68.35 95.6307 68.4811 95.5969 68.5065 95.5337C68.5119 95.5044 68.5119 95.4744 68.5065 95.4451C68.4462 95.0676 68.3513 94.6964 68.2231 94.3361C68.1131 93.9563 67.9775 93.5844 67.8172 93.2228Z" fill="#2D3E50"/>
<path d="M81.9325 98.7554C81.9325 98.8819 81.8733 98.9452 81.7549 98.9452H79.5813C79.4629 98.9452 79.4037 98.8735 79.4037 98.7301C79.4037 98.3084 79.4037 97.7012 79.4502 96.8789C79.4968 96.0566 79.4968 95.4367 79.4968 95.0277C79.4968 94.9096 79.4968 94.8421 79.4418 94.8379C79.1303 95.4505 78.8564 96.0814 78.6214 96.7271C78.3254 97.4524 78.0336 98.1735 77.7376 98.8946C77.6953 98.9873 77.6446 99.0464 77.5854 99.059C77.5037 99.0639 77.4218 99.0639 77.3401 99.059C77.1245 99.059 77.0018 99.0169 76.9596 98.9367C76.7397 98.4898 76.4493 97.8375 76.0884 96.9801C75.705 96.0721 75.4231 95.4185 75.2427 95.0193C75.2297 94.9929 75.211 94.9698 75.1877 94.9518C75.152 95.0036 75.1356 95.0663 75.1412 95.1289C75.1412 95.5253 75.1412 96.1241 75.1751 96.9253C75.2089 97.7265 75.2047 98.3211 75.2047 98.7217C75.2047 98.8651 75.1455 98.9367 75.0313 98.9367H72.9846C72.9043 98.9367 72.8535 98.9367 72.8324 98.8946C72.812 98.8527 72.8032 98.8061 72.807 98.7596C72.807 98.3126 72.8281 97.6464 72.8704 96.7566C72.9127 95.8668 72.9339 95.2006 72.9339 94.7536C72.9339 94.3066 72.9339 93.3957 72.8747 92.0927C72.8747 91.7554 72.8747 91.2494 72.8197 90.5831V90.4819C72.8197 90.3975 72.9043 90.3596 73.0776 90.3596C73.251 90.3596 73.64 90.3596 74.0925 90.3385C74.545 90.3174 74.8791 90.3174 75.1032 90.3174C75.1455 90.3174 75.2089 90.4018 75.2935 90.5704L77.0822 94.4921C77.209 94.7578 77.3148 94.8885 77.3993 94.8885C77.4839 94.8885 77.5431 94.7367 77.6911 94.4289C78.0999 93.5855 78.7102 92.2965 79.5221 90.562C79.594 90.4018 79.6659 90.3216 79.7505 90.3216C79.8351 90.3216 80.0465 90.3216 80.2875 90.3216C80.5286 90.3216 80.7104 90.3427 80.8288 90.3427C80.9472 90.3427 81.0867 90.3427 81.2982 90.309C81.5096 90.2753 81.6661 90.2795 81.7676 90.2795C81.869 90.2795 81.9494 90.3301 81.9494 90.4271C81.9494 90.9078 81.9494 91.6247 81.8986 92.5819C81.8479 93.5391 81.8479 94.2686 81.8479 94.7367C81.8479 95.2048 81.8479 95.85 81.9029 96.7355C81.9578 97.6211 81.9325 98.3169 81.9325 98.7554Z" fill="#2D3E50"/>
<path d="M86.508 90.2837V99.038C84.2372 99.038 82.3977 97.0771 82.3977 94.6608C82.3977 92.2445 84.2372 90.2837 86.508 90.2837Z" fill="url(#paint2_linear_10_6)"/>
<path d="M87.0703 90.2837V99.038C89.3369 99.038 91.1764 97.0771 91.1764 94.6608C91.1764 92.2445 89.3453 90.2837 87.0703 90.2837Z" fill="#392CFE"/>
<path d="M21.4624 90.2836V99.0379C24.8453 99.0379 29.4969 99.4596 29.4969 94.6608C29.4969 90.1824 25.9152 90.2836 21.4624 90.2836Z" fill="#E84C3C"/>
<path d="M23.5769 92.392V96.9294C24.8455 96.9294 26.9598 96.9294 26.9598 94.6607C26.9598 92.2908 24.8455 92.2908 23.5769 92.392Z" fill="#ECF0F1"/>

</svg>
