<svg width="53" height="60" viewBox="0 0 53 60" fill="none" xmlns="http://www.w3.org/2000/svg">
<path d="M41.6429 15C41.6429 23.2852 34.8641 30 26.3935 30C18.1359 30 11.2507 23.2852 11.2507 15C11.2507 6.71602 18.1359 0 26.3935 0C34.8641 0 41.6429 6.71602 41.6429 15ZM33.965 42.4219C30.8063 43.2539 28.2864 46.1953 28.2864 49.6875V52.5C28.2864 52.9922 28.594 53.4727 28.9489 53.8242L30.8417 55.6992C31.5752 56.4375 32.7819 56.4375 33.5154 55.6992C34.2607 54.9727 34.2607 53.7773 33.5154 53.0508L32.0721 51.7266V49.6875C32.0721 47.6133 33.8703 45.9375 35.8578 45.9375C38.0583 45.9375 39.75 47.6133 39.75 49.6875V51.7266L38.4132 53.0508C37.6679 53.7773 37.6679 54.9727 38.4132 55.6992C39.1467 56.4375 40.3533 56.4375 41.0868 55.6992L42.9797 53.8242C43.3346 53.4727 43.5357 52.9922 43.5357 52.5V49.6875C43.5357 46.1953 41.1223 43.2539 37.8571 42.4219V36.1875C46.5525 38.2852 53 45.9492 53 55.3125V56.25C53 58.3242 51.3083 60 49.2143 60H3.78571C1.69529 60 0 58.3242 0 56.25V55.3125C0 46.0547 6.45109 38.2852 15.1429 36.1875V43.3945C12.41 44.2031 10.4107 46.7109 10.4107 49.6875C10.4107 53.3086 13.3801 56.25 17.0357 56.25C20.6913 56.25 23.6607 53.3086 23.6607 49.6875C23.6607 46.7109 21.6614 44.2031 18.9286 43.3945V35.6484C19.248 35.6367 19.5556 35.625 19.875 35.625H33.125C33.4444 35.625 33.752 35.6367 34.0714 35.6484L33.965 42.4219ZM19.7685 49.6875C19.7685 51.2461 18.6092 52.5 16.9292 52.5C15.4623 52.5 14.09 51.2461 14.09 49.6875C14.09 48.1289 15.4623 46.875 16.9292 46.875C18.6092 46.875 19.7685 48.1289 19.7685 49.6875Z" fill="#392CFE"/>
</svg>
