<svg width="43" height="53" viewBox="0 0 43 53" fill="none" xmlns="http://www.w3.org/2000/svg">
<path d="M9.46 0.0141608C9.46 0.0141608 23.8005 -0.861991 22.4675 11.1691C22.4675 11.1691 24.5208 3.16617 33.54 6.83105C33.54 6.83105 31.6373 14.7378 24.08 12.8145C24.08 12.8145 25.6495 6.98064 31.1858 6.76694C31.1858 6.76694 26.8965 5.66641 22.36 11.9811C22.36 11.9811 20.2315 1.884 12.298 1.32839C12.298 1.32839 20.382 3.40124 20.64 12.8145C20.64 12.8252 9.202 13.5625 9.46 0.0141608ZM43 33.7353C43 38.9175 41.9573 43.9179 39.56 47.8713C35.0235 51.1729 28.2725 53 21.5 53C14.7382 53 7.9765 51.1729 3.44 47.8713C1.04275 43.9179 0 38.9175 0 33.7353C0 28.5639 1.90275 23.6168 4.3 19.6635C8.8365 16.3619 14.7382 14.4707 21.5 14.4707C28.2725 14.4707 34.1635 16.3512 38.7 19.6635C41.0973 23.6168 43 28.5639 43 33.7353ZM12.9 44.8796C12.9 43.2234 11.5563 41.8878 9.89 41.8878C8.22375 41.8878 6.88 43.2234 6.88 44.8796C6.88 46.5357 8.22375 47.8713 9.89 47.8713C11.5563 47.8713 12.9 46.5357 12.9 44.8796ZM12.9 37.8062C12.9 36.1501 11.5563 34.8145 9.89 34.8145C8.22375 34.8145 6.88 36.1501 6.88 37.8062C6.88 39.4624 8.22375 40.798 9.89 40.798C11.5563 40.798 12.9 39.4624 12.9 37.8062ZM12.9 30.7329C12.9 29.0768 11.5563 27.7412 9.89 27.7412C8.22375 27.7412 6.88 29.0768 6.88 30.7329C6.88 32.3891 8.22375 33.7247 9.89 33.7247C11.5563 33.7247 12.9 32.3891 12.9 30.7329ZM20.64 44.8796C20.64 43.2234 19.2962 41.8878 17.63 41.8878C15.9637 41.8878 14.62 43.2234 14.62 44.8796C14.62 46.5357 15.9637 47.8713 17.63 47.8713C19.2962 47.8713 20.64 46.5357 20.64 44.8796ZM20.64 37.8062C20.64 36.1501 19.2962 34.8145 17.63 34.8145C15.9637 34.8145 14.62 36.1501 14.62 37.8062C14.62 39.4624 15.9637 40.798 17.63 40.798C19.2962 40.798 20.64 39.4624 20.64 37.8062ZM20.64 30.7329C20.64 29.0768 19.2962 27.7412 17.63 27.7412C15.9637 27.7412 14.62 29.0768 14.62 30.7329C14.62 32.3891 15.9637 33.7247 17.63 33.7247C19.2962 33.7247 20.64 32.3891 20.64 30.7329ZM28.38 44.8796C28.38 43.2234 27.0363 41.8878 25.37 41.8878C23.7038 41.8878 22.36 43.2234 22.36 44.8796C22.36 46.5357 23.7038 47.8713 25.37 47.8713C27.0363 47.8713 28.38 46.5357 28.38 44.8796ZM28.38 37.8062C28.38 36.1501 27.0363 34.8145 25.37 34.8145C23.7038 34.8145 22.36 36.1501 22.36 37.8062C22.36 39.4624 23.7038 40.798 25.37 40.798C27.0363 40.798 28.38 39.4624 28.38 37.8062ZM28.38 30.7329C28.38 29.0768 27.0363 27.7412 25.37 27.7412C23.7038 27.7412 22.36 29.0768 22.36 30.7329C22.36 32.3891 23.7038 33.7247 25.37 33.7247C27.0363 33.7247 28.38 32.3891 28.38 30.7329ZM36.12 44.8796C36.12 43.2234 34.7762 41.8878 33.11 41.8878C31.4438 41.8878 30.1 43.2234 30.1 44.8796C30.1 46.5357 31.4438 47.8713 33.11 47.8713C34.7762 47.8713 36.12 46.5357 36.12 44.8796ZM36.12 37.8062C36.12 36.1501 34.7762 34.8145 33.11 34.8145C31.4438 34.8145 30.1 36.1501 30.1 37.8062C30.1 39.4624 31.4438 40.798 33.11 40.798C34.7762 40.798 36.12 39.4624 36.12 37.8062ZM36.12 30.7329C36.12 29.0768 34.7762 27.7412 33.11 27.7412C31.4438 27.7412 30.1 29.0768 30.1 30.7329C30.1 32.3891 31.4438 33.7247 33.11 33.7247C34.7762 33.7247 36.12 32.3891 36.12 30.7329ZM38.7 26.5017C38.184 24.119 37.9045 22.5591 36.98 20.5183C32.809 18.392 27.2513 17.0991 21.5 17.0991C15.7488 17.0991 10.191 18.392 6.02 20.5183C5.074 22.6018 4.816 24.1404 4.3 26.5017C8.8365 25.6576 14.9103 24.9204 21.5 24.9204C28.0898 24.9204 34.1635 25.6576 38.7 26.5017Z" fill="#392CFE"/>
</svg>
