
<svg width="14" height="17" viewBox="0 0 14 17" fill="none" xmlns="http://www.w3.org/2000/svg">
<path d="M7 8.5C9.20938 8.5 11 6.59746 11 4.25C11 1.90254 9.20938 0 7 0C4.79063 0 3 1.90254 3 4.25C3 6.59746 4.79063 8.5 7 8.5ZM9.99375 9.58242L8.5 15.9375L7.5 11.4219L8.5 9.5625H5.5L6.5 11.4219L5.5 15.9375L4.00625 9.58242C1.77812 9.69531 0 11.6311 0 14.025V15.4062C0 16.2861 0.671875 17 1.5 17H12.5C13.3281 17 14 16.2861 14 15.4062V14.025C14 11.6311 12.2219 9.69531 9.99375 9.58242Z" fill="#392CFE"/>
</svg>
