<svg width="30" height="30" viewBox="0 0 30 30" fill="none" xmlns="http://www.w3.org/2000/svg">
<path d="M23.5714 7.5C23.5714 11.6426 19.7344 15 14.9397 15C10.2656 15 6.3683 11.6426 6.3683 7.5C6.3683 3.35801 10.2656 0 14.9397 0C19.7344 0 23.5714 3.35801 23.5714 7.5ZM19.2254 21.2109C17.4375 21.627 16.0112 23.0977 16.0112 24.8438V26.25C16.0112 26.4961 16.1853 26.7363 16.3862 26.9121L17.4576 27.8496C17.8728 28.2188 18.5558 28.2188 18.971 27.8496C19.3929 27.4863 19.3929 26.8887 18.971 26.5254L18.154 25.8633V24.8438C18.154 23.8066 19.1719 22.9688 20.2969 22.9688C21.5424 22.9688 22.5 23.8066 22.5 24.8438V25.8633L21.7433 26.5254C21.3214 26.8887 21.3214 27.4863 21.7433 27.8496C22.1585 28.2188 22.8415 28.2188 23.2567 27.8496L24.3281 26.9121C24.529 26.7363 24.6429 26.4961 24.6429 26.25V24.8438C24.6429 23.0977 23.2768 21.627 21.4286 21.2109V18.0938C26.3504 19.1426 30 22.9746 30 27.6562V28.125C30 29.1621 29.0424 30 27.8571 30H2.14286C0.959598 30 0 29.1621 0 28.125V27.6562C0 23.0273 3.65156 19.1426 8.57143 18.0938V21.6973C7.02455 22.1016 5.89286 23.3555 5.89286 24.8438C5.89286 26.6543 7.57366 28.125 9.64286 28.125C11.7121 28.125 13.3929 26.6543 13.3929 24.8438C13.3929 23.3555 12.2612 22.1016 10.7143 21.6973V17.8242C10.8951 17.8184 11.0692 17.8125 11.25 17.8125H18.75C18.9308 17.8125 19.1049 17.8184 19.2857 17.8242L19.2254 21.2109ZM11.1897 24.8438C11.1897 25.623 10.5335 26.25 9.58259 26.25C8.75223 26.25 7.97545 25.623 7.97545 24.8438C7.97545 24.0645 8.75223 23.4375 9.58259 23.4375C10.5335 23.4375 11.1897 24.0645 11.1897 24.8438Z" fill="#392CFE"/>
</svg>
