<svg width="140" height="93" viewBox="0 0 140 93" fill="none" xmlns="http://www.w3.org/2000/svg">
<path d="M3.81884 4.7C4.18284 5.05467 4.36484 5.49333 4.36484 6.016C4.36484 6.53867 4.18751 6.982 3.83284 7.346C3.47818 7.70067 3.03951 7.878 2.51684 7.878C1.98484 7.878 1.54151 7.70067 1.18684 7.346C0.832177 6.99133 0.654844 6.548 0.654844 6.016C0.654844 5.484 0.82751 5.04067 1.17284 4.686C1.52751 4.33133 1.97084 4.154 2.50284 4.154C3.02551 4.154 3.46418 4.336 3.81884 4.7ZM15.576 11H13.812L14.568 1.564H16.584L17.872 4.994C18.096 5.57267 18.306 6.15133 18.502 6.73C18.698 7.29933 18.838 7.724 18.922 8.004L19.048 8.438C19.3373 7.46733 19.7387 6.31933 20.252 4.994L21.568 1.564H23.584L24.508 11H22.744L22.408 7.318L22.156 4.014C21.82 4.97533 21.4187 6.07667 20.952 7.318L19.636 10.86H18.432L17.144 7.318L16.038 4.056C16.038 4.51333 15.9773 5.60067 15.856 7.318L15.576 11ZM31.6464 10.608C31.1517 10.916 30.4377 11.07 29.5044 11.07C28.375 11.07 27.4837 10.734 26.8304 10.062C26.177 9.39 25.8504 8.522 25.8504 7.458C25.8504 6.32867 26.1584 5.442 26.7744 4.798C27.3904 4.154 28.1604 3.832 29.0844 3.832C30.0084 3.832 30.741 4.112 31.2824 4.672C31.8237 5.232 32.0944 6.04867 32.0944 7.122C32.0944 7.38333 32.0617 7.71933 31.9964 8.13H27.5444C27.6657 8.64333 27.9177 9.03533 28.3004 9.306C28.6924 9.57667 29.1777 9.712 29.7564 9.712C30.503 9.712 31.133 9.52533 31.6464 9.152V10.608ZM29.1264 5.148C28.725 5.148 28.375 5.29733 28.0764 5.596C27.787 5.88533 27.6004 6.31 27.5164 6.87H30.4984V6.66C30.4797 6.20267 30.3537 5.83867 30.1204 5.568C29.8964 5.288 29.565 5.148 29.1264 5.148ZM34.9825 7.486C34.9825 8.13 35.1458 8.65267 35.4725 9.054C35.7992 9.45533 36.2052 9.656 36.6905 9.656C37.1945 9.656 37.6145 9.46467 37.9505 9.082C38.2865 8.69 38.4545 8.12533 38.4545 7.388C38.4545 6.66933 38.2772 6.13267 37.9225 5.778C37.5678 5.414 37.1618 5.232 36.7045 5.232C36.2192 5.232 35.8085 5.43267 35.4725 5.834C35.1458 6.226 34.9825 6.77667 34.9825 7.486ZM40.1345 11H38.4545V9.894C37.9692 10.6967 37.2505 11.098 36.2985 11.098C35.3652 11.098 34.6232 10.7433 34.0725 10.034C33.5312 9.32467 33.2605 8.466 33.2605 7.458C33.2605 6.338 33.5452 5.45133 34.1145 4.798C34.6932 4.13533 35.4305 3.804 36.3265 3.804C37.2505 3.804 37.9598 4.20067 38.4545 4.994V1.102H40.1345V11ZM43.701 11H42.021V3.902H43.701V11ZM43.869 1.774C43.869 2.06333 43.771 2.306 43.575 2.502C43.379 2.698 43.141 2.796 42.861 2.796C42.581 2.796 42.343 2.698 42.147 2.502C41.951 2.306 41.853 2.06333 41.853 1.774C41.853 1.494 41.951 1.256 42.147 1.06C42.343 0.864 42.581 0.766 42.861 0.766C43.141 0.766 43.379 0.864 43.575 1.06C43.771 1.256 43.869 1.494 43.869 1.774ZM50.7257 10.692C50.2311 10.9813 49.6151 11.126 48.8777 11.126C47.7857 11.126 46.8991 10.7807 46.2177 10.09C45.5457 9.39933 45.2097 8.52667 45.2097 7.472C45.2191 6.436 45.5551 5.56333 46.2177 4.854C46.8897 4.14467 47.8044 3.79 48.9617 3.79C49.6524 3.79 50.2404 3.92067 50.7257 4.182V5.666C50.2591 5.36733 49.7271 5.218 49.1297 5.218C48.4764 5.218 47.9491 5.42333 47.5477 5.834C47.1464 6.24467 46.9411 6.79067 46.9317 7.472C46.9504 8.144 47.1511 8.68533 47.5337 9.096C47.9257 9.50667 48.4531 9.712 49.1157 9.712C49.6944 9.712 50.2311 9.55333 50.7257 9.236V10.692ZM54.5999 9.81C54.9732 9.81 55.2626 9.70267 55.4679 9.488C55.6826 9.264 55.7899 8.97467 55.7899 8.62V7.948H54.9219C54.4832 7.948 54.1472 8.04133 53.9139 8.228C53.6806 8.40533 53.5639 8.634 53.5639 8.914C53.5639 9.51133 53.9092 9.81 54.5999 9.81ZM55.8599 10.146C55.5332 10.7527 54.9172 11.056 54.0119 11.056C53.3399 11.056 52.8032 10.86 52.4019 10.468C52.0099 10.076 51.8139 9.58133 51.8139 8.984C51.8139 8.312 52.0659 7.78467 52.5699 7.402C53.0739 7.01933 53.8019 6.828 54.7539 6.828H55.7899V6.394C55.7899 6.002 55.6872 5.70333 55.4819 5.498C55.2766 5.29267 54.9266 5.19 54.4319 5.19C53.6759 5.19 52.9806 5.4 52.3459 5.82V4.266C52.8779 3.93933 53.6432 3.776 54.6419 3.776C56.5646 3.776 57.5259 4.672 57.5259 6.464V11H55.8599V10.146ZM61.0096 11H59.3296V1.102H61.0096V11ZM70.289 10.832C69.9623 10.9907 69.5423 11.07 69.029 11.07C67.4983 11.07 66.733 10.2953 66.733 8.746V5.162H65.669V3.902H66.733V2.194H68.413V3.902H70.177V5.162H68.413V8.774C68.413 9.07267 68.4923 9.30133 68.651 9.46C68.8097 9.60933 69.029 9.684 69.309 9.684C69.6637 9.684 69.9903 9.586 70.289 9.39V10.832ZM73.4237 11H71.7437V3.902H73.4237V11ZM73.5917 1.774C73.5917 2.06333 73.4937 2.306 73.2977 2.502C73.1017 2.698 72.8637 2.796 72.5837 2.796C72.3037 2.796 72.0657 2.698 71.8697 2.502C71.6737 2.306 71.5757 2.06333 71.5757 1.774C71.5757 1.494 71.6737 1.256 71.8697 1.06C72.0657 0.864 72.3037 0.766 72.5837 0.766C72.8637 0.766 73.1017 0.864 73.2977 1.06C73.4937 1.256 73.5917 1.494 73.5917 1.774ZM76.9904 13.674H75.3104V3.902H76.9904V4.994C77.4944 4.20067 78.2177 3.804 79.1604 3.804C80.0844 3.804 80.8171 4.13533 81.3584 4.798C81.9091 5.46067 82.1844 6.33333 82.1844 7.416C82.1844 8.48 81.9091 9.362 81.3584 10.062C80.8171 10.7527 80.0797 11.098 79.1464 11.098C78.1944 11.098 77.4757 10.7107 76.9904 9.936V13.674ZM77.5224 5.778C77.1677 6.142 76.9904 6.68333 76.9904 7.402C76.9904 8.12067 77.1631 8.676 77.5084 9.068C77.8537 9.46 78.2691 9.656 78.7544 9.656C79.2584 9.656 79.6691 9.46467 79.9864 9.082C80.3037 8.69 80.4624 8.144 80.4624 7.444C80.4624 6.744 80.3037 6.20267 79.9864 5.82C79.6691 5.428 79.2677 5.232 78.7824 5.232C78.2971 5.232 77.8771 5.414 77.5224 5.778ZM88.2569 8.956C88.2569 9.61867 88.0189 10.1367 87.5429 10.51C87.0669 10.8833 86.4322 11.07 85.6389 11.07C84.7616 11.07 84.0522 10.9253 83.5109 10.636V9.096C84.1362 9.516 84.8129 9.726 85.5409 9.726C85.8489 9.726 86.0869 9.67 86.2549 9.558C86.4322 9.43667 86.5209 9.27333 86.5209 9.068C86.5209 8.94667 86.4929 8.83933 86.4369 8.746C86.3809 8.64333 86.2736 8.54533 86.1149 8.452C85.9562 8.35867 85.8302 8.29333 85.7369 8.256C85.6529 8.20933 85.4802 8.13 85.2189 8.018C85.1909 8.00867 85.1676 7.99933 85.1489 7.99C85.1396 7.98067 85.1209 7.97133 85.0929 7.962C85.0649 7.95267 85.0416 7.94333 85.0229 7.934C83.9869 7.46733 83.4689 6.79533 83.4689 5.918C83.4689 5.26467 83.7162 4.75133 84.2109 4.378C84.7056 4.00467 85.3262 3.818 86.0729 3.818C86.7916 3.818 87.3889 3.92067 87.8649 4.126V5.61C87.3982 5.33 86.8149 5.19 86.1149 5.19C85.8256 5.19 85.5969 5.25533 85.4289 5.386C85.2702 5.50733 85.1909 5.666 85.1909 5.862C85.1909 5.93667 85.2002 6.00667 85.2189 6.072C85.2469 6.13733 85.2889 6.20267 85.3449 6.268C85.4102 6.324 85.4709 6.37533 85.5269 6.422C85.5829 6.46867 85.6622 6.52 85.7649 6.576C85.8676 6.62267 85.9562 6.66467 86.0309 6.702C86.1056 6.73933 86.2082 6.786 86.3389 6.842C86.4696 6.898 86.5722 6.94467 86.6469 6.982C87.1416 7.22467 87.5336 7.49533 87.8229 7.794C88.1122 8.09267 88.2569 8.48 88.2569 8.956ZM3.81884 31.7C4.18284 32.0547 4.36484 32.4933 4.36484 33.016C4.36484 33.5387 4.18751 33.982 3.83284 34.346C3.47818 34.7007 3.03951 34.878 2.51684 34.878C1.98484 34.878 1.54151 34.7007 1.18684 34.346C0.832177 33.9913 0.654844 33.548 0.654844 33.016C0.654844 32.484 0.82751 32.0407 1.17284 31.686C1.52751 31.3313 1.97084 31.154 2.50284 31.154C3.02551 31.154 3.46418 31.336 3.81884 31.7ZM15.744 38H13.98V28.564H15.982L18.25 32.498C18.6233 33.142 18.9547 33.744 19.244 34.304C19.5427 34.8547 19.7433 35.2467 19.846 35.48L20 35.83C19.9253 35.0553 19.888 33.9447 19.888 32.498V28.564H21.666V38H19.65L17.354 34.08C16.99 33.464 16.6587 32.876 16.36 32.316C16.0707 31.7467 15.87 31.336 15.758 31.084L15.59 30.692C15.6927 31.5787 15.744 32.7033 15.744 34.066V38ZM29.6387 38H27.9447V36.838C27.5713 37.6593 26.8433 38.07 25.7607 38.07C25.042 38.07 24.482 37.8647 24.0807 37.454C23.6793 37.0433 23.4787 36.46 23.4787 35.704V30.902H25.1587V35.312C25.1587 35.76 25.266 36.1007 25.4807 36.334C25.7047 36.5673 26.008 36.684 26.3907 36.684C26.876 36.684 27.254 36.5207 27.5247 36.194C27.8047 35.8673 27.9447 35.3727 27.9447 34.71V30.902H29.6387V38ZM35.3847 37.832C35.058 37.9907 34.638 38.07 34.1247 38.07C32.594 38.07 31.8287 37.2953 31.8287 35.746V32.162H30.7647V30.902H31.8287V29.194H33.5087V30.902H35.2727V32.162H33.5087V35.774C33.5087 36.0727 33.588 36.3013 33.7467 36.46C33.9054 36.6093 34.1247 36.684 34.4047 36.684C34.7594 36.684 35.086 36.586 35.3847 36.39V37.832ZM38.4494 38H36.7554L36.7694 30.902H38.4494V32.162C38.776 31.2847 39.3734 30.846 40.2414 30.846C40.4374 30.846 40.596 30.86 40.7174 30.888V32.512C40.5027 32.4187 40.2647 32.372 40.0034 32.372C39.546 32.372 39.1727 32.5587 38.8834 32.932C38.594 33.3053 38.4494 33.772 38.4494 34.332V38ZM43.4549 38H41.7749V30.902H43.4549V38ZM43.6229 28.774C43.6229 29.0633 43.5249 29.306 43.3289 29.502C43.1329 29.698 42.8949 29.796 42.6149 29.796C42.3349 29.796 42.0969 29.698 41.9009 29.502C41.7049 29.306 41.6069 29.0633 41.6069 28.774C41.6069 28.494 41.7049 28.256 41.9009 28.06C42.0969 27.864 42.3349 27.766 42.6149 27.766C42.8949 27.766 43.1329 27.864 43.3289 28.06C43.5249 28.256 43.6229 28.494 43.6229 28.774ZM49.2616 37.832C48.935 37.9907 48.515 38.07 48.0016 38.07C46.471 38.07 45.7056 37.2953 45.7056 35.746V32.162H44.6416V30.902H45.7056V29.194H47.3856V30.902H49.1496V32.162H47.3856V35.774C47.3856 36.0727 47.465 36.3013 47.6236 36.46C47.7823 36.6093 48.0016 36.684 48.2816 36.684C48.6363 36.684 48.963 36.586 49.2616 36.39V37.832ZM52.3963 38H50.7163V30.902H52.3963V38ZM52.5643 28.774C52.5643 29.0633 52.4663 29.306 52.2703 29.502C52.0743 29.698 51.8363 29.796 51.5563 29.796C51.2763 29.796 51.0383 29.698 50.8423 29.502C50.6463 29.306 50.5483 29.0633 50.5483 28.774C50.5483 28.494 50.6463 28.256 50.8423 28.06C51.0383 27.864 51.2763 27.766 51.5563 27.766C51.8363 27.766 52.0743 27.864 52.2703 28.06C52.4663 28.256 52.5643 28.494 52.5643 28.774ZM60.751 34.43C60.751 35.5033 60.4477 36.3853 59.841 37.076C59.2437 37.7667 58.4037 38.112 57.321 38.112C56.2477 38.112 55.4077 37.776 54.801 37.104C54.2037 36.432 53.905 35.5733 53.905 34.528C53.905 33.4453 54.2177 32.554 54.843 31.854C55.4684 31.1447 56.2944 30.79 57.321 30.79C58.413 30.79 59.2577 31.1353 59.855 31.826C60.4524 32.5073 60.751 33.3753 60.751 34.43ZM55.669 34.472C55.669 35.1253 55.8137 35.6713 56.103 36.11C56.3924 36.5487 56.803 36.768 57.335 36.768C57.8857 36.768 58.301 36.5533 58.581 36.124C58.861 35.6947 59.001 35.1487 59.001 34.486C59.001 33.8047 58.8657 33.2493 58.595 32.82C58.3244 32.3813 57.8997 32.162 57.321 32.162C56.789 32.162 56.3784 32.3813 56.089 32.82C55.809 33.2587 55.669 33.8093 55.669 34.472ZM68.3591 38H66.6791V33.632C66.6791 33.1653 66.5671 32.8153 66.3431 32.582C66.1191 32.3393 65.8157 32.218 65.4331 32.218C64.9944 32.218 64.6257 32.3907 64.3271 32.736C64.0284 33.072 63.8791 33.5573 63.8791 34.192V38H62.1991V30.902H63.8791V32.12C64.2804 31.252 65.0084 30.818 66.0631 30.818C66.7724 30.818 67.3324 31.0327 67.7431 31.462C68.1537 31.8913 68.3591 32.498 68.3591 33.282V38ZM3.81884 58.7C4.18284 59.0547 4.36484 59.4933 4.36484 60.016C4.36484 60.5387 4.18751 60.982 3.83284 61.346C3.47818 61.7007 3.03951 61.878 2.51684 61.878C1.98484 61.878 1.54151 61.7007 1.18684 61.346C0.832177 60.9913 0.654844 60.548 0.654844 60.016C0.654844 59.484 0.82751 59.0407 1.17284 58.686C1.52751 58.3313 1.97084 58.154 2.50284 58.154C3.02551 58.154 3.46418 58.336 3.81884 58.7ZM20.868 64.552C20.2893 64.9253 19.4773 65.112 18.432 65.112C17.032 65.112 15.8747 64.6733 14.96 63.796C14.0547 62.9093 13.602 61.738 13.602 60.282C13.602 58.854 14.05 57.692 14.946 56.796C15.8513 55.8907 17.0133 55.438 18.432 55.438C19.468 55.438 20.2753 55.6107 20.854 55.956V57.678C20.1447 57.2673 19.3607 57.062 18.502 57.062C17.6433 57.062 16.9247 57.356 16.346 57.944C15.7767 58.5227 15.492 59.302 15.492 60.282C15.492 61.262 15.7767 62.0413 16.346 62.62C16.9247 63.1987 17.676 63.488 18.6 63.488C19.4867 63.488 20.2427 63.2547 20.868 62.788V64.552ZM28.6012 65H26.9213V60.646C26.9213 60.198 26.8046 59.848 26.5713 59.596C26.3473 59.344 26.0533 59.218 25.6893 59.218C25.2879 59.218 24.9239 59.372 24.5973 59.68C24.2799 59.988 24.1213 60.492 24.1213 61.192V65H22.4413V55.102H24.1213V59.106C24.5039 58.2473 25.2273 57.818 26.2913 57.818C26.9819 57.818 27.5373 58.0373 27.9573 58.476C28.3866 58.9053 28.6012 59.5307 28.6012 60.352V65ZM35.7753 64.608C35.2806 64.916 34.5666 65.07 33.6333 65.07C32.5039 65.07 31.6126 64.734 30.9593 64.062C30.3059 63.39 29.9793 62.522 29.9793 61.458C29.9793 60.3287 30.2873 59.442 30.9033 58.798C31.5193 58.154 32.2893 57.832 33.2133 57.832C34.1373 57.832 34.8699 58.112 35.4113 58.672C35.9526 59.232 36.2233 60.0487 36.2233 61.122C36.2233 61.3833 36.1906 61.7193 36.1253 62.13H31.6733C31.7946 62.6433 32.0466 63.0353 32.4293 63.306C32.8213 63.5767 33.3066 63.712 33.8853 63.712C34.6319 63.712 35.2619 63.5253 35.7753 63.152V64.608ZM33.2553 59.148C32.8539 59.148 32.5039 59.2973 32.2053 59.596C31.9159 59.8853 31.7293 60.31 31.6453 60.87H34.6273V60.66C34.6086 60.2027 34.4826 59.8387 34.2493 59.568C34.0253 59.288 33.6939 59.148 33.2553 59.148ZM42.9054 64.692C42.4108 64.9813 41.7948 65.126 41.0574 65.126C39.9654 65.126 39.0788 64.7807 38.3974 64.09C37.7254 63.3993 37.3894 62.5267 37.3894 61.472C37.3988 60.436 37.7348 59.5633 38.3974 58.854C39.0694 58.1447 39.9841 57.79 41.1414 57.79C41.8321 57.79 42.4201 57.9207 42.9054 58.182V59.666C42.4388 59.3673 41.9068 59.218 41.3094 59.218C40.6561 59.218 40.1288 59.4233 39.7274 59.834C39.3261 60.2447 39.1208 60.7907 39.1114 61.472C39.1301 62.144 39.3308 62.6853 39.7134 63.096C40.1054 63.5067 40.6328 63.712 41.2954 63.712C41.8741 63.712 42.4108 63.5533 42.9054 63.236V64.692ZM46.0236 65H44.3436V55.27H46.0236V61.234L48.5296 57.902H50.4896L47.8856 61.29L50.5456 65H48.5716L46.0236 61.332V65ZM61.2207 65H59.5267V63.838C59.1534 64.6593 58.4254 65.07 57.3427 65.07C56.624 65.07 56.064 64.8647 55.6627 64.454C55.2614 64.0433 55.0607 63.46 55.0607 62.704V57.902H56.7407V62.312C56.7407 62.76 56.848 63.1007 57.0627 63.334C57.2867 63.5673 57.59 63.684 57.9727 63.684C58.458 63.684 58.836 63.5207 59.1067 63.194C59.3867 62.8673 59.5267 62.3727 59.5267 61.71V57.902H61.2207V65ZM64.7267 67.674H63.0467V57.902H64.7267V58.994C65.2307 58.2007 65.9541 57.804 66.8967 57.804C67.8207 57.804 68.5534 58.1353 69.0947 58.798C69.6454 59.4607 69.9207 60.3333 69.9207 61.416C69.9207 62.48 69.6454 63.362 69.0947 64.062C68.5534 64.7527 67.8161 65.098 66.8827 65.098C65.9307 65.098 65.2121 64.7107 64.7267 63.936V67.674ZM65.2587 59.778C64.9041 60.142 64.7267 60.6833 64.7267 61.402C64.7267 62.1207 64.8994 62.676 65.2447 63.068C65.5901 63.46 66.0054 63.656 66.4907 63.656C66.9947 63.656 67.4054 63.4647 67.7227 63.082C68.0401 62.69 68.1987 62.144 68.1987 61.444C68.1987 60.744 68.0401 60.2027 67.7227 59.82C67.4054 59.428 67.0041 59.232 66.5187 59.232C66.0334 59.232 65.6134 59.414 65.2587 59.778ZM77.8139 57.02H76.6659V60.1H77.8419C78.3832 60.1 78.7892 59.9647 79.0599 59.694C79.3305 59.414 79.4659 59.0267 79.4659 58.532C79.4659 58.0467 79.3212 57.6733 79.0319 57.412C78.7519 57.1507 78.3459 57.02 77.8139 57.02ZM76.6659 65H74.9019V55.564H77.8139C78.8872 55.564 79.7272 55.8347 80.3339 56.376C80.9499 56.9173 81.2579 57.6407 81.2579 58.546C81.2485 59.218 81.0852 59.7873 80.7679 60.254C80.4505 60.7113 80.0165 61.052 79.4659 61.276L81.8879 65H79.7739L77.6319 61.556H76.6659V65ZM88.494 64.608C87.9993 64.916 87.2853 65.07 86.352 65.07C85.2227 65.07 84.3313 64.734 83.678 64.062C83.0247 63.39 82.698 62.522 82.698 61.458C82.698 60.3287 83.006 59.442 83.622 58.798C84.238 58.154 85.008 57.832 85.932 57.832C86.856 57.832 87.5887 58.112 88.13 58.672C88.6713 59.232 88.942 60.0487 88.942 61.122C88.942 61.3833 88.9093 61.7193 88.844 62.13H84.392C84.5133 62.6433 84.7653 63.0353 85.148 63.306C85.54 63.5767 86.0253 63.712 86.604 63.712C87.3507 63.712 87.9807 63.5253 88.494 63.152V64.608ZM85.974 59.148C85.5727 59.148 85.2227 59.2973 84.924 59.596C84.6347 59.8853 84.448 60.31 84.364 60.87H87.346V60.66C87.3273 60.2027 87.2013 59.8387 86.968 59.568C86.744 59.288 86.4127 59.148 85.974 59.148ZM100.552 65H98.8582V60.646C98.8582 59.694 98.4942 59.218 97.7662 59.218C97.4022 59.218 97.0755 59.3767 96.7862 59.694C96.5062 60.0113 96.3662 60.5107 96.3662 61.192V65H94.6722V60.646C94.6722 59.694 94.3082 59.218 93.5802 59.218C93.2162 59.218 92.8895 59.3767 92.6002 59.694C92.3108 60.0113 92.1662 60.5107 92.1662 61.192V65H90.4862V57.902H92.1662V59.022C92.5675 58.2193 93.2348 57.818 94.1682 57.818C95.2042 57.818 95.8762 58.266 96.1842 59.162C96.3708 58.7327 96.6508 58.4013 97.0242 58.168C97.3975 57.9347 97.8222 57.818 98.2982 57.818C99.0168 57.818 99.5722 58.0373 99.9642 58.476C100.356 58.9053 100.552 59.5213 100.552 60.324V65ZM104.035 65H102.355V57.902H104.035V65ZM104.203 55.774C104.203 56.0633 104.105 56.306 103.909 56.502C103.713 56.698 103.475 56.796 103.195 56.796C102.915 56.796 102.677 56.698 102.481 56.502C102.285 56.306 102.187 56.0633 102.187 55.774C102.187 55.494 102.285 55.256 102.481 55.06C102.677 54.864 102.915 54.766 103.195 54.766C103.475 54.766 103.713 54.864 103.909 55.06C104.105 55.256 104.203 55.494 104.203 55.774ZM112.082 65H110.402V60.632C110.402 60.1653 110.29 59.8153 110.066 59.582C109.842 59.3393 109.538 59.218 109.156 59.218C108.717 59.218 108.348 59.3907 108.05 59.736C107.751 60.072 107.602 60.5573 107.602 61.192V65H105.922V57.902H107.602V59.12C108.003 58.252 108.731 57.818 109.786 57.818C110.495 57.818 111.055 58.0327 111.466 58.462C111.876 58.8913 112.082 59.498 112.082 60.282V65ZM115.182 61.486C115.182 62.13 115.345 62.6527 115.672 63.054C115.998 63.4553 116.404 63.656 116.89 63.656C117.394 63.656 117.814 63.4647 118.15 63.082C118.486 62.69 118.654 62.1253 118.654 61.388C118.654 60.6693 118.476 60.1327 118.122 59.778C117.767 59.414 117.361 59.232 116.904 59.232C116.418 59.232 116.008 59.4327 115.672 59.834C115.345 60.226 115.182 60.7767 115.182 61.486ZM120.334 65H118.654V63.894C118.168 64.6967 117.45 65.098 116.498 65.098C115.564 65.098 114.822 64.7433 114.272 64.034C113.73 63.3247 113.46 62.466 113.46 61.458C113.46 60.338 113.744 59.4513 114.314 58.798C114.892 58.1353 115.63 57.804 116.526 57.804C117.45 57.804 118.159 58.2007 118.654 58.994V55.102H120.334V65ZM127.568 64.608C127.074 64.916 126.36 65.07 125.426 65.07C124.297 65.07 123.406 64.734 122.752 64.062C122.099 63.39 121.772 62.522 121.772 61.458C121.772 60.3287 122.08 59.442 122.696 58.798C123.312 58.154 124.082 57.832 125.006 57.832C125.93 57.832 126.663 58.112 127.204 58.672C127.746 59.232 128.016 60.0487 128.016 61.122C128.016 61.3833 127.984 61.7193 127.918 62.13H123.466C123.588 62.6433 123.84 63.0353 124.222 63.306C124.614 63.5767 125.1 63.712 125.678 63.712C126.425 63.712 127.055 63.5253 127.568 63.152V64.608ZM125.048 59.148C124.647 59.148 124.297 59.2973 123.998 59.596C123.709 59.8853 123.522 60.31 123.438 60.87H126.42V60.66C126.402 60.2027 126.276 59.8387 126.042 59.568C125.818 59.288 125.487 59.148 125.048 59.148ZM131.24 65H129.546L129.56 57.902H131.24V59.162C131.567 58.2847 132.164 57.846 133.032 57.846C133.228 57.846 133.387 57.86 133.508 57.888V59.512C133.294 59.4187 133.056 59.372 132.794 59.372C132.337 59.372 131.964 59.5587 131.674 59.932C131.385 60.3053 131.24 60.772 131.24 61.332V65ZM139.13 62.956C139.13 63.6187 138.892 64.1367 138.416 64.51C137.94 64.8833 137.305 65.07 136.512 65.07C135.635 65.07 134.925 64.9253 134.384 64.636V63.096C135.009 63.516 135.686 63.726 136.414 63.726C136.722 63.726 136.96 63.67 137.128 63.558C137.305 63.4367 137.394 63.2733 137.394 63.068C137.394 62.9467 137.366 62.8393 137.31 62.746C137.254 62.6433 137.147 62.5453 136.988 62.452C136.829 62.3587 136.703 62.2933 136.61 62.256C136.526 62.2093 136.353 62.13 136.092 62.018C136.064 62.0087 136.041 61.9993 136.022 61.99C136.013 61.9807 135.994 61.9713 135.966 61.962C135.938 61.9527 135.915 61.9433 135.896 61.934C134.86 61.4673 134.342 60.7953 134.342 59.918C134.342 59.2647 134.589 58.7513 135.084 58.378C135.579 58.0047 136.199 57.818 136.946 57.818C137.665 57.818 138.262 57.9207 138.738 58.126V59.61C138.271 59.33 137.688 59.19 136.988 59.19C136.699 59.19 136.47 59.2553 136.302 59.386C136.143 59.5073 136.064 59.666 136.064 59.862C136.064 59.9367 136.073 60.0067 136.092 60.072C136.12 60.1373 136.162 60.2027 136.218 60.268C136.283 60.324 136.344 60.3753 136.4 60.422C136.456 60.4687 136.535 60.52 136.638 60.576C136.741 60.6227 136.829 60.6647 136.904 60.702C136.979 60.7393 137.081 60.786 137.212 60.842C137.343 60.898 137.445 60.9447 137.52 60.982C138.015 61.2247 138.407 61.4953 138.696 61.794C138.985 62.0927 139.13 62.48 139.13 62.956ZM3.81884 85.7C4.18284 86.0547 4.36484 86.4933 4.36484 87.016C4.36484 87.5387 4.18751 87.982 3.83284 88.346C3.47818 88.7007 3.03951 88.878 2.51684 88.878C1.98484 88.878 1.54151 88.7007 1.18684 88.346C0.832177 87.9913 0.654844 87.548 0.654844 87.016C0.654844 86.484 0.82751 86.0407 1.17284 85.686C1.52751 85.3313 1.97084 85.154 2.50284 85.154C3.02551 85.154 3.46418 85.336 3.81884 85.7ZM15.576 92H13.812L14.568 82.564H16.584L17.872 85.994C18.096 86.5727 18.306 87.1513 18.502 87.73C18.698 88.2993 18.838 88.724 18.922 89.004L19.048 89.438C19.3373 88.4673 19.7387 87.3193 20.252 85.994L21.568 82.564H23.584L24.508 92H22.744L22.408 88.318L22.156 85.014C21.82 85.9753 21.4187 87.0767 20.952 88.318L19.636 91.86H18.432L17.144 88.318L16.038 85.056C16.038 85.5133 15.9773 86.6007 15.856 88.318L15.576 92ZM31.6464 91.608C31.1517 91.916 30.4377 92.07 29.5044 92.07C28.375 92.07 27.4837 91.734 26.8304 91.062C26.177 90.39 25.8504 89.522 25.8504 88.458C25.8504 87.3287 26.1584 86.442 26.7744 85.798C27.3904 85.154 28.1604 84.832 29.0844 84.832C30.0084 84.832 30.741 85.112 31.2824 85.672C31.8237 86.232 32.0944 87.0487 32.0944 88.122C32.0944 88.3833 32.0617 88.7193 31.9964 89.13H27.5444C27.6657 89.6433 27.9177 90.0353 28.3004 90.306C28.6924 90.5767 29.1777 90.712 29.7564 90.712C30.503 90.712 31.133 90.5253 31.6464 90.152V91.608ZM29.1264 86.148C28.725 86.148 28.375 86.2973 28.0764 86.596C27.787 86.8853 27.6004 87.31 27.5164 87.87H30.4984V87.66C30.4797 87.2027 30.3537 86.8387 30.1204 86.568C29.8964 86.288 29.565 86.148 29.1264 86.148ZM34.9825 88.486C34.9825 89.13 35.1458 89.6527 35.4725 90.054C35.7992 90.4553 36.2052 90.656 36.6905 90.656C37.1945 90.656 37.6145 90.4647 37.9505 90.082C38.2865 89.69 38.4545 89.1253 38.4545 88.388C38.4545 87.6693 38.2772 87.1327 37.9225 86.778C37.5678 86.414 37.1618 86.232 36.7045 86.232C36.2192 86.232 35.8085 86.4327 35.4725 86.834C35.1458 87.226 34.9825 87.7767 34.9825 88.486ZM40.1345 92H38.4545V90.894C37.9692 91.6967 37.2505 92.098 36.2985 92.098C35.3652 92.098 34.6232 91.7433 34.0725 91.034C33.5312 90.3247 33.2605 89.466 33.2605 88.458C33.2605 87.338 33.5452 86.4513 34.1145 85.798C34.6932 85.1353 35.4305 84.804 36.3265 84.804C37.2505 84.804 37.9598 85.2007 38.4545 85.994V82.102H40.1345V92ZM43.701 92H42.021V84.902H43.701V92ZM43.869 82.774C43.869 83.0633 43.771 83.306 43.575 83.502C43.379 83.698 43.141 83.796 42.861 83.796C42.581 83.796 42.343 83.698 42.147 83.502C41.951 83.306 41.853 83.0633 41.853 82.774C41.853 82.494 41.951 82.256 42.147 82.06C42.343 81.864 42.581 81.766 42.861 81.766C43.141 81.766 43.379 81.864 43.575 82.06C43.771 82.256 43.869 82.494 43.869 82.774ZM50.7257 91.692C50.2311 91.9813 49.6151 92.126 48.8777 92.126C47.7857 92.126 46.8991 91.7807 46.2177 91.09C45.5457 90.3993 45.2097 89.5267 45.2097 88.472C45.2191 87.436 45.5551 86.5633 46.2177 85.854C46.8897 85.1447 47.8044 84.79 48.9617 84.79C49.6524 84.79 50.2404 84.9207 50.7257 85.182V86.666C50.2591 86.3673 49.7271 86.218 49.1297 86.218C48.4764 86.218 47.9491 86.4233 47.5477 86.834C47.1464 87.2447 46.9411 87.7907 46.9317 88.472C46.9504 89.144 47.1511 89.6853 47.5337 90.096C47.9257 90.5067 48.4531 90.712 49.1157 90.712C49.6944 90.712 50.2311 90.5533 50.7257 90.236V91.692ZM54.5999 90.81C54.9732 90.81 55.2626 90.7027 55.4679 90.488C55.6826 90.264 55.7899 89.9747 55.7899 89.62V88.948H54.9219C54.4832 88.948 54.1472 89.0413 53.9139 89.228C53.6806 89.4053 53.5639 89.634 53.5639 89.914C53.5639 90.5113 53.9092 90.81 54.5999 90.81ZM55.8599 91.146C55.5332 91.7527 54.9172 92.056 54.0119 92.056C53.3399 92.056 52.8032 91.86 52.4019 91.468C52.0099 91.076 51.8139 90.5813 51.8139 89.984C51.8139 89.312 52.0659 88.7847 52.5699 88.402C53.0739 88.0193 53.8019 87.828 54.7539 87.828H55.7899V87.394C55.7899 87.002 55.6872 86.7033 55.4819 86.498C55.2766 86.2927 54.9266 86.19 54.4319 86.19C53.6759 86.19 52.9806 86.4 52.3459 86.82V85.266C52.8779 84.9393 53.6432 84.776 54.6419 84.776C56.5646 84.776 57.5259 85.672 57.5259 87.464V92H55.8599V91.146ZM63.1796 91.832C62.8529 91.9907 62.4329 92.07 61.9196 92.07C60.3889 92.07 59.6236 91.2953 59.6236 89.746V86.162H58.5596V84.902H59.6236V83.194H61.3036V84.902H63.0676V86.162H61.3036V89.774C61.3036 90.0727 61.3829 90.3013 61.5416 90.46C61.7003 90.6093 61.9196 90.684 62.1996 90.684C62.5543 90.684 62.8809 90.586 63.1796 90.39V91.832ZM66.3143 92H64.6343V84.902H66.3143V92ZM66.4823 82.774C66.4823 83.0633 66.3843 83.306 66.1883 83.502C65.9923 83.698 65.7543 83.796 65.4743 83.796C65.1943 83.796 64.9563 83.698 64.7603 83.502C64.5643 83.306 64.4663 83.0633 64.4663 82.774C64.4663 82.494 64.5643 82.256 64.7603 82.06C64.9563 81.864 65.1943 81.766 65.4743 81.766C65.7543 81.766 65.9923 81.864 66.1883 82.06C66.3843 82.256 66.4823 82.494 66.4823 82.774ZM74.669 88.43C74.669 89.5033 74.3657 90.3853 73.759 91.076C73.1617 91.7667 72.3217 92.112 71.239 92.112C70.1657 92.112 69.3257 91.776 68.719 91.104C68.1217 90.432 67.823 89.5733 67.823 88.528C67.823 87.4453 68.1357 86.554 68.761 85.854C69.3863 85.1447 70.2123 84.79 71.239 84.79C72.331 84.79 73.1757 85.1353 73.773 85.826C74.3703 86.5073 74.669 87.3753 74.669 88.43ZM69.587 88.472C69.587 89.1253 69.7317 89.6713 70.021 90.11C70.3103 90.5487 70.721 90.768 71.253 90.768C71.8037 90.768 72.219 90.5533 72.499 90.124C72.779 89.6947 72.919 89.1487 72.919 88.486C72.919 87.8047 72.7837 87.2493 72.513 86.82C72.2423 86.3813 71.8177 86.162 71.239 86.162C70.707 86.162 70.2963 86.3813 70.007 86.82C69.727 87.2587 69.587 87.8093 69.587 88.472ZM82.277 92H80.597V87.632C80.597 87.1653 80.485 86.8153 80.261 86.582C80.037 86.3393 79.7337 86.218 79.351 86.218C78.9124 86.218 78.5437 86.3907 78.245 86.736C77.9464 87.072 77.797 87.5573 77.797 88.192V92H76.117V84.902H77.797V86.12C78.1984 85.252 78.9264 84.818 79.981 84.818C80.6904 84.818 81.2504 85.0327 81.661 85.462C82.0717 85.8913 82.277 86.498 82.277 87.282V92ZM88.667 89.956C88.667 90.6187 88.429 91.1367 87.953 91.51C87.477 91.8833 86.8424 92.07 86.049 92.07C85.1717 92.07 84.4624 91.9253 83.921 91.636V90.096C84.5464 90.516 85.223 90.726 85.951 90.726C86.259 90.726 86.497 90.67 86.665 90.558C86.8424 90.4367 86.931 90.2733 86.931 90.068C86.931 89.9467 86.903 89.8393 86.847 89.746C86.791 89.6433 86.6837 89.5453 86.525 89.452C86.3664 89.3587 86.2404 89.2933 86.147 89.256C86.063 89.2093 85.8904 89.13 85.629 89.018C85.601 89.0087 85.5777 88.9993 85.559 88.99C85.5497 88.9807 85.531 88.9713 85.503 88.962C85.475 88.9527 85.4517 88.9433 85.433 88.934C84.397 88.4673 83.879 87.7953 83.879 86.918C83.879 86.2647 84.1264 85.7513 84.621 85.378C85.1157 85.0047 85.7364 84.818 86.483 84.818C87.2017 84.818 87.799 84.9207 88.275 85.126V86.61C87.8084 86.33 87.225 86.19 86.525 86.19C86.2357 86.19 86.007 86.2553 85.839 86.386C85.6804 86.5073 85.601 86.666 85.601 86.862C85.601 86.9367 85.6104 87.0067 85.629 87.072C85.657 87.1373 85.699 87.2027 85.755 87.268C85.8204 87.324 85.881 87.3753 85.937 87.422C85.993 87.4687 86.0724 87.52 86.175 87.576C86.2777 87.6227 86.3664 87.6647 86.441 87.702C86.5157 87.7393 86.6184 87.786 86.749 87.842C86.8797 87.898 86.9824 87.9447 87.057 87.982C87.5517 88.2247 87.9437 88.4953 88.233 88.794C88.5224 89.0927 88.667 89.48 88.667 89.956Z" fill="black"/>
</svg>
