<svg width="60" height="67" viewBox="0 0 60 67" fill="none" xmlns="http://www.w3.org/2000/svg">
    <defs>
        <filter id="filter0_d_22_115" x="0" y="0" width="60" height="67" filterUnits="userSpaceOnUse" color-interpolation-filters="sRGB">
            <feFlood flood-opacity="0" result="BackgroundImageFix"/>
            <feColorMatrix in="SourceAlpha" type="matrix" values="0 0 0 0 0 0 0 0 0 0 0 0 0 0 0 0 0 0 127 0" result="hardAlpha"/>
            <feOffset dx="3" dy="4"/>
            <feGaussianBlur stdDeviation="2"/>
            <feComposite in2="hardAlpha" operator="out"/>
            <feColorMatrix type="matrix" values="0 0 0 0 0 0 0 0 0 0 0 0 0 0 0 0 0 0 0.25 0"/>
            <feBlend mode="normal" in2="BackgroundImageFix" result="effect1_dropShadow_22_115"/>
            <feBlend mode="normal" in="SourceGraphic" in2="effect1_dropShadow_22_115" result="shape"/>
        </filter>
    </defs>
<g filter="url(#filter0_d_22_115)">
<path d="M53 41.3V2.95C53 1.10625 51.8857 0 50.0286 0H12.1429C5.82857 0 1 4.79375 1 11.0625V47.9375C1 54.2062 5.82857 59 12.1429 59H50.0286C51.5143 59 53 57.8937 53 56.05V54.2062C53 53.4688 52.6286 52.7313 51.8857 51.9938C51.5143 50.15 51.5143 44.9875 51.8857 43.5125C52.6286 43.1437 53 42.4062 53 41.3ZM17.7143 19.3594C17.7143 19.1149 17.8121 18.8804 17.9863 18.7075C18.1604 18.5346 18.3966 18.4375 18.6429 18.4375H25.1429V11.9844C25.1429 11.7399 25.2407 11.5054 25.4148 11.3325C25.589 11.1596 25.8252 11.0625 26.0714 11.0625H31.6429C31.8891 11.0625 32.1253 11.1596 32.2995 11.3325C32.4736 11.5054 32.5714 11.7399 32.5714 11.9844V18.4375H39.0714C39.3177 18.4375 39.5539 18.5346 39.728 18.7075C39.9022 18.8804 40 19.1149 40 19.3594V24.8906C40 25.1351 39.9022 25.3696 39.728 25.5425C39.5539 25.7154 39.3177 25.8125 39.0714 25.8125H32.5714V32.2656C32.5714 32.5101 32.4736 32.7446 32.2995 32.9175C32.1253 33.0904 31.8891 33.1875 31.6429 33.1875H26.0714C25.8252 33.1875 25.589 33.0904 25.4148 32.9175C25.2407 32.7446 25.1429 32.5101 25.1429 32.2656V25.8125H18.6429C18.3966 25.8125 18.1604 25.7154 17.9863 25.5425C17.8121 25.3696 17.7143 25.1351 17.7143 24.8906V19.3594ZM45.2 51.625H12.1429C9.91429 51.625 8.42857 50.15 8.42857 47.9375C8.42857 45.725 10.2857 44.25 12.1429 44.25H45.2V51.625Z" fill="#392CFE"/>
</g>

</svg>
